<?xml version="1.0" encoding="utf-8"?>
<!-- Generator: Adobe Illustrator 19.1.0, SVG Export Plug-In . SVG Version: 6.00 Build 0)  -->
<!DOCTYPE svg PUBLIC "-//W3C//DTD SVG 1.1//EN" "http://www.w3.org/Graphics/SVG/1.1/DTD/svg11.dtd">
<svg version="1.1" id="Layer_1" xmlns="http://www.w3.org/2000/svg" xmlns:xlink="http://www.w3.org/1999/xlink" x="0px" y="0px"
	 viewBox="0 0 320 320" style="enable-background:new 0 0 320 320;" xml:space="preserve">
<style type="text/css">
	.st0{fill:none;stroke:#B3B2B2;stroke-miterlimit:10;}
	.st1{fill:#B3B2B2;}
</style>
<rect x="0" y="0" class="st0" width="320" height="320"/>
<g>
	<g>
		<path class="st1" d="M161.5,24.4c0-0.2,0.1-0.3,0.2-0.3c0.1-0.1,0.3-0.1,0.7-0.1h0.3v-0.2h-2.1l-2.8,6.3l-2.8-6.3h-2.1V24h0.3
			c0.3,0,0.6,0,0.7,0.1c0.1,0.1,0.2,0.2,0.2,0.3c0,0.2,0.1,0.5,0.1,1.1v3.4c0,0.5,0,0.9,0,1.1c0,0.2-0.1,0.3-0.2,0.4
			c-0.1,0.1-0.3,0.1-0.6,0.1h-0.3v0.2h3.3v-0.2H156c-0.3,0-0.5,0-0.6-0.1c-0.1-0.1-0.2-0.2-0.2-0.3c0-0.2,0-0.5,0-1.1v-4.3l2.7,6.1
			v0l0,0l0,0v0l2.7-6.1v4.3c0,0.6,0,0.9,0,1.1c0,0.2-0.1,0.3-0.2,0.3c-0.1,0.1-0.3,0.1-0.6,0.1h-0.2v0.2h3.3v-0.2h-0.3
			c-0.3,0-0.5,0-0.6-0.1c-0.1-0.1-0.2-0.2-0.2-0.4c0-0.2,0-0.5,0-1.1v-3.4C161.5,24.9,161.5,24.5,161.5,24.4z"/>
	</g>
	<g>
		<path class="st1" d="M169.8,35.4c0-0.2,0.1-0.3,0.2-0.3c0.1-0.1,0.3-0.1,0.7-0.1h0.3v-0.2h-2.1L166,41l-2.8-6.3h-2.1V35h0.3
			c0.3,0,0.6,0,0.7,0.1c0.1,0.1,0.2,0.2,0.2,0.3c0,0.2,0.1,0.5,0.1,1.1v3.4c0,0.5,0,0.9,0,1.1c0,0.2-0.1,0.3-0.2,0.4
			c-0.1,0.1-0.3,0.1-0.6,0.1h-0.3v0.2h3.3v-0.2h-0.2c-0.3,0-0.5,0-0.6-0.1c-0.1-0.1-0.2-0.2-0.2-0.3c0-0.2,0-0.5,0-1.1v-4.3l2.7,6.1
			v0l0,0l0,0v0l2.7-6.1v4.3c0,0.6,0,0.9,0,1.1c0,0.2-0.1,0.3-0.2,0.3c-0.1,0.1-0.3,0.1-0.6,0.1h-0.2v0.2h3.3v-0.2h-0.3
			c-0.3,0-0.5,0-0.6-0.1c-0.1-0.1-0.2-0.2-0.2-0.4s0-0.5,0-1.1v-3.4C169.7,35.9,169.7,35.5,169.8,35.4z"/>
	</g>
	<path class="st1" d="M151.5,22.3V43h20.7v-0.2V22.3H151.5z M171.7,22.6l-19.9,19.8V22.6H171.7z M152.1,42.7L172,22.9v19.8H152.1z"
		/>
</g>
<g>
	<path class="st1" d="M38.1,39.2l7.3-16.5h6.1v0.7h-0.7c-1,0-1.6,0.1-1.9,0.2c-0.3,0.2-0.5,0.5-0.6,0.9C48.1,24.9,48,26,48,27.6v9.8
		c0,1.6,0,2.6,0.1,3.1c0.1,0.5,0.3,0.8,0.6,1.1c0.3,0.2,0.9,0.4,1.8,0.4h0.9v0.7h-9.5v-0.7h0.7c0.8,0,1.4-0.1,1.8-0.3
		c0.3-0.2,0.5-0.6,0.6-1c0.1-0.5,0.1-1.5,0.1-3.2V24.7l-7.9,17.9h-0.7l-7.9-17.9v11.7c0,1.6,0,2.7,0.1,3.3c0.1,0.6,0.4,1.1,0.9,1.5
		c0.5,0.4,1.2,0.7,2.1,0.7v0.7h-7.1v-0.7c0.9,0,1.5-0.3,2.1-0.7c0.5-0.4,0.9-0.9,1-1.5c0.1-0.6,0.2-1.7,0.2-3.4v-8.7
		c0-1.6,0-2.6-0.1-3.1c-0.1-0.5-0.3-0.8-0.6-1c-0.3-0.2-1-0.3-2-0.3h-0.5v-0.7h6.1L38.1,39.2z"/>
	<path class="st1" d="M65,35.3h-7.6l-0.5,1.3c-0.8,1.8-1.1,3-1.1,3.6c0,0.6,0.2,1,0.6,1.4c0.4,0.3,0.9,0.5,1.6,0.5v0.7H52v-0.7
		c0.9-0.1,1.5-0.4,2-0.9c0.4-0.5,0.9-1.5,1.6-3.1c0.1-0.1,0.3-0.7,0.7-1.7L62,22.4h0.6l6.7,15.8l0.9,2.1c0.2,0.5,0.5,0.8,0.8,1.1
		c0.3,0.3,0.9,0.4,1.6,0.5v0.7h-7.8v-0.7c1,0,1.6-0.1,1.9-0.2c0.3-0.1,0.5-0.4,0.5-0.8c0-0.2-0.2-0.9-0.7-1.9L65,35.3z M64.7,34.6
		l-3.5-8.5l-3.5,8.5H64.7z"/>
	<path class="st1" d="M73.1,23.4v-0.7h9.1v0.7h-0.4c-1,0-1.6,0.1-1.9,0.2c-0.3,0.2-0.5,0.5-0.6,0.9c-0.1,0.4-0.2,1.5-0.2,3.1v9.8
		c0,1.6,0,2.6,0.1,3.1c0.1,0.5,0.3,0.8,0.6,1.1c0.3,0.2,0.9,0.4,1.8,0.4h0.6v0.7h-9.1v-0.7h0.6c0.9,0,1.4-0.1,1.8-0.3
		c0.3-0.2,0.5-0.6,0.6-1c0.1-0.5,0.1-1.5,0.1-3.2v-9.8c0-1.6,0-2.6-0.1-3.1c-0.1-0.5-0.3-0.8-0.6-1c-0.3-0.2-1-0.3-2-0.3H73.1z"/>
	<path class="st1" d="M84.7,42.4V36h0.7c0.8,4.2,2.8,6.3,5.9,6.3c1.4,0,2.5-0.4,3.3-1.2c0.8-0.8,1.2-1.7,1.2-2.7c0-1-0.3-1.8-1-2.5
		c-0.7-0.7-1.9-1.4-3.7-2.1c-1.6-0.7-2.8-1.3-3.6-1.8c-0.8-0.5-1.4-1.2-1.9-2c-0.5-0.8-0.7-1.7-0.7-2.6c0-1.4,0.5-2.6,1.5-3.6
		c1-0.9,2.2-1.4,3.7-1.4c0.8,0,1.6,0.1,2.4,0.4c0.7,0.3,1.5,0.8,2.3,1.7c0.5-0.5,0.7-1.1,0.8-1.7h0.7v5.2h-0.7c-0.4-1.5-1-2.7-2-3.6
		c-0.9-0.9-2-1.3-3.3-1.3c-1.2,0-2.1,0.3-2.6,1c-0.6,0.6-0.8,1.3-0.8,2.1c0,0.9,0.3,1.7,1,2.3c0.7,0.7,1.9,1.4,3.7,2.2
		c1.7,0.8,3,1.4,3.7,1.8c0.8,0.5,1.4,1.1,1.9,1.9c0.5,0.8,0.7,1.8,0.7,2.9c0,1.7-0.6,3.1-1.7,4.2c-1.1,1.1-2.7,1.6-4.6,1.6
		c-2.2,0-4-0.8-5.5-2.5c-0.3,0.5-0.6,1.1-0.7,1.9H84.7z"/>
	<path class="st1" d="M100.8,32.5c0-3.1,1-5.5,3.1-7.4c2.1-1.9,4.6-2.8,7.7-2.8c3.1,0,5.7,0.9,7.8,2.8c2.1,1.8,3.1,4.4,3.1,7.5
		c0,3.1-1,5.6-3,7.5c-2,1.9-4.6,2.9-7.9,2.9c-3.2,0-5.8-1-7.8-2.9C101.8,38.2,100.8,35.7,100.8,32.5z M104.2,32.6
		c0,3.2,0.6,5.6,1.9,7.2c1.3,1.6,3.2,2.4,5.8,2.4c2.2,0,4-0.8,5.3-2.4c1.3-1.6,2-4,2-7.2c0-3.1-0.6-5.5-1.9-7.1
		c-1.3-1.7-3.1-2.5-5.6-2.5c-2.4,0-4.2,0.8-5.5,2.4C104.8,27.1,104.2,29.5,104.2,32.6z"/>
	<path class="st1" d="M142.6,43l-14.1-18.7v13.8c0,1.1,0.1,1.9,0.2,2.3c0.1,0.4,0.4,0.7,1,1c0.5,0.3,1.3,0.5,2.4,0.5v0.7h-7.4v-0.7
		c0.9-0.1,1.7-0.2,2.2-0.5c0.5-0.3,0.8-0.6,0.9-0.9c0.1-0.3,0.1-1.1,0.1-2.3V27.6c0-1.5-0.1-2.5-0.2-3.1c-0.1-0.5-0.4-0.9-0.7-1
		c-0.3-0.1-1-0.2-2.1-0.2v-0.7h5.9l11.8,15.6V26.4c0-0.9-0.1-1.5-0.3-1.9c-0.2-0.4-0.6-0.6-1.1-0.8c-0.6-0.2-1.2-0.3-2-0.3v-0.7h7.2
		v0.7c-0.8,0.1-1.5,0.2-2,0.5c-0.5,0.3-0.8,0.6-0.9,0.9c-0.1,0.4-0.2,1-0.2,1.8V43H142.6z"/>
</g>
<g>
	<path class="st1" d="M191.2,39.3l7.4-16.7h6.2v0.7H204c-1,0-1.6,0.1-1.9,0.2c-0.3,0.2-0.5,0.5-0.6,0.9c-0.1,0.4-0.2,1.5-0.2,3.2
		v9.9c0,1.6,0,2.6,0.1,3.1c0.1,0.5,0.3,0.9,0.6,1.1c0.3,0.2,0.9,0.4,1.9,0.4h0.9v0.7h-9.7v-0.7h0.7c0.9,0,1.4-0.1,1.8-0.3
		c0.3-0.2,0.5-0.6,0.6-1c0.1-0.5,0.1-1.5,0.1-3.2V24.7l-8,18.1h-0.7l-8.1-18.1v11.8c0,1.6,0.1,2.7,0.1,3.3c0.1,0.6,0.4,1.1,0.9,1.5
		c0.5,0.4,1.2,0.7,2.2,0.8v0.7h-7.2v-0.7c0.9,0,1.6-0.3,2.1-0.7c0.5-0.4,0.9-0.9,1-1.6c0.1-0.6,0.2-1.8,0.2-3.4v-8.8
		c0-1.6,0-2.6-0.1-3.1c-0.1-0.5-0.3-0.8-0.6-1c-0.3-0.2-1-0.3-2-0.3h-0.6v-0.7h6.2L191.2,39.3z"/>
	<path class="st1" d="M218.5,35.3h-7.7l-0.5,1.3c-0.8,1.9-1.2,3.1-1.2,3.6c0,0.6,0.2,1.1,0.6,1.4c0.4,0.3,0.9,0.5,1.6,0.5v0.7h-6
		v-0.7c0.9-0.1,1.6-0.5,2-0.9c0.4-0.5,1-1.5,1.6-3.1c0.1-0.2,0.3-0.7,0.7-1.7l5.9-14h0.6l6.8,16l0.9,2.1c0.2,0.5,0.5,0.8,0.8,1.1
		c0.3,0.3,0.9,0.4,1.6,0.5v0.7h-7.9v-0.7c1,0,1.6-0.1,2-0.2c0.3-0.1,0.5-0.4,0.5-0.9c0-0.2-0.2-0.9-0.7-2L218.5,35.3z M218.2,34.6
		l-3.6-8.6l-3.6,8.6H218.2z"/>
	<path class="st1" d="M225.1,27.4h-0.7l0.1-4.9h19.6l0.1,4.9h-0.6c-0.2-1.3-0.5-2.3-0.9-2.9c-0.4-0.6-0.8-1-1.3-1.1
		c-0.5-0.1-1.2-0.2-2.3-0.2h-3.2v14.2c0,1.6,0,2.6,0.1,3.1c0.1,0.5,0.3,0.9,0.6,1.1c0.3,0.2,0.9,0.4,1.8,0.4h1v0.7h-10.1v-0.7h1
		c0.9,0,1.5-0.1,1.8-0.3c0.3-0.2,0.5-0.6,0.6-1c0.1-0.5,0.1-1.5,0.1-3.2V23.3h-3c-1.3,0-2.2,0.1-2.6,0.2c-0.4,0.1-0.9,0.5-1.3,1.1
		C225.6,25.2,225.3,26.1,225.1,27.4z"/>
	<path class="st1" d="M262.4,32.6h-10.5v4.9c0,1.6,0,2.6,0.1,3.1c0.1,0.5,0.3,0.9,0.6,1.1c0.3,0.2,0.9,0.4,1.8,0.4h0.5v0.7h-9.1
		v-0.7h0.5c0.9,0,1.5-0.1,1.8-0.3c0.3-0.2,0.5-0.6,0.6-1c0.1-0.5,0.1-1.5,0.1-3.2v-9.9c0-1.6-0.1-2.6-0.1-3.1
		c-0.1-0.5-0.3-0.8-0.6-1c-0.3-0.2-1-0.3-2-0.3h-0.4v-0.7h9.1v0.7h-0.4c-1,0-1.6,0.1-1.9,0.2c-0.3,0.2-0.5,0.5-0.6,0.9
		c-0.1,0.4-0.2,1.5-0.2,3.2v4h10.5v-4c0-1.6,0-2.6-0.1-3.1c-0.1-0.5-0.3-0.8-0.6-1c-0.3-0.2-1-0.3-2-0.3h-0.5v-0.7h9.2v0.7h-0.3
		c-1,0-1.6,0.1-2,0.2c-0.3,0.2-0.5,0.5-0.6,0.9c-0.1,0.4-0.2,1.5-0.2,3.2v9.9c0,1.6,0,2.6,0.1,3.1c0.1,0.5,0.3,0.9,0.6,1.1
		c0.3,0.2,0.9,0.4,1.8,0.4h0.5v0.7h-9.2v-0.7h0.7c0.9,0,1.4-0.1,1.8-0.3c0.3-0.2,0.5-0.6,0.6-1c0.1-0.5,0.1-1.5,0.1-3.2V32.6z"/>
	<path class="st1" d="M270.2,23.3v-0.7h9.2v0.7H279c-1,0-1.6,0.1-2,0.2c-0.3,0.2-0.5,0.5-0.6,0.9c-0.1,0.4-0.2,1.5-0.2,3.2v9.9
		c0,1.6,0,2.6,0.1,3.1c0.1,0.5,0.3,0.9,0.6,1.1c0.3,0.2,0.9,0.4,1.9,0.4h0.6v0.7h-9.2v-0.7h0.6c0.9,0,1.5-0.1,1.8-0.3
		c0.3-0.2,0.5-0.6,0.6-1c0.1-0.5,0.1-1.5,0.1-3.2v-9.9c0-1.6,0-2.6-0.1-3.1c-0.1-0.5-0.3-0.8-0.6-1c-0.3-0.2-1-0.3-2-0.3H270.2z"/>
	<path class="st1" d="M282,42.6v-6.5h0.7c0.8,4.2,2.8,6.4,6,6.4c1.4,0,2.5-0.4,3.3-1.2c0.8-0.8,1.2-1.7,1.2-2.7c0-1-0.3-1.9-1-2.6
		c-0.7-0.7-1.9-1.4-3.8-2.2c-1.6-0.7-2.8-1.3-3.7-1.8c-0.8-0.5-1.5-1.2-1.9-2c-0.5-0.8-0.7-1.7-0.7-2.7c0-1.4,0.5-2.6,1.5-3.6
		c1-1,2.3-1.4,3.8-1.4c0.8,0,1.7,0.1,2.4,0.4c0.8,0.3,1.5,0.9,2.3,1.7c0.5-0.5,0.7-1.1,0.8-1.8h0.7v5.3h-0.7c-0.4-1.5-1-2.7-2-3.6
		c-1-0.9-2.1-1.3-3.3-1.3c-1.2,0-2.1,0.3-2.6,1c-0.6,0.6-0.8,1.4-0.8,2.1c0,0.9,0.4,1.7,1.1,2.4c0.7,0.7,1.9,1.4,3.8,2.2
		c1.7,0.8,3,1.4,3.8,1.9c0.8,0.5,1.4,1.1,1.9,2c0.5,0.8,0.7,1.8,0.7,2.9c0,1.7-0.6,3.1-1.7,4.2c-1.2,1.1-2.7,1.6-4.6,1.6
		c-2.2,0-4.1-0.9-5.5-2.5c-0.3,0.5-0.6,1.1-0.7,2H282z"/>
</g>
<rect x="24.7" y="65.4" class="st0" width="85.1" height="111.4"/>
<rect x="24.7" y="183.6" class="st0" width="85.1" height="111.4"/>
<rect x="117.5" y="183.6" class="st0" width="85.1" height="111.4"/>
<rect x="210.2" y="183.6" class="st0" width="85.1" height="111.4"/>
<rect x="117.5" y="65.4" class="st0" width="85.1" height="84.5"/>
<rect x="117.5" y="155.5" class="st0" width="85.1" height="21.3"/>
<rect x="210.2" y="155.5" class="st0" width="85.1" height="21.3"/>
<rect x="210.2" y="65.4" class="st0" width="85.1" height="84.5"/>
</svg>
