<?xml version="1.0" encoding="utf-8"?>
<!-- Generator: Adobe Illustrator 19.1.0, SVG Export Plug-In . SVG Version: 6.00 Build 0)  -->
<!DOCTYPE svg PUBLIC "-//W3C//DTD SVG 1.1//EN" "http://www.w3.org/Graphics/SVG/1.1/DTD/svg11.dtd">
<svg version="1.1" xmlns="http://www.w3.org/2000/svg" xmlns:xlink="http://www.w3.org/1999/xlink" x="0px" y="0px"
	 viewBox="0 0 320 320" style="enable-background:new 0 0 320 320;" xml:space="preserve">
<style type="text/css">
	.st0{fill:#FFFFFF;}
	.st1{fill:none;}
	.st2{fill:#646363;}
	.st3{fill:#BEBEBD;}
	.st4{opacity:0.6;fill:#DCDCDC;}
	.st5{fill:#DCDCDC;}
	.st6{fill:#706F6F;}
	.st7{fill:#EDEDED;}
	.st8{fill:#9D9D9C;}
	.st9{fill:none;stroke:#B3B2B2;stroke-miterlimit:10;}
</style>
<g id="Layer_1">
	<g>
		<path class="st0" d="M115.2,65.4c-1.6,0-3.6-0.8-4.7-1.6c-2.4-1.6-5.4-4.4-6.3-8.4c-1.3-5.4-0.6-9.6-0.2-12
			c0.1-0.7,0.2-1.3,0.2-1.7c0-0.2,0-0.4,0.1-0.5c0.2-1.8,2.3-2.2,3.6-2.5c0.2,0,0.4-0.1,0.6-0.1c0.2-0.1,0.5-0.1,0.9-0.2
			c2-0.5,3.7-0.9,4-1.6c0,0,0,0,0,0c0-0.1,0-0.2,0.1-0.3c0.1-0.4,0.1-0.8,0.1-1.1c0-0.3,0.1-0.5,0.1-0.8c0.1-0.5,0.4-0.6,0.5-0.7
			c0.2-0.1,0.4-0.1,0.6-0.1c0.1,0,0.2-0.1,0.2-0.2c0-0.2,0-0.7,0-1.2c0-0.1,0-0.2,0-0.2c-0.1-0.7-0.2-1.4-0.6-2.1c0,0,0-0.1-0.1-0.1
			c0,0-1-0.9-1.4-3.2c0-0.2,0.1-0.3,0.3-0.5c0.1-0.1,0.2-0.2,0.2-0.3c0-0.1,0.1-0.2,0.1-0.2c-0.9-4.1,0-5.2,1.1-5.8
			c0.1,0,0.1-0.1,0.1-0.2c0.1-1,0.9-1.3,2.9-1.8c0.3-0.1,0.6-0.2,0.9-0.3c0.6-0.2,1-0.3,1.4-0.3c0.9,0,1.2,0.4,1.6,0.9
			c0.4,0.5,0.8,1,1.7,1.2c1.1,0.2,1.1,0.5,1.2,0.7c0,0.2,0.1,0.6,0.6,0.9c0.8,0.4,0.9,0.7,1,1c0,0.1,0,0.1,0.1,0.2
			c0.2,0.4,0.1,1.8-0.3,2.3c-0.1,0.1-0.2,0.3-0.3,0.5c0,0,0,0.1,0,0.1c0,0.4,0,0.8,0,1.1c0,0,0,0,0,0.1c0,0.2,0.2,0.3,0.3,0.4
			c0,0,0.1,0.1,0.2,0.1c0.1,0.1,0,0.7-0.4,1.2c-0.2,0.3-0.4,0.6-0.5,1c-0.2,0.4-0.3,0.8-0.5,0.9c-0.1,0-0.1,0.1-0.1,0.1
			c-0.5,1.7-1.3,3.3-1.6,3.8c0,0.1,0,0.2,0,0.2l0.2,0.4c0,0,0.1,0.1,0.1,0.1c0.5,0.2,0.8,0.3,1.1,0.5c0.3,0.2,0.6,0.3,1.2,0.4
			c0.7,0.2,1.9,0.3,3.3,0.5c0.7,0.1,1.4,0.2,2.1,0.3c1.2,0.2,1.3,1.7,1.3,1.7c0,0,0,0,0,0c0.1,0.2,0.1,0.4,0.2,0.7c0,0,0,0,0,0
			l2.1,3.3c0,0.1,0.1,0.1,0.2,0.1c0.3,0,0.7,0.1,1,0.3c0.3,0.1,0.6,0.3,0.8,0.6c0.1,0.1,0.2,0.2,0.2,0.3c0.2,0.4,0.3,0.8,0.3,1.3
			c0,0.4-0.1,0.8-0.2,1.3c0,0.1,0,0.2,0.1,0.2c0.1,0,0.1,0.1,0.2,0.1c0,0,0,0,0.1,0c0.6,0.3,1.1,0.7,1.3,1.3
			c0.3,0.9,0.1,1.8-0.1,2.3c-0.3,0.6-0.7,2.4-0.9,3.4c0,0.1,0,0.2,0.2,0.3c1.3,0.4,2.1,1,2.5,1.7c0.1,0.2,0.2,0.5,0.2,0.7
			c0,1.1-0.9,2.2-2.6,3.3c-1.7,1.1-4.1,2.1-6.9,2.8c-2.1,0.5-4.2,0.8-6.2,0.9c-0.1,0-0.1,0-0.2,0.1c-0.1,0.1-0.1,0.2-0.2,0.4
			c-0.3,0.5-0.5,0.8-1,0.8c-0.3,0-0.7-0.1-1.2-0.3c-0.1-0.1-0.2-0.1-0.4-0.2c-0.5-0.3-1-0.6-1.9-0.6c-0.2,0-0.3,0-0.5,0
			c-0.2,0-0.3,0.1-0.4,0.1c-0.4,0.2-0.7,0.4-0.9,0.8C117.3,65,116.5,65.4,115.2,65.4L115.2,65.4z"/>
		<path class="st1" d="M129.2,48.8L129.2,48.8c0.2,0,0.3-0.1,0.5-0.1C129.6,48.8,129.4,48.8,129.2,48.8z"/>
		<path class="st1" d="M124.2,52.1C124.2,52.1,124.2,52.1,124.2,52.1c0.1,0,0.2,0,0.4,0C124.4,52.2,124.3,52.1,124.2,52.1z"/>
		<path class="st1" d="M125,52.2C125,52.2,124.9,52.2,125,52.2C124.9,52.2,125,52.2,125,52.2L125,52.2z"/>
		<path class="st2" d="M135.5,45.2c0-0.1-0.1-0.2-0.1-0.4c0,0,0,0,0,0c-0.4,0.1-0.8,0.2-1.4,0.2c-0.8,0.1-1.6,0.1-2.2,0.1
			c0.1,0,0.2,0.1,0.2,0.2c0.1,0.2,1,1.7,1.2,3.9c0.1,0,0.1,0.1,0.2,0.1c0.2,0,0.4,0,0.5,0c0.1,0,0.2-0.1,0.3-0.1
			c0.5-0.6,0.9-1.4,1.2-2.1C135.6,46.7,135.6,45.8,135.5,45.2z"/>
		<path class="st3" d="M118.4,34.3c0.5-0.3,0-0.4-0.2-0.6c-0.2-0.3-0.4-0.5,0-0.4c-0.9-0.2-0.5-0.7-1.2-1.3
			c-0.6-0.4-1.1-0.2-0.5,0.9c0.3,0.5,0.8,1.3,1.1,1.7c0.1,0.1,0.1,0.2,0.2,0.2C117.8,34.6,118.1,34.4,118.4,34.3z"/>
		<path class="st3" d="M135.1,54.5c-0.3-0.2-0.8-0.3-1-0.3c0,0,0,0,0,0c0,0,0,0,0,0c0,0,0,0,0,0c0,0,0,0,0,0c0,0,0,0,0,0
			c0,0,0,0,0,0c0,0,0,0,0,0c0,0,0,0,0,0c0,0,0,0,0,0c0,0,0,0,0,0c0,0,0,0,0,0c0,0,0,0,0,0c0,0,0,0,0,0c0,0,0,0,0,0c0,0-0.1,0-0.1,0
			c-0.3,0-0.4,0.1-0.5,0.3c-0.1,0.3,0.1,1.1,0.6,1.1c0.1,0,0.1,0,0.2,0c0,0,0,0,0.1,0c0.1,0,0.1,0,0.2,0c0,0,0,0,0,0
			c0.1,0,0.2,0,0.3-0.1c0,0,0,0,0.1,0c0.1,0,0.2,0,0.3-0.1c0,0,0,0,0,0c0.1,0,0.2-0.1,0.3-0.1c0,0,0,0,0,0c0.1,0,0.2-0.1,0.2-0.1
			c0,0,0,0,0,0c0.1,0,0.2-0.1,0.2-0.1c0,0,0,0,0,0c0.1,0,0.1-0.1,0.2-0.1c0,0,0,0,0,0c0,0,0,0,0,0C135.9,55.2,135.5,54.7,135.1,54.5
			z"/>
		<path class="st3" d="M116.5,25.7c1.1,0,2.2,0.3,2.7,0.8c-0.3-0.5-1.4-1-1.8-1.2c-0.5-0.2-0.2-1.6,0.4-2.5c0.6-0.9,2-0.7,2.1-0.7
			c-0.7-0.3-1.4-0.5-2.2-0.3c-1.4,0.3-1.9,2.2-2,3C115.6,25.5,115.8,25.8,116.5,25.7z"/>
		<path class="st3" d="M117.5,30.4c-0.7,0.3-1.7-1.1-1.5-1.8c0.2-0.6,0.6-0.2,0.9-0.3c0.3-0.1,0.4-0.2,0.4-0.3c0,0,0,0,0,0
			c-0.1,0.4-0.9-0.1-1.4-0.4c-0.9-0.5-0.8,1.7,0.2,2.6C116.9,31,117.2,30.7,117.5,30.4z"/>
		<path class="st3" d="M108.8,60.3c-4-3.9-4.4-9.1-3.1-13.4c0.5-1.6,2-1.6,1.4-3c-0.4-0.9-1.2-1.6-1.8-1.9
			c-1.1,1.3-1.9,9.7-0.6,13.5c0.9,2.7,3.1,5.6,5.2,6.8c2,1.2,2.2,0.5,2.3-0.2c0-0.2,0-0.4,0-0.7C111.9,62.1,109.5,61,108.8,60.3z"/>
		<path class="st4" d="M125,52.2L125,52.2C125,52.2,124.9,52.2,125,52.2C124.9,52.2,124.9,52.2,125,52.2c-0.2,0-0.3,0-0.4,0
			c0,0,0,0-0.1,0c-0.2,0-0.3,0-0.3,0c0,0,0,0,0,0c0.6,0.3,0.8,1.1,0.8,1.1l0.9,3.8l0,0l2.7-0.5c0,0-0.6-3.1-0.7-3.8
			c-0.1-0.6-0.8-0.7-1.4-0.7c0.5-0.1,0.9-0.3,1.2-0.5c-0.2-0.4-0.3-0.8-0.4-1.2c-1.1,0.4-1.9,0.6-2.6,0.7L125,52.2z"/>
		<path class="st5" d="M131.9,47.9c-0.2,0.1-0.5,0.2-0.7,0.3c-0.3,0.1-0.8,0.3-0.9,0.3c-0.3,0.1-0.8,0.2-1,0.2
			c-0.1,0-0.2,0.9-0.8,0.9c-0.1,0,0.1,0.6,0.1,0.8c0.3,1.1,0.7,2.2,1.3,3c0.1,0.1,0.1,0.2,0.2,0.2c0.8,0.4,1.5,0,1.9-0.4
			c0.5-0.5,0.9-2,0.8-3c0-0.5-0.1-1.2-0.1-1.5c0-0.2-0.1-0.4-0.1-0.5c0,0,0-0.1,0-0.1c0-0.1-0.1-0.3-0.1-0.4c0,0,0,0,0,0
			c0-0.1-0.1-0.2-0.1-0.3c0,0,0,0,0,0C132.3,47.5,132.4,47.7,131.9,47.9z"/>
		<path class="st6" d="M121.7,41.6c0.6,0,0.8-0.5,0.8-0.9c0-0.3-0.4-0.4-0.4-0.2c0,0.1,0,0.2-0.1,0.3c-0.1,0.1-0.6,0-0.5-0.4
			c0,0,0.1-0.1,0.1-0.2c0-0.1,0.1-0.2,0-0.3c-0.3-0.2-0.6,0.1-0.7,0.6c0,0.1,0,0.1,0,0.2C120.9,41.2,121.3,41.6,121.7,41.6z"/>
		<path class="st6" d="M119,33.6c-0.6,0.2,0.7,0.7,0.7,0.4C119.7,33.5,119.7,33.5,119,33.6z"/>
		<path class="st6" d="M140.2,55.1c-0.4-0.8-1.3-1.4-2.6-1.8c0.2-0.9,0.6-2.7,0.9-3.3c0.4-0.9,0.7-3.1-1.3-3.9
			c-0.1-0.1-0.1-0.1-0.2-0.2c0.1-0.5,0.2-0.9,0.2-1.4c0-0.5-0.1-1-0.3-1.4c-0.1-0.1-0.1-0.2-0.2-0.4c-0.2-0.3-0.5-0.5-0.9-0.7
			c-0.4-0.2-0.8-0.3-1.1-0.3l-2.1-3.3c-0.1-0.2-0.2-0.4-0.2-0.6c0,0-0.1-1.7-1.5-1.9c-1.8-0.3-4.3-0.5-5.3-0.8
			c-1-0.2-1.1-0.6-2.2-0.9l-0.2-0.4c0.3-0.5,1.2-2.1,1.7-3.9c0.5-0.3,0.7-1.4,1.1-1.9c0.5-0.6,0.5-1.4,0.4-1.5
			c-0.2-0.2-0.4-0.2-0.4-0.4c0.1-0.4,0.1-0.8,0-1.2c0.1-0.2,0.1-0.3,0.2-0.4c0.5-0.7,0.6-2.1,0.4-2.6c-0.2-0.5-0.2-0.8-1.2-1.3
			c-1-0.6,0.3-1.2-1.8-1.6c-2.1-0.4-1.2-3-4.8-1.9c-2.6,0.8-3.8,1-3.9,2.3c-1.4,0.8-2,2.3-1.2,6.1c0,0,0,0,0,0
			c-0.2,0.3-0.6,0.4-0.6,0.9c0.4,2.4,1.5,3.3,1.5,3.3c0.3,0.8,0.5,1.4,0.5,2.1c0,0.1,0,0.2,0,0.2c0,0.5,0,0.9,0,1.2
			c-0.2,0-0.5,0-0.7,0.2c-0.3,0.1-0.6,0.4-0.6,0.9c-0.1,0.5-0.1,1.2-0.2,1.9c0,0.1,0,0.2-0.1,0.3c-0.3,0.8-3.6,1.3-4.7,1.6
			c-1.2,0.3-4.1,0.6-4.3,2.8c0,0.1,0,0.3-0.1,0.6c-0.1,2-1.7,6.9-0.1,13.9c1.1,4.6,4.8,7.4,6.4,8.5c1.9,1.3,6.1,2.8,7.7,0.2
			c0.2-0.4,0.5-0.6,0.8-0.7c0.1,0,0.3-0.1,0.4-0.1c1.3-0.2,1.9,0.4,2.6,0.7c2,1,2.2-0.3,2.6-1c1.9-0.1,4.1-0.4,6.3-0.9
			c2.9-0.7,5.2-1.7,6.9-2.8c1.7-1.1,2.7-2.3,2.7-3.5C140.4,55.7,140.3,55.4,140.2,55.1z M137.8,47.7c0.1,0.2,0.1,0.3,0,0.5
			c-0.3,0.4-0.3,1.1-0.3,1.6l-0.2,0.5c-0.1,0-0.1,0.1-0.2,0c-0.6-0.2-0.7-0.7-1.9-0.9c0.5-0.5,0.9-1.1,1.2-1.7c0,0,0,0,0-0.1
			c0.2-0.3,0.3-0.6,0.4-1C137.4,47.1,137.7,47.4,137.8,47.7z M136.2,55C136.1,55,136.1,55,136.2,55c-0.1,0.1-0.1,0.1-0.2,0.2
			c0,0,0,0,0,0c-0.1,0.1-0.2,0.1-0.2,0.1c0,0,0,0,0,0c-0.1,0-0.2,0.1-0.2,0.1c0,0,0,0,0,0c-0.1,0-0.2,0.1-0.3,0.1c0,0,0,0,0,0
			c-0.1,0-0.2,0.1-0.3,0.1c0,0,0,0-0.1,0c-0.1,0-0.2,0-0.3,0.1c0,0,0,0,0,0c-0.1,0-0.2,0-0.2,0c0,0,0,0-0.1,0c-0.1,0-0.2,0-0.2,0
			c-0.5,0-0.7-0.8-0.6-1.1c0.1-0.2,0.2-0.3,0.5-0.3c0,0,0.1,0,0.1,0c0,0,0,0,0,0c0,0,0,0,0,0c0,0,0,0,0,0c0,0,0,0,0,0c0,0,0,0,0,0
			c0,0,0,0,0,0c0,0,0,0,0,0c0,0,0,0,0,0c0,0,0,0,0,0c0,0,0,0,0,0c0,0,0,0,0,0c0,0,0,0,0,0c0,0,0,0,0,0c0,0,0,0-0.1,0c0,0,0,0,0,0
			c-0.2,0-0.4-0.1-0.4-0.4c0-0.6-0.2-3-0.2-3c0-0.4,0.5-0.4,0.6-0.5c0.1,0,0.3,0,0.3,0.3c0,0.2,0.1,3,0.2,3.2c0.1,0.2,0.2,0,0.2-0.1
			c0-0.1,0-0.5,0.3-0.4c0,0,1.4,0.1,1.5,1C136.4,54.6,136.3,54.8,136.2,55C136.1,55,136.1,55,136.2,55z M136,42.8
			c0.9,0.6,0.8,1.8,0.7,2.5c0,0,0,0,0,0c-0.1,0.7-0.2,1.3-0.4,1.7c0,0-0.1,0.1-0.1,0.2c0,0,0,0.1,0,0.1c0,0.1-0.1,0.1-0.1,0.2
			c0,0.1-0.1,0.1-0.1,0.2c0,0-0.1,0.1-0.1,0.1c-0.1,0.1-0.1,0.2-0.2,0.2c0,0,0,0.1-0.1,0.1c-0.1,0.1-0.1,0.2-0.2,0.3c0,0,0,0,0,0
			c-0.1,0.1-0.2,0.2-0.3,0.3c0,0,0,0,0,0c-0.1,0.1-0.2,0.1-0.2,0.2c0,0-0.1,0.1-0.1,0.1s-0.1,0.1-0.1,0.1c-0.1,0-0.1,0.1-0.2,0.1
			c0,0,0,0-0.1,0c-0.1,0-0.1,0.1-0.2,0.1c-0.1,0-0.2,0.1-0.3,0.1c-0.2,0-0.3,0-0.5,0c-0.1,0-0.1-0.1-0.2-0.1c-0.1-2.2-1-3.7-1.2-3.9
			c0-0.1-0.1-0.1-0.2-0.2c-0.3-0.2-0.9-0.2-1.5-0.2c0-0.8,0.4-1.2,0.5-1.2c0.3-0.1,0.2,0.1,1.7,0c0.4,0,0.4-0.6-0.2-0.6
			c-0.6,0-0.5-0.3-0.2-0.5C132.1,42.7,134.1,41.6,136,42.8z M117.6,21.9c0.7-0.2,1.5,0,2.2,0.3c1,0.5,1.7,1.3,2,1.8
			c0,0,0.8,0.1,1.5-0.2c0.4-0.2,0.7-0.1,0.9,0.1c0.8,0.8,0.8,1.5,0.6,2c-0.1,0.1-0.2,0.2-0.2,0.4l0,0c0,0,0,0.1,0,0.1
			c0,0.1,0,0.3,0.1,0.5c0.3,1.3-0.7,0.6-0.3,1.8c0.2,0.8-0.2,1.8-0.5,2.4c-0.2,0.2-0.4,0.5-0.8,0.5c-0.4-0.7-0.9-1.7-1.6-1.7
			c0.3,0.4,0.6,0.7,0.5,1.4c-0.3,0.1-0.6,0.1-0.8,0.3c-0.3,0.2-0.2,0.6,0.4,0.5c0.6-0.2,1.7,0.1,1.5,0.5c-0.4,0.6-0.7,1.3-1,1.8
			c-0.3,0.4-0.6,0.6-0.9,0.8c-0.4,0.2-0.9,0.3-1.6,0.3c-0.7,0-1.1-0.4-1.4-0.7c-0.1-0.1-0.2-0.2-0.2-0.2c-0.3-0.3-0.9-1.2-1.1-1.7
			c-0.6-1.2-0.1-1.3,0.5-0.9c0.7,0.6,0.3,1,1.2,1.3c0.1,0,0.2,0,0.3,0.1c0.2,0,0.4-0.1,0.3-0.2c-0.3-0.3-0.2-0.6,0.2-0.7
			c-0.3-0.1-0.8-0.3-1-0.7c0.5-0.2,1.1,0.3,1.6,0c-0.1-0.2-0.4-0.1-0.4-0.5c0.7,0.1,0.9-0.1,1.4-0.1c0.2,0,0-0.5-0.2-0.7
			c-0.3-0.1-0.6,0.2-1.1,0.2c-0.3-0.1-0.5-0.3-0.6-0.5c-0.1-0.3,0.3-0.6,0.3-0.9c0.1-0.7,0.3-1.6,0.2-2.5c0-0.1-0.1-0.3-0.2-0.4
			c-0.5-0.5-1.6-0.8-2.7-0.8c-0.6,0.1-0.8-0.3-0.8-0.9C115.8,24,116.2,22.2,117.6,21.9z M117.9,27.2c0,0.1-0.2,0.2-0.3,0.1
			c-0.2,0-0.3-0.1-0.3-0.2c0-0.1,0.2-0.2,0.3-0.1C117.8,27,117.9,27.1,117.9,27.2z M115.9,27.6c0.5,0.3,1.3,0.8,1.4,0.4c0,0,0,0,0,0
			c0-0.2-0.7-0.1-0.8-0.5c0.3-0.2,0.8,0.1,1.5-0.2c1.3,1.6-0.5,1.8-0.3,2.2c0.1,0.4,0.1,0.5-0.3,0.8c-0.3,0.3-0.6,0.6-1.4-0.2
			C115.1,29.3,115,27.2,115.9,27.6z M114.1,34.5c0-0.2,0.1-0.3,0.3-0.4c0.1-0.1,0.3-0.1,0.5-0.1c0.1,0,0.1,0.1,0.1,0.2
			c0.2,0.5,0.1,1.1,1.1,1.7c1,0.6,3.6,0.6,3.3,1.3c-0.4,1.1,0.1,0.7,0,1.7c-0.2,0.6-4.2-0.3-5-1c-0.2-0.1-0.4-0.3-0.5-0.5
			c-0.1-0.1-0.1-0.3-0.2-0.5C113.9,35.9,114,35,114.1,34.5z M115.5,56.1C115.4,56.1,115.4,56.1,115.5,56.1c-0.1,0-0.1,0-0.1,0
			c-2.6,0.1-3,3.1-3.1,5.3c0,0.2,0,0.5,0,0.7c0,0.7-0.3,1.4-2.3,0.2c-2.1-1.2-4.3-4.1-5.2-6.8c-1.2-3.8-0.5-12.2,0.6-13.5
			c0-0.1,0.1-0.1,0.1-0.1c0,0,0,0,0,0c0.8-0.4,1.7-1.1,2-1.2c1.1-0.4,4.1-1.5,4.6-1.6c0.5-0.2,1.8-0.8,2.9-0.3c0,0,0,0,0,0
			c1.3,0.5,3.3,0.9,4.8,1.2c0.5,0.3,0.7,2.2,0.8,2.2c0-1.1-0.1-2.2-0.1-2.2s-0.1-1.3-0.2-1.6c-0.1-0.3,0-0.7-0.1-1.2
			c-0.1-0.4,0.2-0.3,0.9-0.8c0.7-0.4,1.3-1.5,1.6-1.3c0.1,0.1,0.3,0.2,0.4,0.5c0.1,0.1,0.1,0.3,0.2,0.5c0,0.1,0.1,0.2,0.1,0.3
			c0,0,0,0,0,0c0.1,0.3,0.3,0.5,0.5,0.7c0,0,0,0,0,0c0,0,0,0,0,0c0.2-0.1,0.9-0.3,3.2,0c2.7,0.3,4.4,1.2,4.4,1.2s1.4,2.2,2.4,3.5
			l0,0.1c-0.3,0-0.7,0.1-0.9,0.3c-1.5,0.1-3,0.7-3.1,1.1c0,0,0,0.1-0.1,0.2c-0.1,0.3-0.3,0.8-0.4,1.5c-1-0.1-1.6,0.4-1.7,0.4
			c0,0,0,0,0,0c1-0.4,1.9-0.1,2.2,0.2v0h0c0,0,0,0,0,0c0.2,0.4-0.8,0.5-1.1,0.6c-0.3,0.1-0.2,0.4,0.1,0.4c0.2,0,0.4-0.1,0.7-0.1
			c1.5-0.3,1.7-0.6,1.8-0.6c0.1,0,0.4-0.2,0.9,1.6c0,0,0,0,0,0c0,0.1,0.1,0.2,0.1,0.3c0,0,0,0,0,0c0,0.1,0.1,0.3,0.1,0.4
			c0,0,0,0.1,0,0.1c0,0.2,0.1,0.3,0.1,0.5c0,0.3,0.1,0.9,0.1,1.5c0.1,1-0.3,2.5-0.8,3c-0.4,0.4-1.1,0.8-1.9,0.4c0,0,0,0,0,0
			c0,0,0,0,0,0c0,0-0.1,0-0.1-0.1c0,0,0,0-0.1,0c0,0-0.1-0.1-0.1-0.1c0,0-0.1,0-0.1-0.1c0,0-0.1-0.1-0.1-0.1
			c-0.1-0.1-0.1-0.1-0.2-0.2c-0.1-0.1-0.2-0.3-0.3-0.4c0,0-0.1-0.1-0.1-0.1c-0.1-0.1-0.1-0.2-0.2-0.3c0-0.1-0.1-0.1-0.1-0.2
			c-0.1-0.1-0.1-0.2-0.2-0.4c0-0.1-0.1-0.1-0.1-0.2c-0.1-0.2-0.1-0.3-0.2-0.5c0,0,0,0,0,0c-0.1-0.2-0.1-0.3-0.2-0.5
			c0-0.1,0-0.1-0.1-0.2c0-0.1-0.1-0.2-0.1-0.3c0,0,0,0,0,0c0.2,0,0.4,0,0.6,0c0,0,0.1,0,0.1,0c0.3-0.1,0.5-0.4,0.7-0.6
			c0-0.1,0.1-0.1,0.1-0.2c0-0.1,0.1-0.2,0.1-0.3v0c0-0.1,0-0.1,0-0.2c0,0,0-0.1,0-0.1c0,0,0-0.1,0-0.1c0-0.1,0-0.1,0-0.1
			c0,0,0,0.1,0,0.1c0,0.2-0.1,0.4-0.1,0.5v0c-0.1,0.2-0.1,0.3-0.2,0.4c0,0.1-0.1,0.1-0.1,0.1c-0.1,0.1-0.3,0.1-0.4,0.1
			c-0.1,0-0.2,0-0.3,0c-0.1,0-0.2,0-0.3-0.1c0,0,0,0,0,0c0,0-0.1,0-0.1,0c0,0,0,0,0,0c0,0,0,0-0.1,0c0,0-0.1,0-0.1-0.1
			c-0.6-0.4-0.9-1.4-0.7-2.5l-0.2,0v0c-0.3,0-0.7,0-1.1,0.1c-0.1,0-0.5,0.1-0.5,0.1c0,0-0.1,0-0.1,0c-0.2,0-0.4,0-0.6,0
			c-0.5,0-1.1,0.1-1.7,0.5c0,0,1.4-0.6,3.5,0.4c0,0-0.1-0.3-0.4-0.5c0.3,0,0.5,0,0.7,0c-0.1,0.3-0.1,0.7,0,1.2
			c-0.2,0.1-0.4,0.1-0.6,0.2c-0.1,0-0.2,0.1-0.3,0.1c0,0,0,0,0,0c-0.4,0.1-0.9,0.2-1.5,0.2c0,0,0,0,0,0c-0.3,0-0.3,0.3,0,0.4
			c0.4,0,0.9,0,1.5-0.1c0.4-0.1,0.8-0.2,1.1-0.2c0,0.1,0,0.1,0.1,0.2c0.1,0.2,0.2,0.4,0.4,0.5c0,0.3,0.1,0.5,0.2,0.7
			c0.1,0.4,0.3,0.8,0.4,1.2c-0.3,0.2-0.7,0.3-1.2,0.5c0.6,0,1.2,0.1,1.4,0.7c0.2,0.7,0.7,3.8,0.7,3.8l-2.7,0.5l0,0l-1.4-0.8
			l-0.9-3.1c-0.3-0.7-0.1-1.1,0.1-1.1c-0.8-0.2-0.8-0.6-0.9-0.8c0-0.1-0.1-0.2-0.1-0.3l0,0h0c0,0-0.9-0.4-1.2-1.6c0,0,0,0.2,0.1,0.5
			c0.1,0.3,0.3,0.8,0.6,1.2l0.3,0.9l0.3,0.4l0.7,2.2c-0.5,0.1-1,0.2-1.3,0.2c-0.9,0-1.6-3.6-1.6-3.6l0.5,4c0,0.3-1,0.6-2,0.9
			c-0.8,0.2-1.8-0.6-2.3-1.2c-0.6-0.6-1.5-1-3.1-1c-1.3,0-1.7,0.4-1.5,0.7c0.1,0.2,0.4,0.1,0.5,0.1c1.7-0.3,2.2,0,2.7,0.4
			C116.1,55.5,116.1,56.1,115.5,56.1z M137.3,58.9c-1.6,1-3.9,2-6.7,2.7c-2.6,0.6-5.1,1-7.3,1c-0.6,0-1.2,0-1.7-0.1h-0.1
			c0,0-0.1,0-0.1,0c-0.7-0.1-1.4-0.2-1.9-0.3c-0.8-0.2-1.4-0.4-1.9-0.6c-0.7-0.3-1.1-0.7-1.2-1.2c-0.4-1.6,2.7-3.8,7.4-5.3l0.3,0.8
			c-1.1,0.3-2.1,0.7-2.9,1.1c-0.8,0.4-1.4,0.7-1.9,1.1c-0.4,0.4-0.7,0.7-0.7,1.2c0,0,0,0.1,0,0.1c0,0.1,0.1,0.2,0.3,0.2c0,0,0,0,0,0
			c0.1,0,0.2-0.2,0.2-0.3c0,0,0,0,0,0c0-0.1,0.1-0.4,0.5-0.7l1.7-1c0.8-0.4,1.7-0.7,2.8-1.1l0.1,0.5l1.7,1l2.8-0.5l0.8-1.5l-0.2-1.8
			c0.3,0.3,0.5,0.5,0.6,0.5c0.1,0.1,0.2,0.1,0.1,0.3c-0.2,0.8,0.5,1.4,0.6,1.5c0.1,0.1,0.1,0.3,0,0.3c-0.6,0.2-1.7,1.1-1.4,2
			c0.3,0.9,2,1.1,3.1,0.8c1.7-0.6,1.9-1.3,1.6-1.9c0.1,0.4-0.2,0.9-0.8,1.2c-0.7,0.3-1.6,0.7-2.5,0.3c-0.7-0.3-0.2-1.2,0-1.3
			c0.2-0.2,0.3-0.3,0.6-0.2c0.6,0.2,0.6-0.4,0.4-0.3c-0.6,0.1-0.5-0.3-0.4-0.5c0.1-0.2,0.2-0.4-0.1-0.6c-0.3-0.3-0.4-0.6-0.3-0.9
			c0.2-0.3,0.4-0.4,0.7-0.2c0.3,0.1,0.5,0.4,0.2,1c-0.2,0.4-0.1,0.5,0.2,0.6c0.1,0,0.3,0.2,0.2,0.3c-0.1,0.2,0.2,0.2,0.3,0
			c0,0,0.1-0.1,0.4-0.1c0.2,0,0.7,0.1,1,0.3c-0.2-0.2-0.5-0.4-0.6-0.5c-0.4-0.1-1-0.2-1.2-0.4c-0.1-0.1,0.1-0.2,0.2-0.4
			c0.5,0.2,1.2,0.3,1.9,0.3c0.1,0,0.1,0,0.2,0c0.9-0.1,2.7-0.6,2.6-1.8c0-0.3-0.1-0.5-0.3-0.7c0.2,0,0.5,0.1,0.7,0.1
			c1.4,0.4,2.3,0.9,2.5,1.6c0.1,0.2,0.1,0.4,0.1,0.5C139.8,56.8,138.9,57.9,137.3,58.9z"/>
		<path class="st6" d="M121.1,28c0.3,0.1-0.1-0.3,0.2-0.3c0,0,0,0,0,0c0.3,0.1,0.7,0.1,1.1,0.1l0,0c0.1,0,0.2,0,0.2,0
			c0.3,0,0.7,0.1,0.9,0.2c0.3,0.2,0.2-0.2,0-0.2c-0.2,0-0.3,0.1-0.5-0.2c0,0,0,0,0,0c0,0,0-0.1-0.1-0.1v0c-0.3-0.3-0.7-0.3-1.3-0.4
			c-0.4,0-0.2-0.5,0.6-0.4c0.3,0.1,0.5,0.1,1,0.3c0.2,0.1,0.5,0.4,0.5,0.1c-0.2-1-3.6-1.5-3.3,0.3C120.6,27.8,120.8,27.9,121.1,28z"
			/>
		<g>
			<path class="st7" d="M34.8,39.8h-3.5l-0.5,2.8h-6.2l4.8-20.3h7.7l4.8,20.3h-6.5L34.8,39.8z M32,35h2.1l-0.9-6.6H33L32,35z"/>
			<path class="st7" d="M50,43.2c-1.3,0-2.5-0.2-3.4-0.6c-0.9-0.4-1.7-1-2.3-1.8c-0.6-0.8-1-1.7-1.3-2.7c-0.3-1-0.4-2.2-0.4-3.4
				V22.3h6.3v11.8c0,1,0.1,1.7,0.2,2.2c0.2,0.5,0.5,0.8,1,0.8c0.5,0,0.9-0.3,1.1-0.8c0.2-0.5,0.3-1.2,0.3-2.2V22.3h6.2v12.4
				c0,1.2-0.1,2.3-0.4,3.4c-0.3,1-0.8,1.9-1.4,2.7c-0.6,0.8-1.4,1.4-2.4,1.8C52.4,43,51.3,43.2,50,43.2z"/>
			<path class="st7" d="M60.1,42.6V22.3h6.5c1.7,0,3.1,0.3,4.2,0.8c1.2,0.5,2.1,1.2,2.8,2.1c0.7,0.9,1.2,2,1.6,3.2
				c0.3,1.3,0.5,2.6,0.5,4.1c0,1.5-0.2,2.8-0.5,4.1c-0.3,1.2-0.8,2.3-1.6,3.2c-0.7,0.9-1.7,1.6-2.8,2.1c-1.2,0.5-2.6,0.8-4.2,0.8
				H60.1z M69.5,32.5c0-1.5-0.2-2.7-0.7-3.5c-0.5-0.8-1.1-1.2-2-1.2h-0.4v9.4h0.4c0.8,0,1.5-0.4,2-1.2C69.3,35.1,69.5,34,69.5,32.5z
				"/>
			<path class="st7" d="M78,22.3h6.3v20.3H78V22.3z"/>
			<path class="st7" d="M95.5,42.6h-6.1v-15h-3.6v-5.3h13.3v5.3h-3.6V42.6z"/>
			<path class="st8" d="M32.3,52.5h4.4v5.3h-4.4V65h-6.2V44.7h11v5.6h-4.8V52.5z"/>
			<path class="st8" d="M38.4,54.8c0-1.6,0.2-3.1,0.6-4.4c0.4-1.3,1-2.4,1.7-3.4c0.7-0.9,1.6-1.6,2.7-2.1c1.1-0.5,2.2-0.7,3.5-0.7
				c1.3,0,2.5,0.2,3.5,0.7c1.1,0.5,1.9,1.2,2.7,2.1c0.7,0.9,1.3,2.1,1.7,3.4c0.4,1.3,0.6,2.8,0.6,4.4c0,1.6-0.2,3.1-0.6,4.4
				c-0.4,1.3-1,2.5-1.7,3.4c-0.7,0.9-1.6,1.7-2.7,2.2c-1.1,0.5-2.2,0.8-3.5,0.8c-1.3,0-2.5-0.3-3.5-0.8c-1.1-0.5-1.9-1.2-2.7-2.2
				c-0.7-0.9-1.3-2.1-1.7-3.4C38.6,57.9,38.4,56.4,38.4,54.8z M44.7,54.8c0,1.3,0.2,2.4,0.5,3.3c0.4,0.9,0.9,1.3,1.6,1.3
				c0.7,0,1.3-0.4,1.6-1.3c0.4-0.9,0.5-2,0.5-3.3s-0.2-2.4-0.5-3.3c-0.4-0.9-0.9-1.3-1.6-1.3c-0.7,0-1.3,0.4-1.6,1.3
				C44.9,52.4,44.7,53.5,44.7,54.8z"/>
			<path class="st8" d="M64,57.7h-0.5V65h-6V44.7h7.6c1.2,0,2.2,0.2,3.1,0.5c0.9,0.3,1.6,0.7,2.1,1.3c0.6,0.6,1,1.3,1.3,2.1
				c0.3,0.8,0.4,1.7,0.4,2.7c0,0.7-0.1,1.3-0.2,1.9c-0.2,0.6-0.3,1-0.6,1.5s-0.5,0.8-0.8,1.1c-0.3,0.3-0.6,0.5-0.9,0.6l3.3,8.7h-6.6
				L64,57.7z M63.5,49.9v3.6H64c0.2,0,0.4,0,0.6-0.1c0.2,0,0.4-0.1,0.6-0.3c0.2-0.1,0.3-0.3,0.4-0.5s0.2-0.5,0.2-0.9
				c0-0.4-0.1-0.7-0.2-0.9c-0.1-0.2-0.2-0.4-0.4-0.5S64.9,50,64.7,50c-0.2,0-0.3-0.1-0.5-0.1H63.5z"/>
			<path class="st8" d="M88.6,53.4h-0.1L86,65h-4l-2.3-11.6h-0.1L79.8,65h-5.6V44.7h7.4l2.4,10.6h0.1l2.4-10.6h7.9V65h-6.1
				L88.6,53.4z"/>
			<path class="st8" d="M102.1,65.5c-0.7,0-1.3-0.1-2-0.2c-0.6-0.1-1.2-0.3-1.7-0.5c-0.5-0.2-1-0.4-1.4-0.7
				c-0.4-0.3-0.8-0.5-1.1-0.8l3-4.7c0.4,0.4,0.9,0.7,1.4,0.9c0.5,0.2,1,0.3,1.6,0.3c0.3,0,0.6-0.1,0.8-0.2c0.2-0.2,0.3-0.4,0.3-0.7
				c0-0.4-0.2-0.7-0.5-0.9c-0.3-0.2-0.8-0.5-1.5-0.9c-0.6-0.3-1.1-0.6-1.6-0.9c-0.5-0.3-1-0.7-1.4-1.2c-0.4-0.5-0.7-1-1-1.7
				c-0.2-0.6-0.4-1.4-0.4-2.3c0-1.2,0.2-2.3,0.7-3.2c0.4-0.9,1-1.6,1.7-2.1c0.7-0.5,1.4-0.9,2.3-1.2c0.8-0.2,1.6-0.4,2.5-0.4
				c1.2,0,2.3,0.2,3.3,0.6c1,0.4,1.8,0.9,2.4,1.5l-3.1,4.7c-0.3-0.3-0.7-0.6-1.1-0.8c-0.4-0.2-0.9-0.3-1.3-0.3
				c-0.3,0-0.6,0.1-0.8,0.2c-0.2,0.2-0.4,0.4-0.4,0.8c0,0.3,0.1,0.6,0.4,0.7c0.3,0.2,0.8,0.5,1.5,0.8c0.4,0.2,0.9,0.5,1.4,0.8
				c0.5,0.3,1,0.7,1.5,1.2s0.8,1.1,1.2,1.8c0.3,0.7,0.5,1.5,0.5,2.4c0,1.2-0.2,2.3-0.6,3.2c-0.4,0.9-0.9,1.6-1.6,2.2
				c-0.7,0.6-1.4,1-2.3,1.2C103.8,65.4,103,65.5,102.1,65.5z"/>
		</g>
	</g>
	<rect x="24.7" y="73.8" class="st9" width="86.3" height="18.4"/>
	<rect x="143.9" y="73.8" class="st9" width="90.5" height="18.4"/>
	<rect x="234.4" y="73.8" class="st9" width="60.9" height="18.4"/>
	<rect x="110.9" y="73.8" class="st9" width="32.9" height="18.4"/>
	<rect x="24.7" y="92.3" class="st9" width="86.3" height="18.4"/>
	<rect x="143.9" y="92.3" class="st9" width="90.5" height="18.4"/>
	<rect x="234.4" y="92.3" class="st9" width="60.9" height="18.4"/>
	<rect x="110.9" y="92.3" class="st9" width="32.9" height="18.4"/>
	<rect x="115.3" y="96.5" class="st9" width="24.2" height="9.9"/>
	<rect x="24.7" y="110.7" class="st9" width="86.3" height="18.4"/>
	<rect x="143.9" y="110.7" class="st9" width="90.5" height="18.4"/>
	<rect x="234.4" y="110.7" class="st9" width="60.9" height="18.4"/>
	<rect x="110.9" y="110.7" class="st9" width="32.9" height="18.4"/>
	<rect x="115.3" y="115" class="st9" width="24.2" height="9.9"/>
	<rect x="24.7" y="129.1" class="st9" width="86.3" height="18.4"/>
	<rect x="143.9" y="129.1" class="st9" width="90.5" height="18.4"/>
	<rect x="234.4" y="129.1" class="st9" width="60.9" height="18.4"/>
	<rect x="110.9" y="129.1" class="st9" width="32.9" height="18.4"/>
	<rect x="115.3" y="133.4" class="st9" width="24.2" height="9.9"/>
	<rect x="24.7" y="147.6" class="st9" width="86.3" height="18.4"/>
	<rect x="143.9" y="147.6" class="st9" width="90.5" height="18.4"/>
	<rect x="234.4" y="147.6" class="st9" width="60.9" height="18.4"/>
	<rect x="110.9" y="147.6" class="st9" width="32.9" height="18.4"/>
	<rect x="115.3" y="151.8" class="st9" width="24.2" height="9.9"/>
	<rect x="24.7" y="166" class="st9" width="86.3" height="18.4"/>
	<rect x="143.9" y="166" class="st9" width="90.5" height="18.4"/>
	<rect x="234.4" y="166" class="st9" width="60.9" height="18.4"/>
	<rect x="110.9" y="166" class="st9" width="32.9" height="18.4"/>
	<rect x="115.3" y="170.2" class="st9" width="24.2" height="9.9"/>
	<rect x="24.7" y="184.4" class="st9" width="86.3" height="18.4"/>
	<rect x="143.9" y="184.4" class="st9" width="90.5" height="18.4"/>
	<rect x="234.4" y="184.4" class="st9" width="60.9" height="18.4"/>
	<rect x="110.9" y="184.4" class="st9" width="32.9" height="18.4"/>
	<rect x="115.3" y="188.7" class="st9" width="24.2" height="9.9"/>
	<rect x="24.7" y="202.8" class="st9" width="86.3" height="18.4"/>
	<rect x="143.9" y="202.8" class="st9" width="90.5" height="18.4"/>
	<rect x="234.4" y="202.8" class="st9" width="60.9" height="18.4"/>
	<rect x="110.9" y="202.8" class="st9" width="32.9" height="18.4"/>
	<rect x="115.3" y="207.1" class="st9" width="24.2" height="9.9"/>
	<rect x="24.7" y="221.3" class="st9" width="86.3" height="18.4"/>
	<rect x="143.9" y="221.3" class="st9" width="90.5" height="18.4"/>
	<rect x="234.4" y="221.3" class="st9" width="60.9" height="18.4"/>
	<rect x="110.9" y="221.3" class="st9" width="32.9" height="18.4"/>
	<rect x="115.3" y="225.5" class="st9" width="24.2" height="9.9"/>
	<rect x="24.7" y="239.7" class="st9" width="86.3" height="18.4"/>
	<rect x="143.9" y="239.7" class="st9" width="90.5" height="18.4"/>
	<rect x="234.4" y="239.7" class="st9" width="60.9" height="18.4"/>
	<rect x="110.9" y="239.7" class="st9" width="32.9" height="18.4"/>
	<rect x="115.3" y="244" class="st9" width="24.2" height="9.9"/>
	<rect x="24.7" y="258.1" class="st9" width="86.3" height="18.4"/>
	<rect x="143.9" y="258.1" class="st9" width="90.5" height="18.4"/>
	<rect x="234.4" y="258.1" class="st9" width="60.9" height="18.4"/>
	<rect x="110.9" y="258.1" class="st9" width="32.9" height="18.4"/>
	<rect x="115.3" y="262.4" class="st9" width="24.2" height="9.9"/>
	<rect x="24.7" y="276.6" class="st9" width="86.3" height="18.4"/>
	<rect x="143.9" y="276.6" class="st9" width="90.5" height="18.4"/>
	<rect x="234.4" y="276.6" class="st9" width="60.9" height="18.4"/>
	<rect x="110.9" y="276.6" class="st9" width="32.9" height="18.4"/>
	<rect x="115.3" y="280.8" class="st9" width="24.2" height="9.9"/>
	<rect class="st9" width="320" height="320"/>
</g>
<g id="Layer_2">
</g>
</svg>
