<?xml version="1.0" encoding="utf-8"?>
<!-- Generator: Adobe Illustrator 19.1.0, SVG Export Plug-In . SVG Version: 6.00 Build 0)  -->
<!DOCTYPE svg PUBLIC "-//W3C//DTD SVG 1.1//EN" "http://www.w3.org/Graphics/SVG/1.1/DTD/svg11.dtd">
<svg version="1.1" xmlns="http://www.w3.org/2000/svg" xmlns:xlink="http://www.w3.org/1999/xlink" x="0px" y="0px"
	 viewBox="0 0 320 320" style="enable-background:new 0 0 320 320;" xml:space="preserve">
<style type="text/css">
	.st0{fill:none;stroke:#B3B2B2;stroke-miterlimit:10;}
	.st1{fill:#B3B2B2;}
	.st2{fill:#9D9D9C;}
	.st3{fill:#C6C6C6;}
	.st4{fill:#EDEDED;}
	.st5{display:none;}
</style>
<g id="content">
	<rect class="st0" width="320" height="320"/>
	<g>
		<path class="st1" d="M223.3,219.5c0,6-4.4,10.9-9.7,10.9H104.5c-5.4,0-9.7-4.9-9.7-10.9l0,0c0-6,4.3-10.9,9.7-10.9h109.1
			C219,208.6,223.3,213.5,223.3,219.5L223.3,219.5z"/>
		<g>
			<line class="st1" x1="97.3" y1="241.5" x2="222.4" y2="241.5"/>
			<path class="st1" d="M222.4,244.8H97.3c-1.8,0-3.2-1.5-3.2-3.3c0-1.8,1.5-3.2,3.2-3.2h125.1c1.8,0,3.2,1.5,3.2,3.2
				C225.7,243.3,224.2,244.8,222.4,244.8z"/>
		</g>
		<path class="st1" d="M218.1,255.5c-1.6-0.9-3.5-0.3-4.4,1.2c-2.3,4-8.6,4-10.8,0c-2.3-4-6.5-6.5-11.1-6.5c-4.6,0-8.8,2.5-11.1,6.5
			c0,0,0,0,0,0c-2.3,4-8.6,4-10.8,0c0,0,0-0.1-0.1-0.1c-2.3-4-6.5-6.4-11-6.4c-4.5,0-8.7,2.5-11,6.4c0,0,0,0.1-0.1,0.1
			c-2.3,4-8.5,4-10.8,0c0,0,0-0.1-0.1-0.1c-2.3-4-6.5-6.4-11-6.4c-4.5,0-8.8,2.5-11,6.5c0,0,0,0,0,0.1c-2.3,4-8.6,4-10.8,0
			c-0.9-1.6-2.9-2.1-4.4-1.2c-1.6,0.9-2.1,2.9-1.2,4.4c2.3,4,6.5,6.5,11.1,6.5c4.6,0,8.8-2.5,11.1-6.5c0,0,0,0,0,0
			c2.3-4,8.5-4,10.8,0c0,0,0,0,0,0c2.3,4,6.5,6.5,11.1,6.5c4.6,0,8.8-2.5,11.1-6.5c0,0,0,0,0,0c2.3-4,8.5-4,10.8,0c0,0,0,0,0,0
			c2.3,4,6.5,6.5,11.1,6.5c4.5,0,8.7-2.5,11-6.4c0,0,0-0.1,0.1-0.1c2.3-4,8.6-4,10.8,0c2.3,4,6.5,6.5,11.1,6.5
			c4.6,0,8.8-2.5,11.1-6.5C220.2,258.4,219.6,256.4,218.1,255.5z"/>
		<g>
			<path class="st1" d="M97,273.5c4.4,11.7,25.5,20.6,50.9,20.6h23.5c25.4,0,46.5-8.9,50.9-20.6H97z"/>
		</g>
		<g>
			<path class="st1" d="M173,173.7c0.3,0.6,0.2,1.3-0.3,1.8l-4.1,4.1c-0.3,0.3-0.7,0.5-1.1,0.5s-0.8-0.2-1.2-0.5
				c-0.6-0.6-0.6-1.7,0-2.3l3.6-3.6h-6.9c0.3,0.6,0.2,1.3-0.3,1.8l-4.1,4.1c-0.3,0.3-0.7,0.5-1.1,0.5s-0.8-0.2-1.2-0.5
				c-0.6-0.6-0.6-1.7,0-2.3l3.6-3.6h-7.6c0.3,0.6,0.2,1.3-0.3,1.8l-4.1,4.1c-0.3,0.3-0.7,0.5-1.1,0.5c-0.4,0-0.8-0.2-1.2-0.5
				c-0.6-0.6-0.6-1.7,0-2.3l3.6-3.6h-1.3c-25.4,0-46.5,12.6-50.9,29.2h125.3C218,186.6,197.7,174.2,173,173.7z M141.6,184.7
				l-4.1,4.1c-0.3,0.3-0.7,0.5-1.2,0.5c-0.4,0-0.8-0.2-1.1-0.5c-0.6-0.6-0.6-1.7,0-2.3l4.1-4.1c0.6-0.6,1.7-0.6,2.3,0
				C142.3,183,142.3,184,141.6,184.7z M151.7,184.7l-4.1,4.1c-0.3,0.3-0.7,0.5-1.2,0.5c-0.4,0-0.8-0.2-1.1-0.5
				c-0.6-0.6-0.6-1.7,0-2.3l4.1-4.1c0.6-0.6,1.7-0.6,2.3,0C152.3,183,152.3,184,151.7,184.7z M163.2,184.7l-4.1,4.1
				c-0.3,0.3-0.7,0.5-1.2,0.5c-0.4,0-0.8-0.2-1.1-0.5c-0.6-0.6-0.6-1.7,0-2.3l4.1-4.1c0.6-0.6,1.7-0.6,2.3,0
				C163.8,183,163.8,184,163.2,184.7z M174.6,184.7l-4.1,4.1c-0.3,0.3-0.7,0.5-1.1,0.5c-0.4,0-0.8-0.2-1.2-0.5
				c-0.6-0.6-0.6-1.7,0-2.3l4.1-4.1c0.6-0.6,1.7-0.6,2.3,0C175.2,183,175.2,184,174.6,184.7z"/>
		</g>
	</g>
	<g>
		<path class="st2" d="M70,44.4c1.7,0.5,3.2,1.6,4.5,3.3c1.3,1.6,1.9,3.8,1.9,6.5c0,2.4-0.4,4.4-1.2,6c-0.8,1.6-1.8,2.9-3.1,3.9
			c-1.3,1-2.8,1.7-4.4,2.1c-1.7,0.4-3.4,0.6-5.1,0.6H46V23.4h15.1c1.4,0,3,0.1,4.6,0.4c1.6,0.3,3.1,0.8,4.5,1.6s2.5,2,3.4,3.5
			c0.9,1.5,1.3,3.5,1.3,6c0,2.3-0.5,4.3-1.4,5.8c-0.9,1.5-2.1,2.7-3.7,3.5L70,44.4z M58.3,34.4v5.7h2.2c0.9,0,1.5-0.2,2.1-0.7
			c0.5-0.5,0.8-1.2,0.8-2.3c0-0.9-0.3-1.6-0.8-2c-0.5-0.4-1.2-0.7-2-0.7H58.3z M58.3,49.5v6.2h2.3c0.9,0,1.7-0.3,2.3-0.8
			c0.6-0.5,0.9-1.3,0.9-2.2c0-1.1-0.3-1.9-1-2.4s-1.4-0.8-2.2-0.8H58.3z"/>
		<path class="st2" d="M96.6,68.1c-2.9,0-5.3-0.5-7.3-1.4c-2-0.9-3.7-2.2-4.9-3.8c-1.3-1.6-2.2-3.6-2.8-5.8
			c-0.6-2.2-0.9-4.6-0.9-7.2V23.4h13.4v25.3c0,2.1,0.2,3.7,0.5,4.8c0.3,1.1,1.1,1.6,2.2,1.6c1.1,0,1.9-0.5,2.3-1.6
			c0.4-1.1,0.6-2.7,0.6-4.8V23.4h13.3v26.5c0,2.6-0.3,5-1,7.2c-0.6,2.2-1.6,4.1-2.9,5.8c-1.3,1.6-3,2.9-5.1,3.8
			C101.9,67.6,99.5,68.1,96.6,68.1z"/>
		<path class="st2" d="M132.3,51.3h-1.1v15.6h-12.8V23.4h16.2c2.5,0,4.7,0.3,6.5,1c1.9,0.7,3.4,1.6,4.6,2.8c1.2,1.2,2.1,2.7,2.7,4.4
			c0.6,1.7,0.9,3.7,0.9,5.9c0,1.5-0.2,2.8-0.5,4c-0.3,1.2-0.7,2.2-1.2,3.2c-0.5,0.9-1,1.7-1.7,2.3c-0.6,0.6-1.2,1.1-1.8,1.4l7,18.5
			h-14.1L132.3,51.3z M131.2,34.5v7.6h1.1c0.4,0,0.8-0.1,1.2-0.2c0.5-0.1,0.9-0.3,1.2-0.6c0.4-0.3,0.7-0.7,0.9-1.2
			c0.2-0.5,0.4-1.1,0.4-1.9c0-0.8-0.1-1.5-0.3-2c-0.2-0.5-0.5-0.9-0.9-1.2c-0.3-0.3-0.7-0.5-1.1-0.6c-0.4-0.1-0.7-0.1-1.1-0.1H131.2
			z"/>
		<path class="st2" d="M171,67.9c-2.9,0-5.5-0.6-7.8-1.7c-2.3-1.1-4.3-2.7-5.9-4.7c-1.6-2-2.8-4.4-3.7-7.2c-0.9-2.8-1.3-5.9-1.3-9.3
			c0-3.5,0.4-6.6,1.3-9.4c0.9-2.8,2.1-5.2,3.7-7.2c1.6-2,3.5-3.5,5.7-4.6c2.2-1.1,4.6-1.6,7.2-1.6c1.7,0,3.3,0.2,4.7,0.5
			c1.4,0.3,2.6,0.7,3.7,1.2c1.1,0.5,2.1,1.1,2.9,1.7c0.8,0.6,1.5,1.3,2.1,1.9l-6.9,10c-0.6-0.7-1.3-1.3-2.1-1.7
			c-0.8-0.4-1.8-0.6-3.1-0.6c-1.1,0-2,0.3-2.8,0.8c-0.8,0.6-1.4,1.3-2,2.2c-0.5,0.9-0.9,2-1.2,3.2c-0.2,1.2-0.4,2.5-0.4,3.8
			c0,1.3,0.1,2.5,0.3,3.7s0.5,2.3,1,3.3c0.4,1,1,1.7,1.8,2.3c0.7,0.6,1.6,0.9,2.7,0.9c0.7,0,1.4-0.1,1.9-0.4v-3.7h-3.8V39.6h15v24.8
			c-1.5,1.1-3.3,1.9-5.5,2.5C176.4,67.6,173.9,67.9,171,67.9z"/>
		<path class="st2" d="M189.5,23.4h23.2v11.7h-10.5v4.4h9.5v10.9h-9.5v4.5h11.3v12h-24V23.4z"/>
		<path class="st2" d="M232,51.3h-1.1v15.6h-12.8V23.4h16.2c2.5,0,4.7,0.3,6.5,1c1.9,0.7,3.4,1.6,4.6,2.8c1.2,1.2,2.1,2.7,2.7,4.4
			c0.6,1.7,0.9,3.7,0.9,5.9c0,1.5-0.2,2.8-0.5,4c-0.3,1.2-0.7,2.2-1.2,3.2c-0.5,0.9-1,1.7-1.7,2.3c-0.6,0.6-1.2,1.1-1.8,1.4l7,18.5
			h-14.1L232,51.3z M230.9,34.5v7.6h1.1c0.4,0,0.8-0.1,1.2-0.2c0.5-0.1,0.9-0.3,1.2-0.6c0.4-0.3,0.7-0.7,0.9-1.2
			c0.2-0.5,0.4-1.1,0.4-1.9c0-0.8-0.1-1.5-0.3-2c-0.2-0.5-0.5-0.9-0.9-1.2c-0.3-0.3-0.7-0.5-1.1-0.6c-0.4-0.1-0.7-0.1-1.1-0.1H230.9
			z"/>
	</g>
	<g>
		<path class="st3" d="M59.1,92.5h9.4v11.4h-9.4v15.4H45.9V75.9h23.5v12H59.1V92.5z"/>
		<path class="st3" d="M73.8,75.9h23.2v11.7H86.5v4.4H96v10.9h-9.5v4.5h11.3v12h-24V75.9z"/>
		<path class="st3" d="M112.4,120.4c-1.5,0-2.9-0.1-4.2-0.4c-1.3-0.3-2.6-0.6-3.7-1.1c-1.1-0.4-2.2-1-3.1-1.5
			c-0.9-0.6-1.7-1.1-2.4-1.7l6.4-10.1c0.9,0.8,2,1.4,3.1,1.9c1.1,0.5,2.2,0.7,3.3,0.7c0.7,0,1.3-0.2,1.7-0.5
			c0.5-0.3,0.7-0.8,0.7-1.5c0-0.8-0.3-1.4-1-2c-0.7-0.5-1.7-1.1-3.2-1.8c-1.2-0.6-2.4-1.2-3.5-1.9c-1.1-0.7-2.1-1.6-2.9-2.6
			c-0.9-1-1.5-2.2-2.1-3.6c-0.5-1.4-0.8-3-0.8-4.8c0-2.7,0.5-4.9,1.4-6.8c0.9-1.9,2.1-3.4,3.6-4.5c1.5-1.2,3.1-2,4.8-2.5
			c1.8-0.5,3.5-0.8,5.2-0.8c2.6,0,5,0.4,7,1.2c2.1,0.8,3.8,1.9,5.2,3.2l-6.6,10c-0.7-0.7-1.5-1.3-2.5-1.7c-0.9-0.5-1.8-0.7-2.7-0.7
			c-0.7,0-1.2,0.2-1.8,0.5c-0.5,0.3-0.8,0.9-0.8,1.7c0,0.7,0.3,1.2,0.8,1.6c0.6,0.4,1.6,1,3.2,1.8c0.9,0.5,1.9,1,3,1.7
			c1.1,0.7,2.1,1.5,3.1,2.6s1.8,2.3,2.5,3.8s1,3.2,1,5.2c0,2.6-0.4,4.9-1.3,6.7c-0.9,1.9-2,3.4-3.4,4.6c-1.4,1.2-3.1,2.1-4.9,2.6
			C116.1,120.1,114.3,120.4,112.4,120.4z"/>
		<path class="st3" d="M149,119.3h-13.1V87.2h-7.7V75.9h28.5v11.3H149V119.3z"/>
		<path class="st3" d="M159.8,75.9h13.5v43.4h-13.5V75.9z"/>
		<path class="st3" d="M186.5,119.3l-10.3-43.4h15.2l3.9,27.4h0.2l3.8-27.4h14.5l-10.6,43.4H186.5z"/>
		<path class="st3" d="M234.4,113.3H227l-1.2,6h-13.3l10.2-43.4h16.5l10.3,43.4h-13.9L234.4,113.3z M228.4,103h4.4l-2-14.1h-0.2
			L228.4,103z"/>
		<path class="st3" d="M252.5,75.9h13.4V107h11.2v12.3h-24.6V75.9z"/>
	</g>
	<g>
		<g>
			<path class="st4" d="M48.2,137h-2.1l1.5-6.9h1.8L48.2,137z M52.1,137H50l1.5-6.9h1.9L52.1,137z"/>
			<path class="st4" d="M70.6,150.3v-16.8h-0.1L66,150.3h-2.3l-4.5-16.8h-0.1v16.8h-2.4v-20.3h3.8l4.3,16.1H65l4.2-16.1h4v20.3H70.6
				z"/>
			<path class="st4" d="M86.4,150.3l-1.1-4.8h-5.9l-1.2,4.8h-2.6l5.1-20.3h3.4l5,20.3H86.4z M82.4,132.5h-0.1l-2.6,11.1h5.2
				L82.4,132.5z"/>
			<path class="st4" d="M103.8,140.2c0,3.3-0.7,5.8-2,7.5c-1.3,1.7-3.2,2.6-5.6,2.6h-4.6v-20.3h4.7c2.4,0,4.3,0.9,5.6,2.6
				C103.2,134.4,103.8,136.9,103.8,140.2z M101.2,140.2c0-1.3-0.1-2.5-0.4-3.5s-0.6-1.8-1.1-2.5c-0.4-0.6-1-1.1-1.6-1.5
				s-1.3-0.5-2-0.5h-2.1v15.7h2.1c0.7,0,1.4-0.2,2-0.5c0.6-0.3,1.1-0.8,1.6-1.5c0.4-0.6,0.8-1.5,1.1-2.4
				C101.1,142.7,101.2,141.5,101.2,140.2z"/>
			<path class="st4" d="M107.4,150.3v-20.3h2.6v20.3H107.4z"/>
			<path class="st4" d="M123.4,150.3l-6.5-15.7h-0.1v15.7h-2.4v-20.3h3.1l6.4,15.7h0.1v-15.7h2.4v20.3H123.4z"/>
			<path class="st4" d="M139.6,150.3l-1.1-4.8h-5.9l-1.2,4.8h-2.6l5.1-20.3h3.4l5,20.3H139.6z M135.7,132.5h-0.1l-2.6,11.1h5.2
				L135.7,132.5z"/>
			<path class="st4" d="M148.5,132.3v18.1h-2.6v-18.1H142v-2.2h10.3v2.2H148.5z"/>
			<path class="st4" d="M164.8,149.2c-0.8,1-2,1.6-3.6,1.6c-1.2,0-2.2-0.3-3-1c-0.8-0.6-1.3-1.5-1.6-2.6l2.3-0.9
				c0.1,0.6,0.4,1.1,0.8,1.5c0.4,0.4,0.9,0.7,1.5,0.7c0.9,0,1.5-0.4,1.8-1.1c0.3-0.7,0.5-1.7,0.5-2.9v-14.4h2.6v14.7
				C166,146.7,165.6,148.2,164.8,149.2z"/>
			<path class="st4" d="M181.7,146.3c-0.2,0.9-0.6,1.7-1,2.4c-0.5,0.7-1.1,1.2-1.9,1.6c-0.8,0.4-1.7,0.6-2.8,0.6s-2.1-0.2-2.8-0.6
				c-0.8-0.4-1.4-0.9-1.8-1.6c-0.5-0.7-0.8-1.5-1-2.4c-0.2-0.9-0.3-1.9-0.3-2.9v-13.3h2.6v13.1c0,0.7,0.1,1.4,0.2,2
				c0.1,0.6,0.3,1.2,0.5,1.7c0.3,0.5,0.6,0.9,1.1,1.2s1,0.4,1.7,0.4c0.7,0,1.2-0.1,1.7-0.4c0.4-0.3,0.8-0.7,1-1.2
				c0.3-0.5,0.4-1.1,0.5-1.7c0.1-0.6,0.2-1.3,0.2-2v-13.1h2.6v13.3C182,144.4,181.9,145.4,181.7,146.3z"/>
			<path class="st4" d="M200,150.3v-16.8H200l-4.5,16.8h-2.3l-4.5-16.8h-0.1v16.8h-2.4v-20.3h3.8l4.3,16.1h0.1l4.2-16.1h4v20.3H200z
				"/>
			<path class="st4" d="M207.1,150.3v-20.3h8.5v2.3h-6v6.4h5.6v2.1h-5.6v7.1h6.3v2.3H207.1z"/>
			<path class="st4" d="M219.2,150.3v-20.3h2.6v20.3H219.2z"/>
			<path class="st4" d="M234.6,150.3l-3.4-9h-2.3v9h-2.5v-20.3h5.3c0.7,0,1.5,0.1,2.1,0.3c0.7,0.2,1.2,0.5,1.7,1s0.9,1,1.2,1.7
				c0.3,0.7,0.4,1.6,0.4,2.5c0,0.8-0.1,1.5-0.3,2.1c-0.2,0.6-0.5,1.1-0.8,1.6s-0.7,0.8-1.1,1s-0.8,0.4-1.2,0.5l3.8,9.5H234.6z
				 M234.4,135.7c0-0.7-0.1-1.3-0.3-1.7c-0.2-0.4-0.4-0.8-0.7-1.1c-0.3-0.3-0.7-0.5-1.1-0.6s-0.8-0.2-1.2-0.2h-2.3v7.1h2.4
				c1,0,1.8-0.3,2.3-0.9C234.1,137.7,234.4,136.8,234.4,135.7z"/>
			<path class="st4" d="M249.2,150.3l-1.1-4.8h-5.9l-1.2,4.8h-2.6l5.1-20.3h3.4l5,20.3H249.2z M245.2,132.5h-0.1l-2.6,11.1h5.2
				L245.2,132.5z"/>
			<path class="st4" d="M264,150.3V141h-7.1v9.4h-2.6v-20.3h2.6v8.6h7.1v-8.6h2.6v20.3H264z"/>
			<path class="st4" d="M271.8,137h-1.9l1.3-6.9h2.1L271.8,137z M275.6,137h-1.9l1.3-6.9h2.1L275.6,137z"/>
		</g>
	</g>
</g>
<g id="guides" class="st5">
</g>
</svg>
