<?xml version="1.0" encoding="utf-8"?>
<!-- Generator: Adobe Illustrator 19.1.0, SVG Export Plug-In . SVG Version: 6.00 Build 0)  -->
<!DOCTYPE svg PUBLIC "-//W3C//DTD SVG 1.1//EN" "http://www.w3.org/Graphics/SVG/1.1/DTD/svg11.dtd">
<svg version="1.1" xmlns="http://www.w3.org/2000/svg" xmlns:xlink="http://www.w3.org/1999/xlink" x="0px" y="0px"
	 viewBox="0 0 320 320" style="enable-background:new 0 0 320 320;" xml:space="preserve">
<style type="text/css">
	.st0{fill:none;stroke:#B3B2B2;stroke-miterlimit:10;}
	.st1{fill:#B3B2B2;}
	.st2{fill:#F6F6F6;}
	.st3{font-family:'Akkurat';}
	.st4{font-size:25.7487px;}
	.st5{fill:#878787;}
</style>
<g id="content">
	<rect class="st0" width="320" height="320"/>
	<g>
		<g>
			<path class="st1" d="M170.7,161.8c0,4.6-0.7,8.9-2.1,13c-1.4,4-3.6,7.3-6.6,10c-1.8,1.6-3.8,2.8-6.1,3.7c-2.3,0.9-5,1.3-8,1.3
				c-1.8,0-3.6-0.2-5.4-0.7c-1.8-0.5-3.5-1.2-5.1-2.1c-1.6-0.9-3-2.1-4.3-3.4c-1.3-1.3-2.3-2.8-3-4.5l-0.7,9.4h-4.8v-77h5.4
				l-0.1,32.6c0.7-1.5,1.7-2.9,2.9-4.2c1.2-1.3,2.6-2.4,4.2-3.3c1.6-0.9,3.3-1.6,5.1-2.1c1.8-0.5,3.7-0.7,5.6-0.7
				c3.1,0,5.9,0.5,8.3,1.5c2.4,1,4.5,2.3,6.2,4.1c2.8,2.7,4.9,6,6.3,10C170,153.2,170.7,157.4,170.7,161.8z M165.3,161.7
				c0-3.4-0.5-6.7-1.4-9.9c-1-3.2-2.5-5.9-4.5-8.2c-1.4-1.4-3-2.6-4.9-3.4s-4-1.3-6.5-1.3c-2.5,0-4.6,0.4-6.4,1.1
				c-1.8,0.7-3.4,1.8-4.7,3c-2.5,2.3-4.2,5-5.2,8.1c-1,3.1-1.5,6.6-1.5,10.6c0,3.7,0.5,7.1,1.6,10.3c1.1,3.2,2.8,5.9,5.2,8.3
				c1.3,1.3,2.9,2.3,4.7,3.1c1.8,0.8,3.8,1.2,6.2,1.2c2.3,0,4.3-0.3,6-1c1.7-0.6,3.2-1.6,4.6-2.8c2.5-2.2,4.3-5,5.4-8.3
				C164.7,169.2,165.3,165.6,165.3,161.7z"/>
			<path class="st1" d="M231.3,188.4c-0.6,0.1-1.1,0.2-1.3,0.3c-0.2,0-0.6,0.1-1.3,0.1c-1.6,0-3-0.3-4.1-0.9c-1.1-0.6-2-1.3-2.7-2.3
				c-0.7-1-1.1-2.1-1.4-3.3s-0.4-2.6-0.4-4c-0.7,1.9-1.7,3.6-3,5c-1.3,1.4-2.8,2.6-4.5,3.6c-1.7,1-3.5,1.7-5.5,2.2
				c-2,0.5-4,0.7-6.1,0.7c-2.6,0-4.9-0.4-7.2-1.1c-2.2-0.7-4.2-1.8-5.8-3.3c-1.7-1.4-3-3.1-3.9-5.2c-0.9-2-1.4-4.3-1.4-6.9
				c0-4.8,1.6-8.5,4.9-11.2c3.3-2.7,7.6-4.3,12.9-4.6l19.6-1.4v-5.2c0-4.4-1.3-7.5-4-9.4c-2.7-1.8-6-2.8-10-2.8
				c-4.2,0-7.8,1-10.6,2.9c-2.8,1.9-4.4,4.9-4.7,8.9h-5.4c0.2-2.7,0.9-5.1,2-7.1c1.1-2.1,2.6-3.8,4.4-5.2c1.8-1.4,3.9-2.5,6.4-3.3
				c2.4-0.7,5.1-1.1,8-1.1c1.8,0,3.6,0.2,5.5,0.5c1.9,0.3,3.6,0.9,5.2,1.7c1.6,0.8,3.1,1.8,4.4,3c1.3,1.2,2.3,2.8,3,4.6
				c0.6,1.6,1,3.3,1.2,5c0.1,1.7,0.2,3.4,0.2,5.2V178c0,1.8,0.2,3.3,0.7,4.3c0.5,1,1.6,1.5,3.5,1.5c0.6,0,1.1,0,1.5-0.1V188.4z
				 M220.2,161l-19,1.2c-4,0.3-7.1,1.4-9.5,3.4c-2.3,2-3.5,4.6-3.5,7.8c0,3.8,1.3,6.7,3.8,8.6c2.5,1.9,5.7,2.9,9.5,2.9
				c3.3,0,6.2-0.6,8.6-1.9c2.4-1.2,4.3-2.9,5.8-4.9c1.5-2,2.6-4.2,3.3-6.8s1.1-5.1,1.1-7.6V161z"/>
			<path class="st1" d="M291.2,196.4c0,2.1-0.4,3.9-1.1,5.6c-0.7,1.7-1.7,3.1-2.9,4.3c-2.3,2.3-5.3,4-9.1,4.9
				c-3.8,0.9-7.8,1.4-12.1,1.4c-4.1,0-7.8-0.5-11.3-1.4c-3.5-0.9-6.3-2.5-8.6-4.8c-1.2-1.2-2.1-2.6-2.8-4.2c-0.6-1.6-1-3.4-1-5.4
				c0-2.6,0.7-5,2.1-7.3c1.4-2.3,3.4-4,5.9-5.2c-1.9-0.6-3.4-1.7-4.8-3.4c-1.3-1.7-2-3.5-2-5.3c0-2.3,0.6-4.2,1.7-5.9
				s2.7-3.1,4.8-4.3c-1.6-1.6-2.9-3.5-3.9-5.7c-1-2.2-1.4-4.6-1.4-7.4c0-2.8,0.5-5.4,1.5-7.7c1-2.3,2.4-4.3,4.2-5.9
				c1.8-1.6,3.9-2.9,6.4-3.7c2.5-0.9,5.1-1.3,7.9-1.3c4.7,0,8.9,1.2,12.5,3.6c0.7-2.3,2.1-4.1,4.1-5.3c2-1.3,4.3-1.9,6.7-1.9
				c0.4,0,0.7,0,1,0.1c0.3,0.1,0.7,0.1,1,0.1v4.6c-0.4,0-0.7,0-1-0.1c-0.3-0.1-0.7-0.1-1-0.1c-1.9,0-3.5,0.5-4.9,1.5
				c-1.3,1-2.2,2.4-2.5,4.3c1.4,1.6,2.4,3.3,3.2,5.3c0.8,2,1.1,4.2,1.1,6.6c0,2.9-0.5,5.5-1.6,7.8c-1.1,2.3-2.5,4.2-4.3,5.8
				c-1.8,1.6-4,2.8-6.4,3.6c-2.5,0.9-5.1,1.3-7.9,1.3c-4,0-7.6-0.8-10.7-2.5c-1.4,0.6-2.7,1.4-3.7,2.5c-1.1,1.1-1.6,2.5-1.6,4.1
				c0,1.3,0.4,2.3,1.1,3.1c0.7,0.8,1.6,1.4,2.7,1.9c1,0.4,2.2,0.6,3.6,0.7c1.4,0.1,2.6,0.2,3.6,0.2h11.7c3.4,0,6.5,0.4,9.1,1.3
				c2.7,0.9,4.9,2.2,6.6,3.9c1.3,1.3,2.3,2.7,3.1,4.4C290.8,192,291.2,194,291.2,196.4z M285.8,196.4c0-1.5-0.2-2.8-0.7-3.8
				c-0.5-1-1.1-2-1.9-2.8c-2.5-2.6-6.8-3.9-12.9-3.9h-14.1c-2.3,0.6-4.3,1.8-6.1,3.6c-1.8,1.8-2.7,4.3-2.7,7.4
				c0,1.4,0.3,2.7,0.8,3.8c0.5,1.1,1.2,2.1,2.1,2.9c0.9,0.9,2,1.7,3.3,2.2c1.3,0.5,2.6,1,4,1.3c1.4,0.3,2.8,0.5,4.3,0.6
				c1.5,0.1,2.9,0.2,4.2,0.2c1.3,0,2.8-0.1,4.3-0.2c1.5-0.1,3.1-0.3,4.6-0.6c1.6-0.3,3-0.8,4.4-1.4c1.4-0.6,2.6-1.5,3.6-2.5
				c0.8-0.8,1.4-1.7,2-2.9C285.5,199.1,285.8,197.8,285.8,196.4z M279.5,152.3c0-2.1-0.4-4.1-1.2-5.8c-0.8-1.7-1.8-3.2-3.1-4.4
				c-1.3-1.2-2.9-2.1-4.7-2.8c-1.8-0.6-3.8-1-5.8-1c-2.1,0-4,0.3-5.8,1c-1.8,0.6-3.4,1.6-4.7,2.8c-1.3,1.2-2.3,2.7-3.1,4.4
				c-0.7,1.7-1.1,3.6-1.1,5.8c0,2.1,0.4,4.1,1.1,5.8c0.7,1.7,1.8,3.1,3.1,4.3c1.3,1.2,2.9,2.1,4.7,2.7c1.8,0.6,3.7,0.9,5.8,0.9
				c2.1,0,4-0.3,5.8-0.9c1.8-0.6,3.4-1.5,4.7-2.7c1.3-1.2,2.4-2.6,3.1-4.3C279.1,156.4,279.5,154.5,279.5,152.3z"/>
		</g>
		<text transform="matrix(1 0 0 1 65.4266 224.5708)" class="st2 st3 st4">move and play</text>
		<path class="st5" d="M57.6,103.5c-82.3,39.8,24.4,103.7,45.3,93.6C123.8,187,123.5,71.6,57.6,103.5z M103.8,177.5
			c1.4,1.9,1.1,4.6-0.8,6c-0.8,0.6-1.7,0.9-2.6,0.9c-1.3,0-2.6-0.6-3.4-1.7l-8.8-11.6l-8.8,11.6c-0.8,1.1-2.1,1.7-3.4,1.7
			c-0.9,0-1.8-0.3-2.6-0.9c-1.9-1.4-2.3-4.1-0.8-6L82.9,164l-10.2-13.5c-1.4-1.9-1.1-4.6,0.8-6c1.9-1.4,4.6-1.1,6,0.8l8.8,11.6
			l8.8-11.6c1.4-1.9,4.1-2.3,6-0.8c1.9,1.4,2.3,4.1,0.8,6L93.6,164L103.8,177.5z"/>
	</g>
</g>
<g id="guides">
</g>
</svg>
