<?xml version="1.0" encoding="utf-8"?>
<!-- Generator: Adobe Illustrator 19.1.0, SVG Export Plug-In . SVG Version: 6.00 Build 0)  -->
<!DOCTYPE svg PUBLIC "-//W3C//DTD SVG 1.1//EN" "http://www.w3.org/Graphics/SVG/1.1/DTD/svg11.dtd">
<svg version="1.1" xmlns="http://www.w3.org/2000/svg" xmlns:xlink="http://www.w3.org/1999/xlink" x="0px" y="0px"
	 viewBox="0 0 320 320" style="enable-background:new 0 0 320 320;" xml:space="preserve">
<style type="text/css">
	.st0{fill:none;stroke:#B3B2B2;stroke-miterlimit:10;}
	.st1{fill:#B3B2B2;}
</style>
<g id="content">
	<rect class="st0" width="320" height="320"/>
	<g>
		<path class="st1" d="M81.4,33.6c1.5-4.6,1.6-5.3-1.1-5.8l-1.2-0.2c-0.3-0.4-0.2-1,0.3-1.2c2,0.1,3.6,0.1,5.7,0.1
			c2,0,3.5,0,5.9-0.1c0.3,0.2,0.4,1,0,1.2l-1.3,0.2c-2.8,0.4-3,0.9-4.6,5.8l-5.7,18.2c-1.4,4.6-1.6,5.6,0.9,5.8l1.5,0.1
			c0.3,0.3,0.1,1-0.2,1.2c-2.4-0.1-4.1-0.1-6.2-0.1c-2,0-3.7,0-5.6,0.1c-0.4-0.2-0.4-0.9,0-1.2l1.5-0.1c2.4-0.2,2.8-0.8,4.4-5.8
			L81.4,33.6z"/>
		<path class="st1" d="M93.3,49.5l0.1,0.1c3.5-5.3,8.3-10.7,12-10.7c1.9,0,2.7,1,2.7,2.6c0,0.8-0.4,2.3-0.8,3.4
			c-0.9,2.5-4.4,10.4-4.6,10.8c-0.2,0.5-0.2,0.9,0.1,0.9c0.8,0,3.2-1.6,4.6-3.3c0.7-0.1,0.8,0.3,0.8,0.7c-1.9,3.1-5.7,5.5-8.4,5.5
			c-0.4,0-1.2-0.6-1.2-1.2c0-0.4,0.1-0.8,1.2-3.2c1-2.4,2.8-7.2,4-9.7c0.4-0.9,1-2.6,1-3.6c0-0.6,0-1.2-0.8-1.2
			c-1.2,0-4.1,2.5-6.8,5.8c-2.6,3.2-4.6,7.1-7.5,12.5c-0.2,0.4-0.4,0.6-0.9,0.6c-0.5,0-1.9-0.1-1.4-1.3l5.7-15.5
			c0.2-0.6,0.2-1.1-0.1-1.1c-1.1,0-2.8,1-4.5,2.5c-0.4,0-0.6-0.3-0.6-0.7c1.9-2.6,4.9-4.6,7.3-4.6c1.2,0,1.7,0.9,1.3,2L93.3,49.5z"
			/>
		<path class="st1" d="M120.5,41.5L116,54.8c-0.3,0.9,0,1.2,0.3,1.2c0.7,0,4-2.6,5.6-4.4c0.5,0,0.8,0.3,0.7,0.9
			c-2.7,4.1-7.4,7.1-9.4,7.1c-0.7,0-1.3-0.7-1.3-1.3c0-0.6,0.2-1.3,0.7-2.8l4.8-14h-3.8c-0.1-0.5,0-1.2,0.5-1.4l3.9-0.7l2.7-4.9
			c0.5-0.3,1.5-0.2,1.9,0.3l-1.4,4.8h5.3c0.3,0.5,0,1.5-0.6,1.8H120.5z"/>
		<path class="st1" d="M141.6,41.8c0,3.7-4.9,6.2-11.9,8.1c-0.3,0.8-0.7,2.4-0.7,4.4c0,1.7,1,2.8,2.4,2.8c1.8,0,3-1,5.2-2.8
			c0.4,0,0.7,0.4,0.6,0.8c-3,3.7-5.8,4.5-7.8,4.5c-2.9,0-4-2.7-4-5.2c0-3.1,2-9.1,7.3-13.2c2.6-2,4.5-2.4,5.9-2.4
			C140.5,38.9,141.6,40.6,141.6,41.8z M133.8,42.8c-1.9,2.1-3,4.3-3.6,5.7c3.2-1,4.8-1.9,6.6-3.6c1.5-1.4,1.9-2.9,1.9-3.3
			c0-0.5-0.2-1.1-1.1-1.1C136.8,40.4,135.6,40.9,133.8,42.8z"/>
		<path class="st1" d="M150.5,43.5l-2.1,6.2h0.2c1.5-2.7,3.9-6.7,5.2-8.3c1.1-1.5,2.4-2.6,3.6-2.6c1.7,0,2,1.7,2,2.4s-0.4,2.2-1,2.9
			c-0.6,0.7-1.4,0.8-1.6-0.2c-0.2-1.3-0.5-1.9-1-1.9c-0.4,0-1,0.5-1.7,1.5c-3,3.8-5.7,9.8-8.3,15.5c-0.2,0.4-0.4,0.6-0.8,0.6
			c-0.5,0-2-0.2-1.6-1.3c0.6-2,3.7-10.6,5.1-15.5c0.1-0.5,0-1-0.4-1c-1.3,0-2.6,1.4-3.5,2.6c-0.5,0.1-0.8-0.2-0.8-0.8
			c1.6-2.6,3.4-4.7,5.8-4.7C151.8,38.9,151,42.2,150.5,43.5z"/>
		<path class="st1" d="M174.7,41.8c0,2-1.9,2.3-2.4,2.3c-0.5,0-0.9-0.3-1-0.9c-0.1-1.2-0.1-2.7-1.7-2.7c-1.1,0-2.6,1-4.1,3.3
			c-1.6,2.4-3.1,6.4-3.3,10.2c-0.1,2.5,0.9,3.2,2.1,3.2c1.6,0,3.4-1.3,5.3-3c0.5,0,0.8,0.3,0.6,0.8c-1.9,2.5-5,4.6-8.1,4.6
			c-1.9,0-3.7-1.4-3.7-5.2c0-3.2,1.9-8.8,6.2-12.7c2.1-1.9,4.2-2.8,6.4-2.8C173.5,38.9,174.7,40.3,174.7,41.8z"/>
		<path class="st1" d="M191.3,41.8c0,3.7-4.9,6.2-11.9,8.1c-0.3,0.8-0.7,2.4-0.7,4.4c0,1.7,1,2.8,2.4,2.8c1.8,0,3-1,5.2-2.8
			c0.4,0,0.7,0.4,0.6,0.8c-3,3.7-5.8,4.5-7.8,4.5c-2.9,0-4-2.7-4-5.2c0-3.1,2-9.1,7.3-13.2c2.6-2,4.5-2.4,5.9-2.4
			C190.2,38.9,191.3,40.6,191.3,41.8z M183.5,42.8c-1.9,2.1-3,4.3-3.6,5.7c3.2-1,4.8-1.9,6.6-3.6c1.5-1.4,1.9-2.9,1.9-3.3
			c0-0.5-0.2-1.1-1.1-1.1C186.5,40.4,185.2,40.9,183.5,42.8z"/>
		<path class="st1" d="M195.8,55.7c-0.4,1.1-0.3,1.6,0.2,1.6c1.1,0,3.4-2.4,5.6-5c0.5,0,0.8,0.2,0.8,0.7c-1.3,2.5-4.4,6.5-8.4,6.5
			c-1.5,0-1.9-0.7-1.9-1.5c0-0.8,0.2-1.7,1.1-4.2l7.8-23.2c1.2-3.4,0.7-3.9,0-4.3l-0.9-0.4c-0.2-0.2-0.2-0.6,0-0.8
			c0.9-0.3,3.9-1.3,6.2-1.5l0.2,0.3c-0.6,1.8-1.1,3.1-2.9,8.4L195.8,55.7z"/>
		<path class="st1" d="M207.9,55.7c-0.4,1.1-0.3,1.6,0.2,1.6c1.1,0,3.4-2.4,5.6-5c0.5,0,0.8,0.2,0.8,0.7c-1.3,2.5-4.4,6.5-8.4,6.5
			c-1.5,0-1.9-0.7-1.9-1.5c0-0.8,0.2-1.7,1.1-4.2l7.8-23.2c1.2-3.4,0.7-3.9,0-4.3l-0.9-0.4c-0.2-0.2-0.2-0.6,0-0.8
			c0.9-0.3,3.9-1.3,6.2-1.5l0.2,0.3c-0.6,1.8-1.1,3.1-2.9,8.4L207.9,55.7z"/>
		<path class="st1" d="M233.7,37.8c0.8-0.4,2.1,0.1,2.4,0.7c-0.7,1.8-5,12.7-6.6,17.1c-0.3,0.8,0,1.1,0.3,1.1c0.8,0,2.3-0.8,5.1-3.3
			c0.3,0,0.7,0.2,0.7,0.6c-2.1,2.7-5.5,5.5-8.2,5.5c-1.1,0-1.4-0.9-1.4-1.3c0-0.3,0.1-0.8,0.5-1.9l1.6-4.4l-0.1,0
			c-3.5,4.3-8.5,7.7-10.8,7.7c-1.4,0-2.2-1.4-2.2-2.7c0-1.1,1.1-5.1,4.3-9.5c2.4-3.2,4.5-5.2,6.5-6.3c1.9-1.1,3.1-1.4,4.4-1.4
			c0.5,0,0.9,0.1,1.2,0.3c0.2,0.1,0.7,0.5,1,1L233.7,37.8z M225.1,43.4c-3.1,2.8-6.1,9.2-6.1,12.7c0,0.6,0.3,0.9,0.7,0.9
			c0.5,0,2-0.6,4.8-3.2c3.7-3.5,5.8-7.7,6.6-10.6c-0.3-0.9-1.2-1.8-2.5-1.8C227.4,41.4,226.6,42,225.1,43.4z"/>
		<path class="st1" d="M246.1,43.5l-2.1,6.2h0.2c1.5-2.7,3.9-6.7,5.2-8.3c1.1-1.5,2.4-2.6,3.6-2.6c1.7,0,2,1.7,2,2.4s-0.4,2.2-1,2.9
			c-0.6,0.7-1.4,0.8-1.6-0.2c-0.2-1.3-0.5-1.9-1-1.9c-0.4,0-1,0.5-1.7,1.5c-3,3.8-5.7,9.8-8.3,15.5c-0.2,0.4-0.4,0.6-0.8,0.6
			c-0.5,0-2-0.2-1.6-1.3c0.6-2,3.7-10.6,5.1-15.5c0.1-0.5,0-1-0.4-1c-1.3,0-2.6,1.4-3.5,2.6c-0.5,0.1-0.8-0.2-0.8-0.8
			c1.6-2.6,3.4-4.7,5.8-4.7C247.4,38.9,246.6,42.2,246.1,43.5z"/>
	</g>
	<g>
		<path class="st0" d="M241.8,123.1c-15.6-22.3-81.8-28.9-123.4-12.9l0.1,0.3c-7.8-3.5-18.5-3.7-29,0.2
			c-17.5,6.4-27.9,21.7-23.4,34.1c4.6,12.4,22.5,17.3,39.9,10.8c11-4,19.2-11.6,22.6-19.7l0.2,0.4c16.9-7.7,77.4-10.3,100.8,6
			c-2.5,2.4-9,4.6-14,5.9c-8.3-5.1-20.6-6.3-33-2.3c-18.9,6.1-30.8,21.9-26.5,35.3c4.3,13.5,23.2,19.4,42.1,13.4
			c12.5-4,22-12.3,25.7-21.4c11.4-3.4,20.7-10.9,20.6-17.5C244.4,145,245.5,128.4,241.8,123.1z"/>
		
			<ellipse transform="matrix(0.9384 -0.3457 0.3457 0.9384 -39.9865 42.0058)" class="st0" cx="97.8" cy="133.1" rx="23.3" ry="16.5"/>
		<ellipse transform="matrix(0.9524 -0.305 0.305 0.9524 -42.8671 66.2018)" class="st0" cx="190.4" cy="170.3" rx="27" ry="19.2"/>
		<path class="st0" d="M156,180.6c-10.5,0-21.3,2.8-28.2,13c-3.8,5.6-2.8,10.4,0.2,13c11.5,10,27.6,4.1,37.7,14.4
			c1.4,1.4,2.3,3.3,2,5.3c-1.5,11.2-25,9.2-32.5,9c-9.8-0.2-23.6-0.4-30.8,7.8c-0.7,0.8-1.3,1.8-1.5,2.8
			c-1.5,9.1,16.1,10.5,21.5,10.8c8.9,0.4,17.9,0.6,26.8,0c8.5-0.6,30.6-8.2,35.6,2.8c2.8,6.2-4.7,17.5-10.4,19.9"/>
		<path class="st0" d="M173.8,278.3c1-0.5,2.2,0.5,2.9,1.4c0.7,0.9,0.9,2.2,0.3,3.2c-0.4,0.6-0.9,1.1-1.5,1.5
			c-3.3,2.4-6.9,4.5-10.6,6.3c-0.2,0.1-0.4,0.2-0.5,0.1c-0.2,0-0.4-0.2-0.5-0.3c-0.8-0.6-1.5-1.2-2.3-1.9c-0.4-0.3-0.9-0.7-0.9-1.3
			c-0.1-0.9,0.9-1.4,1.6-1.9C165.8,283,169.6,280.4,173.8,278.3z"/>
		<path class="st0" d="M161.2,288.4c-2.1,1.4-4.5,3-6.6,4.4c-0.2,0.1-0.4,0.3-0.5,0.6c0,0.2,0.5,1.1,0.8,1.3
			c0.4,0.3,0.9,0.3,1.4,0.1c0.4-0.1,5.4-3.6,7-4.8"/>
	</g>
</g>
<g id="guides">
</g>
</svg>
