<?xml version="1.0" encoding="utf-8"?>
<!-- Generator: Adobe Illustrator 19.1.0, SVG Export Plug-In . SVG Version: 6.00 Build 0)  -->
<!DOCTYPE svg PUBLIC "-//W3C//DTD SVG 1.1//EN" "http://www.w3.org/Graphics/SVG/1.1/DTD/svg11.dtd">
<svg version="1.1" xmlns="http://www.w3.org/2000/svg" xmlns:xlink="http://www.w3.org/1999/xlink" x="0px" y="0px"
	 viewBox="0 0 320 320" style="enable-background:new 0 0 320 320;" xml:space="preserve">
<style type="text/css">
	.st0{fill:none;stroke:#B3B2B2;stroke-miterlimit:10;}
	.st1{fill:#B3B2B2;}
	.st2{display:none;}
</style>
<g id="content">
	<rect class="st0" width="320" height="320"/>
	<path class="st0" d="M159.9,108.7c7.9-7.8,12.2-15,12.1-20.9c-0.1-7.1-6.1-12.1-12.1-12.1c-6,0-11.9,5-12.1,12.1
		C147.8,93.7,152.1,101,159.9,108.7z"/>
	
		<rect x="24.7" y="83.3" transform="matrix(-1 1.643256e-04 -1.643256e-04 -1 149.0159 178.3446)" class="st0" width="99.6" height="11.8"/>
	<rect x="195.6" y="83.3" class="st0" width="99.6" height="11.8"/>
	<rect x="24.7" y="170.6" class="st0" width="45.4" height="30"/>
	<rect x="78.9" y="170.6" class="st0" width="45.4" height="30"/>
	<rect x="24.7" y="209.5" class="st0" width="45.4" height="30"/>
	<rect x="78.9" y="209.5" class="st0" width="45.4" height="30"/>
	<line class="st0" x1="55.5" y1="129.1" x2="263.7" y2="129.1"/>
	<rect x="172" y="170.6" class="st0" width="123.2" height="68.9"/>
	<rect x="24.7" y="262" class="st0" width="270.5" height="33"/>
	<g>
		<path class="st1" d="M88.1,38c-0.1,0-0.6-0.2-1.3-0.7c-0.7-0.5-1.1-0.7-1.2-0.7c-0.2,0-0.7-0.5-1.7-1.5l-1.5-1.5l0-2.3
			c0-1.4,0.2-2.4,0.5-3c0.3-0.6,1.1-1.2,2.2-1.8c0.6-0.4,1.1-0.6,1.4-0.7c0.3-0.1,0.8-0.1,1.3,0c1.1,0.1,2.2,0.6,3.1,1.4
			s1.4,1.5,1.3,2.2c0,0.2-0.1,0.4-0.3,0.5c-0.1,0.1-0.3,0.1-0.5-0.1c-0.2-0.1-0.3-0.3-0.5-0.6c-0.2-0.5-0.8-1-1.6-1.4
			C88.7,27.2,88,27,87.4,27c-0.6,0-1.2,0.2-2,0.6c-0.8,0.4-1.2,0.8-1.4,1.2c-0.2,0.4-0.3,1.2-0.3,2.4c0,1.1,0.2,1.9,0.5,2.3
			c0.3,0.5,1.2,1.2,2.6,2.1c1.7,1.1,2.9,1.9,3.4,2.4s0.9,1,1.3,1.7c0.5,1.2,0.7,2.4,0.5,3.6c-0.2,1.2-0.7,2.2-1.5,2.9
			c-0.5,0.4-1.1,0.8-2.1,1.1c-0.7,0.2-1.2,0.3-1.5,0.3s-1-0.2-2-0.5c-0.9-0.3-1.6-0.6-2-0.8c-0.4-0.3-0.9-0.7-1.5-1.4
			c-0.8-0.9-1.4-1.7-1.6-2.4c-0.2-0.7-0.2-1.3,0.2-1.7c0.3-0.3,0.6-0.4,0.8-0.2c0.2,0.2,0.3,0.6,0.3,1.2s0.3,1.3,1,2.1
			c0.6,0.8,1.2,1.3,1.8,1.5c0.4,0.1,1,0.3,1.6,0.6c0.7,0.4,1.5,0.5,2.2,0.3c0.7-0.2,1.3-0.5,1.8-0.9c0.5-0.4,0.9-1,1.1-1.8
			c0.2-0.7,0.2-1.5,0-2.3c-0.2-0.6-0.5-1.3-1.1-2.1C88.9,38.4,88.4,38,88.1,38z"/>
		<path class="st1" d="M104.3,31.5c0,0.2,0.2,0.8,0.6,1.7c0.4,0.9,0.6,1.5,0.6,1.8c0,0.3,0.2,0.9,0.6,1.8c0.4,0.9,0.7,1.7,0.9,2.3
			c0.2,0.7,0.4,1.4,0.7,2c0.3,0.7,0.5,1.1,0.5,1.4c0,0.2,0.2,0.8,0.6,1.8c0.4,1,0.6,1.6,0.5,1.8c-0.1,0.5-0.3,0.6-0.6,0.4
			c-0.3-0.1-0.5-0.4-0.6-0.9c-0.1-0.4-0.4-1.1-0.8-1.9c-0.4-0.8-0.6-1.3-0.6-1.5c0-0.2-0.2-1-0.7-2.1l-0.7-1.8h-7.3l-0.5,1
			c-0.3,0.6-0.7,1.6-1.3,3c-0.6,1.4-1.1,2.5-1.5,3.3c-0.4,0.7-0.7,1.1-0.9,1.1c-0.3,0-0.5-0.1-0.6-0.3c-0.1-0.2,0.2-1.3,1.1-3.2
			s1.4-2.9,1.4-3c0-0.1,0.1-0.4,0.2-0.7c0.1-0.3,0.4-0.9,0.7-1.7c0.3-0.8,0.6-1.5,0.9-2.2c0.6-1.6,1.2-3.1,1.8-4.5
			c0.6-1.4,1-2.3,1.2-2.8c0.2-0.5,0.3-0.9,0.3-1.1c0-0.3,0.1-0.7,0.3-1c0.4-0.7,0.8-0.8,1.2-0.4c0.4,0.3,0.6,0.9,0.7,1.7
			c0.1,0.6,0.3,1.3,0.7,2.1C104.1,30.7,104.3,31.2,104.3,31.5z M103,31.5c-0.1-0.8-0.4-1.5-0.9-2.1c-0.4-0.5-0.8-0.4-1.1,0.3
			l-1.8,4.8c0,0-0.1,0.1-0.1,0.3c-0.2,0.4-0.3,0.7-0.3,0.9c-0.1,0.2-0.1,0.4-0.1,0.6c0,0.2,0,0.4,0.1,0.4c0,0,0.2,0.1,0.5,0.2
			c0.3,0.1,0.5,0.1,0.8,0.1s0.7,0,1.3,0c0.1,0,0.3,0,0.3,0l3.1,0.1l-0.2-1.3c-0.1-0.7-0.4-1.4-0.7-2.3C103.3,32.7,103.1,32,103,31.5
			z"/>
		<path class="st1" d="M113.1,25.5c1.6-0.2,2.8-0.2,3.4-0.2s1,0.2,1,0.5c0,0.2-0.2,0.4-0.5,0.5c-0.3,0.2-0.9,0.3-1.7,0.5
			c-0.1,0-0.2,0.7-0.3,2c0,1.3-0.1,3.8,0,7.4l0.1,9.3l1.4-0.1c1.2-0.1,1.7,0.1,1.7,0.5c0,0.1-0.1,0.3-0.2,0.4
			c-0.2,0.3-0.8,0.4-1.7,0.4c-0.7,0-1.4,0.1-2,0.3c-0.7,0.2-1.1,0.3-1.4,0.4c-0.3,0.1-0.7,0.1-1.3-0.1c-0.8-0.3-0.7-0.7,0.4-1.1
			c0.2-0.1,0.4-0.1,0.7-0.2l1.1-0.3l0.1-9.4c0-6.2,0-9.4-0.3-9.5c-0.2-0.1-0.7-0.1-1.4,0.1c-0.5,0.1-1,0.1-1.5,0s-0.7-0.4-0.7-0.6
			c0-0.2,0.2-0.4,0.6-0.5C110.9,25.8,111.7,25.7,113.1,25.5z"/>
		<path class="st1" d="M119,25.9c0.1-0.3,0.3-0.4,0.7-0.4c0.3,0.1,0.6,0.3,0.7,0.7c0.2,0.5,1.8,3.4,4.9,8.7s4.7,8,4.7,8.3
			c0.1,0.3,0.3,0.5,0.5,0.5c0.2,0,0.3-2.9,0.3-8.7c0-5.6,0.1-8.6,0.3-9.1c0.1-0.3,0.3-0.3,0.6,0c0.2,0.2,0.3,3.7,0.3,10.4
			c0,6.8-0.2,10.3-0.4,10.5c-0.2,0.2-0.4,0.1-0.7-0.1c-0.3-0.3-0.6-0.6-0.8-1c-0.2-0.4-0.5-1-1-1.8l-2.7-4.5c0,0-0.3-0.5-0.8-1.5
			c-0.6-1-1.1-2-1.7-3c-0.6-1-0.9-1.6-1-1.7c-0.2-0.4-0.5-0.8-0.9-1.2s-0.5-0.7-0.5-0.9c0-0.3-0.1-0.5-0.3-0.8
			c-0.2-0.3-0.4-0.4-0.6-0.4c-0.2,0-0.3,2.9-0.3,8.7c0,5.3-0.1,8.1-0.3,8.5c0,0.1-0.2,0.2-0.4,0.2c-0.2,0-0.4-0.1-0.4-0.4
			c-0.1-0.6-0.2-3.9-0.3-10C118.9,29.7,118.9,26.1,119,25.9z"/>
		<path class="st1" d="M132.9,26c0.1-0.2,0.7-0.3,2-0.3c1.3,0,4-0.1,8.2,0c6.6,0,10,0.1,10.2,0.2c0.1,0.1,0.1,0.3,0,0.6
			c-0.1,0.2-0.4,0.3-0.9,0.4c-0.5,0.1-1.7,0.1-3.4,0.1c-2.8,0-4.2,0.1-4.3,0.2s-0.2,3.5-0.3,10c-0.1,6-0.3,9.2-0.4,9.6
			c0,0.1-0.1,0.2-0.3,0.2c-0.2,0-0.4-0.4-0.4-1.3c-0.1-0.9-0.1-3.7-0.1-8.4c0-6.5-0.1-9.8-0.2-10c-0.1-0.1-1.8-0.3-5-0.5
			c-3.2-0.2-4.9-0.3-4.9-0.3C132.8,26.5,132.8,26.3,132.9,26z"/>
		<path class="st1" d="M154.2,39.9c0.1-0.2,0.6-0.3,1.2-0.3c0.7-0.1,1.9-0.1,3.8-0.1c3.3,0,5.1,0.2,5.2,0.5c0.1,0.1,0,0.3-0.2,0.6
			c-0.2,0.2-1.9,0.4-5.1,0.4c-3.2,0-4.9-0.1-5.1-0.4C153.9,40.4,154,40.2,154.2,39.9z"/>
		<path class="st1" d="M170.7,25.3c1.4-0.6,2.5-0.8,3.4-0.5c0.9,0.2,1.7,0.9,2.4,2.1c0.5,0.8,0.6,1.4,0.3,1.6
			c-0.3,0.2-0.8-0.1-1.4-0.8c-0.1-0.1-0.1-0.2-0.2-0.3c-0.6-0.8-1.1-1.3-1.6-1.4c-0.5-0.1-1.4,0.2-2.6,0.7c-0.9,0.5-1.7,1-2.4,1.8
			s-1.1,1.3-1.1,1.7c0,0.2-0.2,0.7-0.7,1.6c-0.2,0.5-0.4,1.1-0.5,1.6c-0.1,0.6-0.1,1.5-0.1,2.8c0,1.3,0.1,2.3,0.1,2.9
			c0.1,0.6,0.2,1.3,0.5,2c0.3,0.7,0.4,1.3,0.6,1.8c0.2,0.7,0.5,1.3,1.1,1.9c0.4,0.4,0.7,0.6,1.1,0.7c0.3,0.1,1,0.1,2,0.1
			c1.9,0,3.2-0.4,4-1.1c0.8-0.7,1.2-2,1.3-4c0.1-1.5,0.1-2.3-0.1-2.5c-0.2-0.1-1.1-0.2-2.7-0.3c-1.8,0-2.7-0.2-2.7-0.5
			c0-0.1,0.1-0.3,0.3-0.5c0.2-0.3,1.3-0.4,3.2-0.4c1.9,0,3,0.1,3.2,0.4c0,0,0,0.2,0.1,0.6c0.1,0.4,0.2,0.9,0.2,1.6
			c0,0.7,0,1.4,0,2.2c-0.1,0.7-0.3,1.5-0.7,2.4c-0.4,0.8-0.9,1.5-1.5,2.1c-0.7,0.6-1.3,1-1.8,1.1c-0.5,0.1-1.6,0.2-3.4,0.1
			c-1,0-1.7-0.1-2-0.2c-0.3-0.1-0.7-0.5-1.4-1.2c-0.8-0.9-1.3-1.5-1.3-1.9s-0.2-1-0.6-2c-0.3-0.6-0.4-1.2-0.5-1.9
			c-0.1-0.7-0.1-1.8-0.1-3.4c0-1.4,0-2.4,0.1-3.2c0.1-0.7,0.2-1.2,0.3-1.5c0.1-0.2,0.2-0.6,0.5-1c0.2-0.4,0.4-0.9,0.6-1.5
			c0.2-0.6,0.7-1.3,1.6-2.1C169.1,26.2,170,25.6,170.7,25.3z"/>
		<path class="st1" d="M182.5,25.5c1.6-0.2,2.8-0.2,3.4-0.2s1,0.2,1,0.5c0,0.2-0.2,0.4-0.5,0.5c-0.3,0.2-0.9,0.3-1.7,0.5
			c-0.1,0-0.2,0.7-0.3,2c0,1.3-0.1,3.8,0,7.4l0.1,9.3l1.4-0.1c1.2-0.1,1.7,0.1,1.7,0.5c0,0.1-0.1,0.3-0.2,0.4
			c-0.2,0.3-0.8,0.4-1.7,0.4c-0.7,0-1.4,0.1-2,0.3c-0.7,0.2-1.1,0.3-1.4,0.4c-0.3,0.1-0.7,0.1-1.3-0.1c-0.8-0.3-0.7-0.7,0.4-1.1
			c0.2-0.1,0.4-0.1,0.7-0.2l1.1-0.3l0.1-9.4c0-6.2,0-9.4-0.3-9.5c-0.2-0.1-0.7-0.1-1.4,0.1c-0.5,0.1-1,0.1-1.5,0s-0.7-0.4-0.7-0.6
			c0-0.2,0.2-0.4,0.6-0.5C180.3,25.8,181.1,25.7,182.5,25.5z"/>
		<path class="st1" d="M188.5,28.8c0.1-1.3,0.3-1.9,0.6-1.8c0.2,0,0.4,0.5,0.5,1.4c0.1,0.6,0.1,2.3,0.2,5.2c0,2.9,0.1,5.6,0.1,8.2
			c0,2.6,0.1,3.9,0.1,4.1c0.1,0.2,1.7,0.3,4.7,0.3c3.2,0,4.9,0.2,4.9,0.5c0,0.1,0,0.2-0.2,0.4c-0.2,0.2-2,0.3-5.3,0.4
			c-3.4,0.1-5.2,0-5.4-0.2c-0.3-0.2-0.4-3-0.4-8.4C188.3,33.4,188.4,30,188.5,28.8z"/>
		<path class="st1" d="M200.5,28.8c0.1-1.3,0.3-1.9,0.6-1.8c0.2,0,0.4,0.5,0.5,1.4c0.1,0.6,0.1,2.3,0.2,5.2c0,2.9,0.1,5.6,0.1,8.2
			c0,2.6,0.1,3.9,0.1,4.1c0.1,0.2,1.7,0.3,4.7,0.3c3.2,0,4.9,0.2,4.9,0.5c0,0.1,0,0.2-0.2,0.4c-0.2,0.2-2,0.3-5.3,0.4
			c-3.4,0.1-5.2,0-5.4-0.2c-0.3-0.2-0.4-3-0.4-8.4C200.4,33.4,200.4,30,200.5,28.8z"/>
		<path class="st1" d="M212.8,25.6c0.2-0.2,2.1-0.3,5.7-0.4c3.6,0,5.5,0.1,5.9,0.3c0.3,0.2,0.3,0.4,0.2,0.8
			c-0.1,0.2-0.4,0.3-1.1,0.4c-0.7,0.1-2.1,0.1-4.5,0.1h-5.4l0.2,7.9l4.4,0.1c1.9,0.1,3.1,0.1,3.6,0.2c0.6,0.1,0.8,0.2,0.8,0.4
			s-0.3,0.3-0.8,0.4c-0.6,0.1-1.8,0.1-3.6,0.2l-4.4,0.1v9.5l6.2,0.1c4.5,0.1,6.8,0.3,6.9,0.7c0,0.1,0,0.2-0.1,0.3
			c-0.2,0.1-2.5,0.2-7,0.3c-4.5,0-6.8,0-7.1-0.1c-0.2-0.2-0.4-3.7-0.4-10.5C212.4,29.4,212.5,25.8,212.8,25.6z"/>
		<path class="st1" d="M236.1,38c-0.1,0-0.6-0.2-1.3-0.7c-0.7-0.5-1.1-0.7-1.2-0.7c-0.2,0-0.7-0.5-1.7-1.5l-1.5-1.5l0-2.3
			c0-1.4,0.2-2.4,0.5-3c0.3-0.6,1.1-1.2,2.2-1.8c0.6-0.4,1.1-0.6,1.4-0.7c0.3-0.1,0.8-0.1,1.3,0c1.1,0.1,2.2,0.6,3.1,1.4
			s1.4,1.5,1.3,2.2c0,0.2-0.1,0.4-0.3,0.5c-0.1,0.1-0.3,0.1-0.5-0.1c-0.2-0.1-0.3-0.3-0.5-0.6c-0.2-0.5-0.8-1-1.6-1.4
			c-0.8-0.5-1.5-0.7-2.1-0.7c-0.6,0-1.2,0.2-2,0.6c-0.8,0.4-1.2,0.8-1.4,1.2c-0.2,0.4-0.3,1.2-0.3,2.4c0,1.1,0.2,1.9,0.5,2.3
			c0.3,0.5,1.2,1.2,2.6,2.1c1.7,1.1,2.9,1.9,3.4,2.4s0.9,1,1.3,1.7c0.5,1.2,0.7,2.4,0.5,3.6c-0.2,1.2-0.7,2.2-1.5,2.9
			c-0.5,0.4-1.1,0.8-2.1,1.1c-0.7,0.2-1.2,0.3-1.5,0.3s-1-0.2-2-0.5c-0.9-0.3-1.6-0.6-2-0.8c-0.4-0.3-0.9-0.7-1.5-1.4
			c-0.8-0.9-1.4-1.7-1.6-2.4c-0.2-0.7-0.2-1.3,0.2-1.7c0.3-0.3,0.6-0.4,0.8-0.2c0.2,0.2,0.3,0.6,0.3,1.2s0.3,1.3,1,2.1
			c0.6,0.8,1.2,1.3,1.8,1.5c0.4,0.1,1,0.3,1.6,0.6c0.7,0.4,1.5,0.5,2.2,0.3c0.7-0.2,1.3-0.5,1.8-0.9c0.5-0.4,0.9-1,1.1-1.8
			c0.2-0.7,0.2-1.5,0-2.3c-0.2-0.6-0.5-1.3-1.1-2.1C236.9,38.4,236.4,38,236.1,38z"/>
	</g>
	<g>
		<path class="st1" d="M142.9,56.4c1.5,0,2.7,0.9,2.7,2.4c0,1.7-1.5,3.1-3.1,3.1c-1.1,0-1.4-0.4-1.9-0.4l-0.7,3.1
			c0,0.1-0.1,0.3-0.1,0.4c0,0.3,0.2,0.4,0.6,0.5l0.4,0.1l-0.1,0.4c0,0-0.7,0-1.9,0c-1.2,0-1.8,0-1.8,0l0.1-0.4l0.3-0.1
			c0.7-0.2,1.1-0.5,1.3-1.3l1.5-6.4c0-0.1,0.1-0.3,0.1-0.4c0-0.3-0.2-0.4-0.6-0.5l-0.4-0.1l0.1-0.4c0,0,0.7,0,1.9,0
			C141.8,56.4,142.2,56.4,142.9,56.4z M144.3,58.8c0-1.2-0.8-2-1.8-2c-0.4,0-0.6,0.1-0.7,0.1l-1,4.1c0.4,0,0.8,0.2,1.4,0.2
			C143.4,61.3,144.3,60.1,144.3,58.8z"/>
		<path class="st1" d="M155.5,59.9c0,3.3-2.7,6.3-6,6.3c-2.1,0-3.6-1.3-3.6-3.7c0-3.3,2.7-6.3,6-6.3C154,56.2,155.5,57.6,155.5,59.9
			z M154.1,60.1c0-2.2-1.3-3.4-2.9-3.4c-2.7,0-3.9,3.3-3.9,5.5c0,2.2,1.3,3.4,2.9,3.4C152.8,65.6,154.1,62.3,154.1,60.1z"/>
		<path class="st1" d="M161.4,56.4c1.5,0,2.7,0.9,2.7,2.4c0,1.7-1.5,3.1-3.1,3.1c-1.1,0-1.4-0.4-1.9-0.4l-0.7,3.1
			c0,0.1-0.1,0.3-0.1,0.4c0,0.3,0.2,0.4,0.6,0.5l0.4,0.1l-0.1,0.4c0,0-0.7,0-1.9,0c-1.2,0-1.8,0-1.8,0l0.1-0.4l0.3-0.1
			c0.7-0.2,1.1-0.5,1.3-1.3l1.5-6.4c0-0.1,0.1-0.3,0.1-0.4c0-0.3-0.2-0.4-0.6-0.5l-0.4-0.1l0.1-0.4c0,0,0.7,0,1.9,0
			C160.3,56.4,160.7,56.4,161.4,56.4z M162.7,58.8c0-1.2-0.8-2-1.8-2c-0.4,0-0.6,0.1-0.7,0.1l-1,4.1c0.4,0,0.8,0.2,1.4,0.2
			C161.8,61.3,162.7,60.1,162.7,58.8z"/>
		<path class="st1" d="M166.8,61.7c-0.1,0.5-0.2,1-0.2,1.4c0,1.6,0.9,2.3,2.3,2.3c1.9,0,2.6-1.2,3.1-3.4l1-4.3
			c0-0.1,0.1-0.3,0.1-0.4c0-0.3-0.2-0.4-0.6-0.5l-0.4-0.1l0.1-0.4c0,0,0.8,0.1,1.7,0.1s1.6-0.1,1.6-0.1l-0.1,0.4l-0.3,0.1
			c-0.7,0.2-1.1,0.5-1.3,1.3l-0.9,3.9c-0.5,2.4-1.4,4-4.1,4c-2,0-3.4-0.9-3.4-2.8c0-0.4,0.1-0.8,0.2-1.3l1-4.3
			c0-0.1,0.1-0.3,0.1-0.4c0-0.3-0.2-0.4-0.6-0.5l-0.4-0.1l0.1-0.4c0,0,0.7,0,1.9,0c1.1,0,1.8,0,1.8,0l-0.1,0.4l-0.3,0.1
			c-0.7,0.2-1.1,0.5-1.3,1.3L166.8,61.7z"/>
		<path class="st1" d="M180.3,56.4c1.5,0,2.7,0.9,2.7,2.4c0,1.7-1.5,3.1-3.1,3.1c-1.1,0-1.4-0.4-1.9-0.4l-0.7,3.1
			c0,0.1-0.1,0.3-0.1,0.4c0,0.3,0.2,0.4,0.6,0.5l0.4,0.1l-0.1,0.4c0,0-0.7,0-1.9,0c-1.2,0-1.8,0-1.8,0l0.1-0.4l0.3-0.1
			c0.7-0.2,1.1-0.5,1.3-1.3l1.5-6.4c0-0.1,0.1-0.3,0.1-0.4c0-0.3-0.2-0.4-0.6-0.5l-0.4-0.1l0.1-0.4c0,0,0.7,0,1.9,0
			C179.2,56.4,179.6,56.4,180.3,56.4z M181.7,58.8c0-1.2-0.8-2-1.8-2c-0.4,0-0.6,0.1-0.7,0.1l-1,4.1c0.4,0,0.8,0.2,1.4,0.2
			C180.8,61.3,181.7,60.1,181.7,58.8z"/>
	</g>
</g>
<g id="guides" class="st2">
</g>
</svg>
