<?xml version="1.0" encoding="utf-8"?>
<!-- Generator: Adobe Illustrator 19.1.0, SVG Export Plug-In . SVG Version: 6.00 Build 0)  -->
<!DOCTYPE svg PUBLIC "-//W3C//DTD SVG 1.1//EN" "http://www.w3.org/Graphics/SVG/1.1/DTD/svg11.dtd">
<svg version="1.1" xmlns="http://www.w3.org/2000/svg" xmlns:xlink="http://www.w3.org/1999/xlink" x="0px" y="0px"
	 viewBox="0 0 320 320" style="enable-background:new 0 0 320 320;" xml:space="preserve">
<style type="text/css">
	.st0{fill:none;stroke:#B3B2B2;stroke-miterlimit:10;}
	.st1{fill:#B3B2B2;}
	.st2{opacity:0.7294;fill:#717170;}
	.st3{opacity:0.1569;fill:none;stroke:#525252;stroke-width:15;stroke-linecap:round;stroke-miterlimit:10;}
	.st4{opacity:0.1961;fill:#010202;}
	.st5{opacity:0.3333;fill:#878787;}
	.st6{opacity:5.882000e-02;fill:none;stroke:#878787;stroke-width:8;stroke-linecap:round;stroke-miterlimit:10;}
	.st7{opacity:0.3804;fill:#9D9D9C;}
	.st8{opacity:4.314000e-02;fill:none;stroke:#9D9D9C;stroke-width:10;stroke-linecap:round;stroke-miterlimit:10;}
	.st9{opacity:0.3333;fill:#717170;}
	.st10{opacity:0.2039;fill:none;stroke:#525252;stroke-width:15;stroke-linecap:round;stroke-miterlimit:10;}
	.st11{opacity:0.3529;fill:#010202;}
	.st12{opacity:0.3804;fill:#575756;}
	.st13{opacity:0.1686;fill:none;stroke:#525252;stroke-width:14;stroke-linecap:round;stroke-miterlimit:10;}
	.st14{opacity:0.4471;fill:#9E9E9E;}
	.st15{opacity:0.1922;fill:none;stroke:#525252;stroke-width:5;stroke-linecap:round;stroke-miterlimit:10;}
	.st16{opacity:0.5255;fill:#A5A4A4;}
	.st17{opacity:0.1216;fill:none;stroke:#525252;stroke-width:11;stroke-linecap:round;stroke-miterlimit:10;}
	.st18{opacity:0.5765;fill:#676766;}
	.st19{opacity:0.1529;fill:none;stroke:#525252;stroke-width:13;stroke-linecap:round;stroke-miterlimit:10;}
	.st20{opacity:0.6039;fill:#9F9F9F;}
	.st21{opacity:0.1177;fill:none;stroke:#525252;stroke-width:14;stroke-linecap:round;stroke-miterlimit:10;}
	.st22{opacity:0.6118;fill:#767676;}
	.st23{opacity:5.098000e-02;fill:none;stroke:#767676;stroke-width:16;stroke-linecap:round;stroke-miterlimit:10;}
	.st24{opacity:0.5412;fill:#7F7F7E;}
	.st25{opacity:0.2;fill:none;stroke:#525252;stroke-width:6;stroke-linecap:round;stroke-miterlimit:10;}
	.st26{opacity:0.7255;fill:#787877;}
	.st27{opacity:0.1255;fill:none;stroke:#525252;stroke-width:8;stroke-linecap:round;stroke-miterlimit:10;}
	.st28{opacity:0.6392;fill:#C6C6C6;}
	.st29{opacity:0.1569;fill:none;stroke:#525252;stroke-width:13;stroke-linecap:round;stroke-miterlimit:10;}
	.st30{opacity:0.4588;fill:#706F6F;}
	.st31{opacity:9.804000e-02;fill:none;stroke:#525252;stroke-width:10;stroke-linecap:round;stroke-miterlimit:10;}
	.st32{opacity:0.851;fill:#C8C8C8;}
	.st33{opacity:0.1412;fill:none;stroke:#C8C8C8;stroke-width:14;stroke-linecap:round;stroke-miterlimit:10;}
	.st34{opacity:0.2824;fill:#8D8D8C;}
	.st35{opacity:3.529000e-02;fill:none;stroke:#8D8D8C;stroke-width:5;stroke-linecap:round;stroke-miterlimit:10;}
	.st36{opacity:0.2941;fill:#717170;}
	.st37{opacity:2.745000e-02;fill:none;stroke:#717170;stroke-width:7;stroke-linecap:round;stroke-miterlimit:10;}
	.st38{opacity:0.651;fill:#A1A1A1;}
	.st39{opacity:0.1333;fill:none;stroke:#525252;stroke-width:6;stroke-linecap:round;stroke-miterlimit:10;}
	.st40{opacity:0.749;fill:#737372;}
	.st41{opacity:0.1647;fill:none;stroke:#737372;stroke-width:12;stroke-linecap:round;stroke-miterlimit:10;}
	.st42{opacity:0.3412;fill:#DADADA;}
	.st43{opacity:0.1333;fill:none;stroke:#525252;stroke-width:12;stroke-linecap:round;stroke-miterlimit:10;}
</style>
<g id="content">
	<rect class="st0" width="320" height="320"/>
	<g>
		<path class="st1" d="M131.8,47.4l-0.4,5.9v0.2c-0.2,0.9-0.3,1.8-0.3,2.8s-0.2,2-0.5,2.9c-0.4,0.9-0.9,1.8-1.6,2.5
			c-0.7,0.7-1.5,1.1-2.4,1.1c-0.9,0-1.6-0.3-2.3-0.9s-1.3-1.3-1.7-2.2c-0.5-0.9-0.9-2-1.2-3.2c-0.4-1.3-0.6-2.5-0.8-3.7
			c-0.2-1.2-0.3-2.5-0.5-3.8c-0.2-2-0.3-3.6-0.3-4.7c0-1.1,0-2.1,0-2.9s0-1.5,0-2.2c0-0.3,0-0.7,0-1.1s0-0.8,0-1.2
			c0-0.9,0-1.7,0.1-2.4c0-0.7,0.1-1.5,0.2-2.3c0.1-0.8,0.2-1.6,0.4-2.2c0.2-0.6,0.4-1.3,0.6-1.9c0.3-0.6,0.6-1.1,0.9-1.5
			c0.8-0.9,1.6-1.3,2.6-1.3s1.8,0.2,2.5,0.5s1.3,0.9,1.8,1.7c0.5,0.8,0.9,1.6,1.3,2.3c0.4,0.7,0.6,1.8,0.8,3.1
			c0.2,1.3,0.4,2.4,0.5,3.2c0.1,0.8,0.2,2,0.3,3.6c0.1,2.1,0.1,3.7,0.1,4.9V47.4z M127.7,30.3c-0.3-0.8-0.7-1.4-1.2-1.9
			s-0.9-0.7-1.4-0.7s-0.8,0.2-1.1,0.5c-0.3,0.3-0.5,0.8-0.8,1.4c-0.2,0.6-0.4,1.2-0.5,1.9c-0.2,0.7-0.3,1.4-0.4,2.3
			c-0.1,0.9-0.2,1.7-0.2,2.4c0,0.7-0.1,1.5-0.1,2.3c0,1.4-0.1,2.5-0.1,3.3v0.2c0,2.1,0.2,4.3,0.5,6.8c0.3,2.4,0.7,4.4,1,5.9
			c0.3,1.5,0.8,2.8,1.4,3.9c0.6,1.1,1.2,1.6,1.9,1.6c0.6,0,1.2-0.6,1.6-1.8c0.4-1.2,0.7-2.7,0.9-4.4c0.3-3.1,0.5-5.3,0.5-6.6
			c0-1.3,0-2.2,0-2.8s0-1.4-0.1-2.5c0-1.1-0.1-2.1-0.2-3.1c-0.1-1-0.2-2-0.4-3.2c-0.1-1.2-0.3-2.2-0.6-3.1
			C128.2,31.9,128,31.1,127.7,30.3z"/>
		<path class="st1" d="M135.3,37.9l-0.3-4c0-2.2,0.7-3.3,2-3.3c0.8,0,2,0.2,3.4,0.6c1.4,0.4,2.2,0.9,2.2,1.5c0,0.6-0.5,1.1-1.4,1.5
			c-1.4-0.5-2.6-0.8-3.5-0.9c0,0.7,0.1,1.3,0.1,2l-0.2,6.7c0,0,0,0.3,0.1,0.7l1.7-0.1c1.5,0,2.3,0.4,2.3,1.3c0,0.3-0.1,0.6-0.4,0.9
			c-0.3,0.3-0.6,0.4-1,0.4s-0.9,0-1.4-0.1h-1.2c0.1,1.2,0.1,2.4,0.1,3.5l-0.2,8.5c0,1.8,0,2.6,0.1,2.6l3.5-0.1
			c1.2,0,1.8,0.4,1.8,1.1c0,0.5-0.2,0.8-0.6,1c-0.4,0.2-0.9,0.3-1.4,0.3h-4c-0.4,0-0.8-0.1-1.1-0.4c-0.3-0.3-0.5-0.6-0.5-1v-1.2
			l-0.3-7.9L135.3,37.9z"/>
		<path class="st1" d="M147.6,45.9l0,5.1c0,4.1,0.3,7.4,0.9,9.8l-0.5,1.3h-1.3l-0.6-0.7c0-1.4,0-3,0-4.7s-0.1-5.5-0.4-11.2
			c-0.3-5.7-0.4-10-0.4-12.8c0-1.5,0.5-2.2,1.6-2.2c1.6,0,3,0.4,4.1,1.3c1.1,0.9,1.7,2.1,1.7,3.7v3.3c0,0.9-0.2,1.7-0.5,2.5
			c-0.3,0.7-0.7,1.5-1.2,2.3c-0.4,0.8-0.7,1.3-0.7,1.4c0.2,0.8,0.5,2.3,0.9,4.5c0.9,4.9,1.9,8.4,3,10.5c0.3,0.6,0.5,1.1,0.5,1.4
			s-0.1,0.6-0.3,0.9c-0.2,0.2-0.4,0.4-0.8,0.4c-0.7,0-1.3-0.8-1.9-2.3s-1.1-3.2-1.5-5c-1.1-5.6-1.8-8.7-2-9.2H147.6z M147.8,32.1
			l-0.2,0.7c0,1.3,0,3.1,0.1,5.5s0.1,4.2,0.1,5.3c0.7-0.4,1.3-1.4,1.8-3c0.4-1.6,0.7-2.8,0.7-3.7s0-1.5-0.1-1.9
			c0-0.4-0.1-0.9-0.3-1.3C149.6,32.7,148.9,32.1,147.8,32.1z"/>
		<path class="st1" d="M156.6,59.6l1.9,0.3c0.6,0,1.1-0.3,1.6-0.8c0.4-0.5,0.8-1.2,1-1.9c0.4-1.5,0.6-2.8,0.6-4s-0.2-2.3-0.6-3.4
			c-0.4-1.1-0.9-2.2-1.4-3.1c-0.6-1-1.1-2-1.7-3c-1.3-2.4-2-4.7-2-7c0-1.4,0.2-2.6,0.7-3.7c0.9-2,2.1-3,3.5-3c0.5,0,1.1,0.2,1.6,0.5
			c0.5,0.4,0.7,0.7,0.7,1.1c0,0.7-0.4,1.1-1.1,1.1c-0.3,0-0.7-0.1-1-0.3c-1,0-1.7,1.2-2,3.3c-0.1,0.5-0.1,1-0.1,1.7
			c0,0.6,0.1,1.4,0.4,2.3c0.3,0.9,0.6,1.8,1,2.5c0.4,0.7,0.9,1.5,1.4,2.4c0.5,0.9,0.9,1.7,1.4,2.6c1,1.9,1.5,4.1,1.4,6.5
			c0,1.9-0.4,3.7-1.3,5.4c-0.4,0.9-1,1.6-1.8,2.1c-0.8,0.5-1.7,0.8-2.7,0.8v0.1c-1.3-0.2-2-0.8-2.1-1.8L156.6,59.6z"/>
		<path class="st1" d="M166.3,47.2l0-1.8c0-0.2,0-0.2-0.1-0.2v-0.8c0-4.9,0.3-8.4,0.8-10.5c0.5-1.8,0.9-2.8,1.4-3.2
			c0.4-0.4,0.9-0.6,1.3-0.6c3.6,0,6.1,1.8,7.5,5.5c0.8,2.1,1.2,4.7,1.2,7.8v0.3l0.1,5.3c0,9-2.1,13.5-6.2,13.5c-1.7,0-3-1-4-2.9
			c-0.9-1.8-1.4-3.6-1.6-5.4C166.5,51.5,166.3,49.2,166.3,47.2z M169.1,40.8l-0.2,4.3c0,4.5,0.4,8.5,1.1,11.9c0.8,2,1.5,3.1,2.2,3.5
			c0.6,0,1.1-0.2,1.5-0.7c0.5-0.5,0.8-1.1,1.1-1.8c0.3-0.8,0.5-1.6,0.7-2.4c0.2-0.8,0.3-1.7,0.4-2.7c0.2-1.7,0.2-3.1,0.2-4.3
			c0-1.2-0.1-3-0.3-5.4c-0.2-2.4-0.3-4.2-0.3-5.4v-0.8c0-1.1-0.4-2.2-1.1-3.1c-0.7-0.9-1.6-1.3-2.7-1.3c-1.1,0-1.8,0.6-2.1,1.8
			c-0.3,1-0.4,2.3-0.4,3.7L169.1,40.8z"/>
		<path class="st1" d="M182,37.9l-0.3-4c0-2.2,0.7-3.3,2-3.3c0.8,0,2,0.2,3.4,0.6c1.4,0.4,2.2,0.9,2.2,1.5c0,0.6-0.5,1.1-1.4,1.5
			c-1.4-0.5-2.6-0.8-3.5-0.9c0,0.7,0.1,1.3,0.1,2l-0.2,6.7c0,0,0,0.3,0.1,0.7l1.7-0.1c1.5,0,2.3,0.4,2.3,1.3c0,0.3-0.1,0.6-0.4,0.9
			c-0.3,0.3-0.6,0.4-1,0.4c-0.4,0-0.9,0-1.4-0.1h-1.2c0.1,1.2,0.1,2.4,0.1,3.5l-0.2,8.5c0,1.8,0,2.6,0.1,2.6l3.5-0.1
			c1.2,0,1.8,0.4,1.8,1.1c0,0.5-0.2,0.8-0.6,1c-0.4,0.2-0.9,0.3-1.4,0.3h-4c-0.4,0-0.8-0.1-1.1-0.4c-0.3-0.3-0.5-0.6-0.5-1v-1.2
			l-0.3-7.9L182,37.9z"/>
		<path class="st1" d="M192.4,41.3l0.1-4.5c0-1.9-0.1-3.4-0.4-4.3c0.2-1.1,0.6-1.6,1.3-1.6h2.1c1.8,0,3.1,0.7,3.8,2.2
			c0.6,1.3,1,2.9,1,4.6c0,2.2-0.1,3.5-0.2,4c-0.1,0.5-0.2,1-0.3,1.4c-0.1,0.4-0.3,0.8-0.4,1.1c-0.2,0.3-0.4,0.6-0.7,0.9
			s-0.6,0.6-0.9,0.8c-0.8,0.5-1.7,0.9-2.8,1.3v5l0.4,8.9c0,0.4-0.2,0.7-0.5,1c-0.3,0.3-0.7,0.4-1.1,0.4l-1-0.6
			c-0.4-1.7-0.6-4-0.6-6.9l0.2-8.4c-0.2-0.4-0.3-0.8-0.3-1.1v-0.2C192.2,44.7,192.4,43.4,192.4,41.3z M194.7,36.1l0.1,9.1v0.1
			c1.9-0.2,2.8-2.9,2.8-7.9c0-1.5-0.2-2.5-0.5-3c-0.4-0.6-1-0.8-1.8-0.8c0,0-0.2-0.1-0.5-0.1V36.1z"/>
	</g>
	<path class="st2" d="M212.9,124.8c-3-3.1-1.4-9.4,3.5-14.1c4.9-4.7,11.3-6.1,14.2-3c3,3.1,1.4,9.4-3.5,14.1
		C222.3,126.5,215.9,127.8,212.9,124.8z"/>
	<path class="st3" d="M212.9,124.8c-3-3.1-1.4-9.4,3.5-14.1c4.9-4.7,11.3-6.1,14.2-3c3,3.1,1.4,9.4-3.5,14.1
		C222.3,126.5,215.9,127.8,212.9,124.8z"/>
	<path class="st4" d="M223,120c-0.7-0.7-0.7-1.8,0-2.5c0.7-0.7,1.8-0.7,2.5,0c0.7,0.7,0.7,1.8,0,2.5
		C224.7,120.7,223.6,120.7,223,120z"/>
	<path class="st4" d="M217.9,122.9c-0.7-0.7-0.7-1.8,0-2.5c0.7-0.7,1.8-0.7,2.5,0c0.7,0.7,0.7,1.8,0,2.5
		C219.7,123.6,218.6,123.6,217.9,122.9z"/>
	<path class="st4" d="M215.5,117.3c-0.7-0.7-0.7-1.8,0-2.5c0.7-0.7,1.8-0.7,2.5,0c0.7,0.7,0.7,1.8,0,2.5
		C217.3,118.1,216.2,118.1,215.5,117.3z"/>
	<path class="st4" d="M220,115.9c-0.7-0.7-0.7-1.8,0-2.5c0.7-0.7,1.8-0.7,2.5,0c0.7,0.7,0.7,1.8,0,2.5
		C221.8,116.7,220.7,116.6,220,115.9z"/>
	<path class="st4" d="M220.4,121.4c-0.7-0.7-0.7-1.8,0-2.5c0.7-0.7,1.8-0.7,2.5,0c0.7,0.7,0.7,1.8,0,2.5
		C222.2,122.1,221.1,122.1,220.4,121.4z"/>
	<path class="st4" d="M217.5,118.4c-0.7-0.7-0.7-1.8,0-2.5c0.7-0.7,1.8-0.7,2.5,0c0.7,0.7,0.7,1.8,0,2.5
		C219.3,119.1,218.2,119.1,217.5,118.4z"/>
	<path class="st5" d="M224.1,119c0,5.8-4.7,10.6-10.6,10.6c-5.8,0-10.6-4.7-10.6-10.6s4.7-10.6,10.6-10.6
		C219.4,108.5,224.1,113.2,224.1,119z"/>
	<path class="st6" d="M224.1,119c0,5.8-4.7,10.6-10.6,10.6c-5.8,0-10.6-4.7-10.6-10.6s4.7-10.6,10.6-10.6
		C219.4,108.5,224.1,113.2,224.1,119z"/>
	<path class="st5" d="M235.4,119c0,5.8-4.7,10.6-10.6,10.6c-5.8,0-10.6-4.7-10.6-10.6s4.7-10.6,10.6-10.6
		C230.6,108.5,235.4,113.2,235.4,119z"/>
	<path class="st6" d="M235.4,119c0,5.8-4.7,10.6-10.6,10.6c-5.8,0-10.6-4.7-10.6-10.6s4.7-10.6,10.6-10.6
		C230.6,108.5,235.4,113.2,235.4,119z"/>
	<circle class="st4" cx="229" cy="112.7" r="1.8"/>
	<circle class="st4" cx="231.8" cy="123.9" r="1.8"/>
	<circle class="st4" cx="220.6" cy="114.1" r="1.8"/>
	<circle class="st4" cx="214.9" cy="119.7" r="1.8"/>
	<circle class="st4" cx="229.7" cy="116.9" r="1.8"/>
	<circle class="st4" cx="212.8" cy="118.3" r="1.8"/>
	<circle class="st4" cx="213.5" cy="112.7" r="1.8"/>
	<circle class="st4" cx="219.9" cy="117.6" r="1.8"/>
	<circle class="st4" cx="222" cy="116.9" r="1.8"/>
	<circle class="st4" cx="226.2" cy="114.8" r="1.8"/>
	<path class="st7" d="M255.2,229c0,5.8-4.7,10.6-10.6,10.6c-5.8,0-10.6-4.7-10.6-10.6c0-5.8,4.7-10.6,10.6-10.6
		C250.5,218.5,255.2,223.2,255.2,229z"/>
	<path class="st8" d="M255.2,229c0,5.8-4.7,10.6-10.6,10.6c-5.8,0-10.6-4.7-10.6-10.6c0-5.8,4.7-10.6,10.6-10.6
		C250.5,218.5,255.2,223.2,255.2,229z"/>
	<path class="st7" d="M266.5,229c0,5.8-4.7,10.6-10.6,10.6c-5.8,0-10.6-4.7-10.6-10.6c0-5.8,4.7-10.6,10.6-10.6
		C261.7,218.5,266.5,223.2,266.5,229z"/>
	<path class="st8" d="M266.5,229c0,5.8-4.7,10.6-10.6,10.6c-5.8,0-10.6-4.7-10.6-10.6c0-5.8,4.7-10.6,10.6-10.6
		C261.7,218.5,266.5,223.2,266.5,229z"/>
	<circle class="st4" cx="254.5" cy="226.2" r="1.8"/>
	<circle class="st4" cx="243.9" cy="224.5" r="1.8"/>
	<circle class="st4" cx="261.5" cy="232.5" r="1.8"/>
	<circle class="st4" cx="263" cy="233.3" r="1.8"/>
	<circle class="st4" cx="242.2" cy="229" r="1.8"/>
	<circle class="st4" cx="257.3" cy="235.4" r="1.8"/>
	<path class="st9" d="M147.3,174.3c0,1.9-1.6,3.5-3.5,3.5c-1.9,0-3.5-1.6-3.5-3.5c0-1.9,1.6-3.5,3.5-3.5
		C145.8,170.7,147.3,172.3,147.3,174.3z"/>
	<path class="st10" d="M147.3,174.3c0,1.9-1.6,3.5-3.5,3.5c-1.9,0-3.5-1.6-3.5-3.5c0-1.9,1.6-3.5,3.5-3.5
		C145.8,170.7,147.3,172.3,147.3,174.3z"/>
	<path class="st11" d="M145.6,174.3c0,1-0.8,1.8-1.8,1.8c-1,0-1.8-0.8-1.8-1.8c0-1,0.8-1.8,1.8-1.8
		C144.8,172.5,145.6,173.3,145.6,174.3z"/>
	<path class="st12" d="M122.2,228.7c-1.2-6.9,0.3-12.9,3.3-13.4s6.5,4.6,7.7,11.5c1.2,6.9-0.3,12.9-3.3,13.4
		C126.9,240.7,123.4,235.6,122.2,228.7z"/>
	<path class="st13" d="M122.2,228.7c-1.2-6.9,0.3-12.9,3.3-13.4s6.5,4.6,7.7,11.5c1.2,6.9-0.3,12.9-3.3,13.4
		C126.9,240.7,123.4,235.6,122.2,228.7z"/>
	<path class="st4" d="M124.9,221.8c-0.2-1,0.5-1.9,1.4-2s1.9,0.5,2,1.4c0.2,1-0.5,1.9-1.4,2C126,223.4,125.1,222.7,124.9,221.8z"/>
	<path class="st4" d="M127,230c-0.2-1,0.5-1.9,1.4-2c1-0.2,1.9,0.5,2,1.4c0.2,1-0.5,1.9-1.4,2C128.1,231.6,127.2,230.9,127,230z"/>
	<path class="st4" d="M128,235.5c-0.2-1,0.5-1.9,1.4-2c1-0.2,1.9,0.5,2,1.4c0.2,1-0.5,1.9-1.4,2C129.1,237.1,128.2,236.5,128,235.5z
		"/>
	<path class="st4" d="M125.5,221c-0.2-1,0.5-1.9,1.4-2c1-0.2,1.9,0.5,2,1.4c0.2,1-0.5,1.9-1.4,2C126.5,222.6,125.6,221.9,125.5,221z
		"/>
	<path class="st4" d="M125.2,227.5c-0.2-1,0.5-1.9,1.4-2c1-0.2,1.9,0.5,2,1.4c0.2,1-0.5,1.9-1.4,2
		C126.2,229.1,125.3,228.4,125.2,227.5z"/>
	<path class="st4" d="M124.6,228.3c-0.2-1,0.5-1.9,1.4-2c1-0.2,1.9,0.5,2,1.4c0.2,1-0.5,1.9-1.4,2
		C125.7,229.9,124.8,229.2,124.6,228.3z"/>
	<path class="st4" d="M127.2,235c-0.2-1,0.5-1.9,1.4-2c1-0.2,1.9,0.5,2,1.4c0.2,1-0.5,1.9-1.4,2C128.3,236.6,127.4,235.9,127.2,235z
		"/>
	<circle class="st14" cx="257.3" cy="277.8" r="3.5"/>
	<circle class="st15" cx="257.3" cy="277.8" r="3.5"/>
	<circle class="st11" cx="257.3" cy="277.8" r="1.8"/>
	<path class="st16" d="M235,180.3c0,6.6-4.6,12-10.2,12c-5.6,0-10.2-5.4-10.2-12c0-6.6,4.6-12,10.2-12
		C230.4,168.4,235,173.7,235,180.3z"/>
	<path class="st17" d="M235,180.3c0,6.6-4.6,12-10.2,12c-5.6,0-10.2-5.4-10.2-12c0-6.6,4.6-12,10.2-12
		C230.4,168.4,235,173.7,235,180.3z"/>
	<path class="st4" d="M229.4,180.3c0,1-0.8,1.8-1.8,1.8c-1,0-1.8-0.8-1.8-1.8c0-1,0.8-1.8,1.8-1.8
		C228.6,178.6,229.4,179.4,229.4,180.3z"/>
	<path class="st4" d="M220.9,186.7c0,1-0.8,1.8-1.8,1.8c-1,0-1.8-0.8-1.8-1.8c0-1,0.8-1.8,1.8-1.8
		C220.1,184.9,220.9,185.7,220.9,186.7z"/>
	<path class="st4" d="M230.1,180.3c0,1-0.8,1.8-1.8,1.8c-1,0-1.8-0.8-1.8-1.8c0-1,0.8-1.8,1.8-1.8
		C229.3,178.6,230.1,179.4,230.1,180.3z"/>
	<path class="st4" d="M225.9,184.6c0,1-0.8,1.8-1.8,1.8c-1,0-1.8-0.8-1.8-1.8c0-1,0.8-1.8,1.8-1.8
		C225.1,182.8,225.9,183.6,225.9,184.6z"/>
	<path class="st4" d="M223,176.8c0,1-0.8,1.8-1.8,1.8c-1,0-1.8-0.8-1.8-1.8c0-1,0.8-1.8,1.8-1.8C222.2,175.1,223,175.8,223,176.8z"
		/>
	<path class="st4" d="M221.6,180.3c0,1-0.8,1.8-1.8,1.8c-1,0-1.8-0.8-1.8-1.8c0-1,0.8-1.8,1.8-1.8
		C220.8,178.6,221.6,179.4,221.6,180.3z"/>
	<path class="st4" d="M224.4,187.4c0,1-0.8,1.8-1.8,1.8c-1,0-1.8-0.8-1.8-1.8c0-1,0.8-1.8,1.8-1.8
		C223.7,185.6,224.4,186.4,224.4,187.4z"/>
	<path class="st18" d="M145.1,117.5c3.5,8.2,2.6,16.5-2.1,18.5c-4.7,2-11.3-3.1-14.7-11.3c-3.5-8.2-2.6-16.5,2.1-18.5
		C135,104.2,141.6,109.3,145.1,117.5z"/>
	<path class="st19" d="M145.1,117.5c3.5,8.2,2.6,16.5-2.1,18.5c-4.7,2-11.3-3.1-14.7-11.3c-3.5-8.2-2.6-16.5,2.1-18.5
		C135,104.2,141.6,109.3,145.1,117.5z"/>
	<path class="st4" d="M147.2,128.9c0.4,0.9,0,1.9-0.9,2.3c-0.9,0.4-1.9,0-2.3-0.9c-0.4-0.9,0-1.9,0.9-2.3
		C145.8,127.5,146.8,128,147.2,128.9z"/>
	<path class="st4" d="M136.3,126.6c0.4,0.9,0,1.9-0.9,2.3c-0.9,0.4-1.9,0-2.3-0.9c-0.4-0.9,0-1.9,0.9-2.3
		C134.9,125.3,135.9,125.7,136.3,126.6z"/>
	<path class="st4" d="M145,129c0.4,0.9,0,1.9-0.9,2.3c-0.9,0.4-1.9,0-2.3-0.9c-0.4-0.9,0-1.9,0.9-2.3
		C143.6,127.7,144.6,128.1,145,129z"/>
	<path class="st4" d="M138,125.1c0.4,0.9,0,1.9-0.9,2.3c-0.9,0.4-1.9,0-2.3-0.9c-0.4-0.9,0-1.9,0.9-2.3
		C136.6,123.8,137.6,124.2,138,125.1z"/>
	<path class="st4" d="M137.9,132.1c0.4,0.9,0,1.9-0.9,2.3c-0.9,0.4-1.9,0-2.3-0.9c-0.4-0.9,0-1.9,0.9-2.3
		C136.5,130.7,137.5,131.2,137.9,132.1z"/>
	<path class="st4" d="M133,118.8c0.4,0.9,0,1.9-0.9,2.3c-0.9,0.4-1.9,0-2.3-0.9c-0.4-0.9,0-1.9,0.9-2.3
		C131.6,117.5,132.6,117.9,133,118.8z"/>
	<path class="st4" d="M130.8,113.6c0.4,0.9,0,1.9-0.9,2.3c-0.9,0.4-1.9,0-2.3-0.9c-0.4-0.9,0-1.9,0.9-2.3
		C129.4,112.3,130.4,112.7,130.8,113.6z"/>
	<path class="st20" d="M183,135c0,1.9-1.6,3.5-3.5,3.5c-1.9,0-3.5-1.6-3.5-3.5c0-1.9,1.6-3.5,3.5-3.5C181.4,131.5,183,133.1,183,135
		z"/>
	<path class="st21" d="M183,135c0,1.9-1.6,3.5-3.5,3.5c-1.9,0-3.5-1.6-3.5-3.5c0-1.9,1.6-3.5,3.5-3.5C181.4,131.5,183,133.1,183,135
		z"/>
	<circle class="st11" cx="179.5" cy="135" r="1.8"/>
	<path class="st22" d="M61.8,84c5.3,2.5,7.6,8.7,5.1,14c-2.5,5.3-8.7,7.6-14,5.1c-5.3-2.5-7.6-8.7-5.1-14S56.6,81.5,61.8,84z"/>
	<path class="st23" d="M61.8,84c5.3,2.5,7.6,8.7,5.1,14c-2.5,5.3-8.7,7.6-14,5.1c-5.3-2.5-7.6-8.7-5.1-14S56.6,81.5,61.8,84z"/>
	<circle class="st4" cx="58.8" cy="88.2" r="1.8"/>
	<path class="st4" d="M61.9,93.7c0.9,0.4,1.3,1.5,0.9,2.3s-1.5,1.3-2.3,0.9c-0.9-0.4-1.3-1.5-0.9-2.3C60,93.7,61.1,93.3,61.9,93.7z"
		/>
	<path class="st4" d="M59.6,98.8c0.9,0.4,1.3,1.5,0.9,2.3c-0.4,0.9-1.5,1.3-2.3,0.9c-0.9-0.4-1.3-1.5-0.9-2.3
		C57.6,98.8,58.7,98.4,59.6,98.8z"/>
	<path class="st4" d="M50.6,93.1c0.9,0.4,1.3,1.5,0.9,2.3s-1.5,1.3-2.3,0.9s-1.3-1.5-0.9-2.3C48.7,93.1,49.7,92.7,50.6,93.1z"/>
	<path class="st4" d="M58,98.9c0.9,0.4,1.3,1.5,0.9,2.3c-0.4,0.9-1.5,1.3-2.3,0.9c-0.9-0.4-1.3-1.5-0.9-2.3
		C56.1,98.9,57.1,98.5,58,98.9z"/>
	<path class="st4" d="M64.7,88.3c0.9,0.4,1.3,1.5,0.9,2.3c-0.4,0.9-1.5,1.3-2.3,0.9c-0.9-0.4-1.3-1.5-0.9-2.3
		C62.8,88.3,63.9,87.9,64.7,88.3z"/>
	<path class="st4" d="M52.5,92.4c0.9,0.4,1.3,1.5,0.9,2.3c-0.4,0.9-1.5,1.3-2.3,0.9c-0.9-0.4-1.3-1.5-0.8-2.3
		C50.5,92.4,51.6,92,52.5,92.4z"/>
	<path class="st24" d="M273.3,87.3c0,6.8-6.5,12.3-14.4,12.3c-8,0-14.4-5.5-14.4-12.3c0-6.8,6.5-12.3,14.4-12.3
		C266.9,75,273.3,80.5,273.3,87.3z"/>
	<path class="st25" d="M273.3,87.3c0,6.8-6.5,12.3-14.4,12.3c-8,0-14.4-5.5-14.4-12.3c0-6.8,6.5-12.3,14.4-12.3
		C266.9,75,273.3,80.5,273.3,87.3z"/>
	<path class="st4" d="M252.9,93.7c0,1-0.8,1.8-1.8,1.8c-1,0-1.8-0.8-1.8-1.8c0-1,0.8-1.8,1.8-1.8C252.1,91.9,252.9,92.7,252.9,93.7z
		"/>
	<path class="st4" d="M264.9,80.3c0,1-0.8,1.8-1.8,1.8c-1,0-1.8-0.8-1.8-1.8s0.8-1.8,1.8-1.8C264.1,78.5,264.9,79.3,264.9,80.3z"/>
	<path class="st4" d="M257.5,85.8c0,1-0.8,1.8-1.8,1.8c-1,0-1.8-0.8-1.8-1.8s0.8-1.8,1.8-1.8C256.7,84.1,257.5,84.8,257.5,85.8z"/>
	<path class="st4" d="M264.5,88.1c0,1-0.8,1.8-1.8,1.8c-1,0-1.8-0.8-1.8-1.8s0.8-1.8,1.8-1.8C263.7,86.3,264.5,87.1,264.5,88.1z"/>
	<path class="st4" d="M262.8,79.6c0,1-0.8,1.8-1.8,1.8c-1,0-1.8-0.8-1.8-1.8s0.8-1.8,1.8-1.8C262,77.8,262.8,78.6,262.8,79.6z"/>
	<path class="st4" d="M269,83.1c0,1-0.8,1.8-1.8,1.8c-1,0-1.8-0.8-1.8-1.8s0.8-1.8,1.8-1.8C268.3,81.3,269,82.1,269,83.1z"/>
	<path class="st26" d="M91.6,245.8c0.2-7,2-12.6,4-12.5c1.9,0.1,3.3,5.8,3.1,12.8c-0.2,7-2,12.6-4,12.5
		C92.8,258.5,91.4,252.8,91.6,245.8z"/>
	<path class="st27" d="M91.6,245.8c0.2-7,2-12.6,4-12.5c1.9,0.1,3.3,5.8,3.1,12.8c-0.2,7-2,12.6-4,12.5
		C92.8,258.5,91.4,252.8,91.6,245.8z"/>
	<path class="st4" d="M93.5,242.3c0-1,0.8-1.7,1.8-1.7c1,0,1.7,0.9,1.7,1.8c0,1-0.8,1.7-1.8,1.7S93.5,243.3,93.5,242.3z"/>
	<path class="st4" d="M93.3,248.6c0-1,0.9-1.7,1.8-1.7c1,0,1.7,0.8,1.7,1.8c0,1-0.9,1.7-1.8,1.7C94,250.4,93.3,249.6,93.3,248.6z"/>
	<path class="st4" d="M93.4,245.1c0-1,0.8-1.7,1.8-1.7c1,0,1.7,0.9,1.7,1.8c0,1-0.9,1.7-1.8,1.7C94.1,246.9,93.4,246.1,93.4,245.1z"
		/>
	<path class="st4" d="M93.7,237.4c0-1,0.9-1.7,1.8-1.7c1,0,1.7,0.8,1.7,1.8c0,1-0.9,1.7-1.8,1.7C94.4,239.2,93.6,238.4,93.7,237.4z"
		/>
	<path class="st4" d="M93.1,253.6c0-1,0.9-1.7,1.8-1.7c1,0,1.7,0.9,1.7,1.8c0,1-0.9,1.7-1.8,1.7C93.8,255.4,93.1,254.5,93.1,253.6z"
		/>
	<path class="st4" d="M93.5,242.3c0-1,0.8-1.7,1.8-1.7c1,0,1.7,0.9,1.7,1.8c0,1-0.8,1.7-1.8,1.7S93.5,243.3,93.5,242.3z"/>
	<path class="st4" d="M93.6,238.8c0-1,0.9-1.7,1.8-1.7c1,0,1.7,0.8,1.7,1.8c0,1-0.9,1.7-1.8,1.7C94.3,240.6,93.6,239.8,93.6,238.8z"
		/>
	<circle class="st28" cx="180.1" cy="204.5" r="3.5"/>
	<circle class="st29" cx="180.1" cy="204.5" r="3.5"/>
	<circle class="st11" cx="180.1" cy="204.5" r="1.8"/>
	<circle class="st30" cx="160.1" cy="257.1" r="3.5"/>
	<circle class="st31" cx="160.1" cy="257.1" r="3.5"/>
	<circle class="st11" cx="160.1" cy="257.1" r="1.8"/>
	<path class="st32" d="M85,136.4c0,5.8-4.7,10.6-10.6,10.6s-10.6-4.7-10.6-10.6c0-5.8,4.7-10.6,10.6-10.6S85,130.6,85,136.4z"/>
	<path class="st33" d="M85,136.4c0,5.8-4.7,10.6-10.6,10.6s-10.6-4.7-10.6-10.6c0-5.8,4.7-10.6,10.6-10.6S85,130.6,85,136.4z"/>
	<path class="st32" d="M96.3,136.4c0,5.8-4.7,10.6-10.6,10.6c-5.8,0-10.6-4.7-10.6-10.6c0-5.8,4.7-10.6,10.6-10.6
		C91.5,125.9,96.3,130.6,96.3,136.4z"/>
	<path class="st33" d="M96.3,136.4c0,5.8-4.7,10.6-10.6,10.6c-5.8,0-10.6-4.7-10.6-10.6c0-5.8,4.7-10.6,10.6-10.6
		C91.5,125.9,96.3,130.6,96.3,136.4z"/>
	<circle class="st4" cx="72.3" cy="135.7" r="1.8"/>
	<circle class="st4" cx="82.9" cy="137.8" r="1.8"/>
	<circle class="st4" cx="80.1" cy="136.4" r="1.8"/>
	<circle class="st4" cx="92.7" cy="140.6" r="1.8"/>
	<circle class="st4" cx="91.3" cy="140.6" r="1.8"/>
	<circle class="st4" cx="74.5" cy="139.9" r="1.8"/>
	<circle class="st4" cx="74.5" cy="135.7" r="1.8"/>
	<circle class="st4" cx="70.9" cy="139.9" r="1.8"/>
	<circle class="st4" cx="80.8" cy="136.4" r="1.8"/>
	<circle class="st4" cx="80.8" cy="137.1" r="1.8"/>
	<circle class="st4" cx="80.1" cy="139.2" r="1.8"/>
	<path class="st34" d="M272.3,165.8c-3.7-4.5-3.2-11.1,1.3-14.9c4.5-3.7,11.1-3.2,14.9,1.3c3.7,4.5,3.2,11.1-1.3,14.9
		C282.7,170.8,276.1,170.3,272.3,165.8z"/>
	<path class="st35" d="M272.3,165.8c-3.7-4.5-3.2-11.1,1.3-14.9c4.5-3.7,11.1-3.2,14.9,1.3c3.7,4.5,3.2,11.1-1.3,14.9
		C282.7,170.8,276.1,170.3,272.3,165.8z"/>
	<path class="st34" d="M263.7,173c-3.8-4.5-3.2-11.1,1.3-14.9c4.5-3.8,11.1-3.2,14.9,1.3c3.7,4.5,3.2,11.1-1.3,14.9
		C274.1,178.1,267.4,177.5,263.7,173z"/>
	<path class="st35" d="M263.7,173c-3.8-4.5-3.2-11.1,1.3-14.9c4.5-3.8,11.1-3.2,14.9,1.3c3.7,4.5,3.2,11.1-1.3,14.9
		C274.1,178.1,267.4,177.5,263.7,173z"/>
	<path class="st4" d="M266,166.5c-0.6-0.7-0.5-1.9,0.2-2.5c0.7-0.6,1.9-0.5,2.5,0.2c0.6,0.7,0.5,1.9-0.2,2.5
		C267.8,167.3,266.6,167.2,266,166.5z"/>
	<path class="st4" d="M272.7,159.1c-0.6-0.7-0.5-1.9,0.2-2.5c0.7-0.6,1.9-0.5,2.5,0.2c0.6,0.7,0.5,1.9-0.2,2.5
		C274.4,159.9,273.3,159.8,272.7,159.1z"/>
	<path class="st4" d="M267.4,173.6c-0.6-0.7-0.5-1.9,0.2-2.5c0.7-0.6,1.9-0.5,2.5,0.2c0.6,0.7,0.5,1.9-0.2,2.5
		C269.1,174.5,268,174.4,267.4,173.6z"/>
	<path class="st4" d="M274.3,168.7c-0.6-0.7-0.5-1.9,0.2-2.5c0.7-0.6,1.9-0.5,2.5,0.2c0.6,0.7,0.5,1.9-0.2,2.5
		C276.1,169.6,274.9,169.5,274.3,168.7z"/>
	<path class="st4" d="M277.4,168c-0.6-0.7-0.5-1.9,0.2-2.5c0.7-0.6,1.9-0.5,2.5,0.2c0.6,0.7,0.5,1.9-0.2,2.5
		C279.1,168.8,278,168.7,277.4,168z"/>
	<path class="st36" d="M61.2,272.5c-5.5,2-11.5-0.8-13.5-6.3c-2-5.5,0.8-11.5,6.3-13.5c5.5-2,11.5,0.8,13.5,6.3
		C69.5,264.5,66.7,270.5,61.2,272.5z"/>
	<path class="st37" d="M61.2,272.5c-5.5,2-11.5-0.8-13.5-6.3c-2-5.5,0.8-11.5,6.3-13.5c5.5-2,11.5,0.8,13.5,6.3
		C69.5,264.5,66.7,270.5,61.2,272.5z"/>
	<path class="st36" d="M65,283.1c-5.5,2-11.5-0.8-13.5-6.3c-2-5.5,0.8-11.5,6.3-13.5c5.5-2,11.5,0.8,13.5,6.3
		C73.3,275.1,70.5,281.1,65,283.1z"/>
	<path class="st37" d="M65,283.1c-5.5,2-11.5-0.8-13.5-6.3c-2-5.5,0.8-11.5,6.3-13.5c5.5-2,11.5,0.8,13.5,6.3
		C73.3,275.1,70.5,281.1,65,283.1z"/>
	<path class="st4" d="M58.9,260.2c-0.9,0.3-1.9-0.1-2.3-1c-0.3-0.9,0.1-1.9,1.1-2.3c0.9-0.3,1.9,0.1,2.3,1
		C60.3,258.9,59.9,259.9,58.9,260.2z"/>
	<path class="st4" d="M51,263.1c-0.9,0.3-1.9-0.1-2.3-1.1c-0.3-0.9,0.1-1.9,1.1-2.3c0.9-0.3,1.9,0.1,2.3,1
		C52.4,261.8,51.9,262.8,51,263.1z"/>
	<path class="st4" d="M63.6,275c-0.9,0.3-1.9-0.1-2.3-1c-0.3-0.9,0.1-1.9,1-2.3c0.9-0.3,1.9,0.1,2.3,1.1
		C65,273.7,64.5,274.7,63.6,275z"/>
	<path class="st4" d="M58.8,272.3c-0.9,0.3-1.9-0.1-2.3-1c-0.3-0.9,0.1-1.9,1-2.3c0.9-0.3,1.9,0.1,2.3,1.1
		C60.2,270.9,59.7,271.9,58.8,272.3z"/>
	<path class="st4" d="M62.8,270.8c-0.9,0.3-1.9-0.1-2.3-1c-0.3-0.9,0.1-1.9,1.1-2.3c0.9-0.3,1.9,0.1,2.3,1.1
		C64.2,269.5,63.7,270.5,62.8,270.8z"/>
	<path class="st4" d="M55.9,270.3c-0.9,0.3-1.9-0.1-2.3-1.1c-0.3-0.9,0.1-1.9,1-2.3s1.9,0.1,2.3,1C57.3,269,56.8,270,55.9,270.3z"/>
	<path class="st38" d="M202.5,268.8c-4-4.2-4.7-10.1-1.5-13.2c3.2-3.1,9.1-2.2,13.2,2c4,4.2,4.7,10.1,1.5,13.2
		C212.5,273.9,206.6,273,202.5,268.8z"/>
	<path class="st39" d="M202.5,268.8c-4-4.2-4.7-10.1-1.5-13.2c3.2-3.1,9.1-2.2,13.2,2c4,4.2,4.7,10.1,1.5,13.2
		C212.5,273.9,206.6,273,202.5,268.8z"/>
	<path class="st4" d="M209,270.7c-0.7-0.7-0.7-1.8,0-2.5c0.7-0.7,1.8-0.7,2.5,0c0.7,0.7,0.7,1.8,0,2.5
		C210.8,271.4,209.7,271.4,209,270.7z"/>
	<path class="st4" d="M207.7,260c-0.7-0.7-0.7-1.8,0-2.5c0.7-0.7,1.8-0.7,2.5,0c0.7,0.7,0.7,1.8,0,2.5
		C209.4,260.7,208.3,260.7,207.7,260z"/>
	<path class="st4" d="M205.6,265.9c-0.7-0.7-0.7-1.8,0-2.5c0.7-0.7,1.8-0.7,2.5,0c0.7,0.7,0.7,1.8,0,2.5
		C207.3,266.6,206.2,266.6,205.6,265.9z"/>
	<path class="st4" d="M204.2,260.4c-0.7-0.7-0.7-1.8,0-2.5c0.7-0.7,1.8-0.7,2.5,0c0.7,0.7,0.7,1.8,0,2.5
		C206,261.1,204.8,261.1,204.2,260.4z"/>
	<path class="st4" d="M209,266.5c-0.7-0.7-0.7-1.8,0-2.5c0.7-0.7,1.8-0.7,2.5,0c0.7,0.7,0.7,1.8,0,2.5
		C210.8,267.2,209.7,267.2,209,266.5z"/>
	<path class="st40" d="M44.1,211.3c-3.7-4.5-3.2-11.1,1.3-14.9c4.5-3.7,11.1-3.2,14.9,1.3c3.8,4.5,3.2,11.1-1.3,14.9
		C54.5,216.3,47.9,215.7,44.1,211.3z"/>
	<path class="st41" d="M44.1,211.3c-3.7-4.5-3.2-11.1,1.3-14.9c4.5-3.7,11.1-3.2,14.9,1.3c3.8,4.5,3.2,11.1-1.3,14.9
		C54.5,216.3,47.9,215.7,44.1,211.3z"/>
	<path class="st40" d="M35.5,218.5c-3.8-4.5-3.2-11.1,1.3-14.9c4.5-3.8,11.1-3.2,14.9,1.3c3.7,4.5,3.2,11.1-1.3,14.9
		C45.9,223.5,39.2,223,35.5,218.5z"/>
	<path class="st41" d="M35.5,218.5c-3.8-4.5-3.2-11.1,1.3-14.9c4.5-3.8,11.1-3.2,14.9,1.3c3.7,4.5,3.2,11.1-1.3,14.9
		C45.9,223.5,39.2,223,35.5,218.5z"/>
	<path class="st4" d="M45.1,203.1c-0.6-0.7-0.5-1.9,0.2-2.5c0.7-0.6,1.9-0.5,2.5,0.2c0.6,0.7,0.5,1.9-0.2,2.5
		C46.8,203.9,45.7,203.8,45.1,203.1z"/>
	<path class="st4" d="M48.1,202.4c-0.6-0.7-0.5-1.9,0.2-2.5c0.7-0.6,1.9-0.5,2.5,0.2s0.5,1.9-0.2,2.5
		C49.9,203.2,48.8,203.1,48.1,202.4z"/>
	<path class="st4" d="M59.3,205.8c-0.6-0.7-0.5-1.9,0.2-2.5c0.7-0.6,1.9-0.5,2.5,0.2c0.6,0.7,0.5,1.9-0.2,2.5
		C61.1,206.7,60,206.6,59.3,205.8z"/>
	<path class="st4" d="M43.2,212.9c-0.6-0.7-0.5-1.9,0.2-2.5c0.7-0.6,1.9-0.5,2.5,0.2c0.6,0.7,0.5,1.9-0.2,2.5
		C45,213.8,43.9,213.7,43.2,212.9z"/>
	<path class="st4" d="M36.8,211.9c-0.6-0.7-0.5-1.9,0.2-2.5c0.7-0.6,1.9-0.5,2.5,0.2c0.6,0.7,0.5,1.9-0.2,2.5
		C38.6,212.7,37.5,212.6,36.8,211.9z"/>
	<path class="st4" d="M39.5,209.6c-0.6-0.7-0.5-1.9,0.2-2.5c0.7-0.6,1.9-0.5,2.5,0.2c0.6,0.7,0.5,1.9-0.2,2.5
		C41.3,210.4,40.1,210.4,39.5,209.6z"/>
	<path class="st4" d="M50.7,207.6c-0.6-0.7-0.5-1.9,0.2-2.5c0.7-0.6,1.9-0.5,2.5,0.2c0.6,0.7,0.5,1.9-0.2,2.5
		C52.4,208.4,51.3,208.3,50.7,207.6z"/>
	<path class="st4" d="M48.9,199.9c-0.6-0.7-0.5-1.9,0.2-2.5c0.7-0.6,1.9-0.5,2.5,0.2c0.6,0.7,0.5,1.9-0.2,2.5
		C50.6,200.8,49.5,200.7,48.9,199.9z"/>
	<circle class="st42" cx="83.6" cy="182.1" r="3.5"/>
	<circle class="st43" cx="83.6" cy="182.1" r="3.5"/>
	<circle class="st11" cx="83.6" cy="182.1" r="1.8"/>
</g>
<g id="guides">
</g>
</svg>
