<?xml version="1.0" encoding="utf-8"?>
<!-- Generator: Adobe Illustrator 19.1.0, SVG Export Plug-In . SVG Version: 6.00 Build 0)  -->
<!DOCTYPE svg PUBLIC "-//W3C//DTD SVG 1.1//EN" "http://www.w3.org/Graphics/SVG/1.1/DTD/svg11.dtd">
<svg version="1.1" id="Layer_1" xmlns="http://www.w3.org/2000/svg" xmlns:xlink="http://www.w3.org/1999/xlink" x="0px" y="0px"
	 viewBox="-669 413 337 75" style="enable-background:new -669 413 337 75;" xml:space="preserve">
<style type="text/css">
	.st0{fill:#B2B2B2;}
</style>
<path class="st0" d="M-664.5,451.2l36.5,36.5c0.4,0.4,1,0.4,1.4,0c0.4-0.4,0.4-1,0-1.4l-35.8-35.8l35.8-35.8c0.4-0.4,0.4-1,0-1.4
	c-0.2-0.2-0.5-0.3-0.7-0.3s-0.5,0.1-0.7,0.3l-36.5,36.5C-664.9,450.2-664.9,450.8-664.5,451.2z"/>
<path class="st0" d="M-647.1,451.2l36.5,36.5c0.4,0.4,1,0.4,1.4,0c0.4-0.4,0.4-1,0-1.4l-35.8-35.8l35.8-35.8c0.4-0.4,0.4-1,0-1.4
	c-0.2-0.2-0.5-0.3-0.7-0.3s-0.5,0.1-0.7,0.3l-36.5,36.5C-647.5,450.2-647.5,450.8-647.1,451.2z"/>
<path class="st0" d="M-565.1,488h-23v-75h20.4c11.4,0,23.2,3.9,23.2,17.7c0,10.7-7.5,15.8-15.3,17.5v0.2c7.6,0.7,18.7,6.3,18.7,19.6
	C-540.9,484-554.5,488-565.1,488z M-568.3,415.1h-17.5v32.3h18c10.3,0,21-4.9,21-16.4C-546.8,418.8-557,415.1-568.3,415.1z
	 M-565,449.5h-20.8v36.3h19.6c13.1,0,22.9-5.2,22.9-17.6C-543.3,454.6-555.4,449.5-565,449.5z"/>
<path class="st0" d="M-470.7,488l-8.9-21.5h-43.5l-9.2,21.5h-2.5l32.5-75h3l31.2,75H-470.7z M-501,414.5l-21.3,50h41.9L-501,414.5z"
	/>
<path class="st0" d="M-427.5,488c-21.3,0-36.2-15.7-36.2-37.5c0-21.8,15-37.5,36.2-37.5c8.8,0,17.7,3,23.6,9.1l-1.4,1.6
	c-5.6-6-14.6-8.7-22.2-8.7c-20.3,0-34,15.7-34,35.5c0,19.7,13.4,35.5,34,35.5c8.7,0,18.2-3.5,23.8-10.2l1.6,1.5
	C-408,484.5-418,488-427.5,488z"/>
<path class="st0" d="M-384.3,447.4l37.7-34.4h3.4l-38.1,34.4l40,40.6h-3.3l-39.7-40.4h-0.1V488h-2.3v-75h2.3v34.4H-384.3z"/>
</svg>
