<?xml version="1.0" encoding="utf-8"?>
<!-- Generator: Adobe Illustrator 19.1.0, SVG Export Plug-In . SVG Version: 6.00 Build 0)  -->
<!DOCTYPE svg PUBLIC "-//W3C//DTD SVG 1.1//EN" "http://www.w3.org/Graphics/SVG/1.1/DTD/svg11.dtd">
<svg version="1.1" id="Layer_1" xmlns="http://www.w3.org/2000/svg" xmlns:xlink="http://www.w3.org/1999/xlink" x="0px" y="0px"
	 viewBox="0 0 102.5 126.7" style="enable-background:new 0 0 102.5 126.7;" xml:space="preserve">
<style type="text/css">
	.st0{fill:none;stroke:#F6F6F6;stroke-miterlimit:10;}
	.st1{fill:none;stroke:#F6F6F6;stroke-miterlimit:10;stroke-dasharray:9.950021e-03,0;}
	.st2{fill:none;stroke:#F6F6F6;stroke-miterlimit:10;stroke-dasharray:2.985,2.9751,9.950021e-03,0;}
	.st3{fill:none;stroke:#F6F6F6;stroke-miterlimit:10;stroke-dasharray:9.950029e-03,0;}
	.st4{fill:none;stroke:#F6F6F6;stroke-miterlimit:10;stroke-dasharray:2.985,2.9751,9.950029e-03,0;}
</style>
<polygon class="st0" points="51.3,126.7 102.5,63.4 51.3,0 51.3,0 51.3,0 51.3,0 51.3,0 0,63.4 51.3,126.7 51.3,126.7 51.3,126.7 
	51.3,126.7 "/>
<g>
	<g>
		<polyline class="st0" points="95.4,64.5 96.3,63.4 95.4,62.2 		"/>
		<line class="st1" x1="93.5" y1="59.9" x2="93.5" y2="59.9"/>
		<line class="st2" x1="93.5" y1="59.9" x2="52.2" y2="8.8"/>
		<polyline class="st0" points="52.2,8.8 51.3,7.7 51.3,7.7 51.3,7.7 51.3,7.7 51.3,7.7 50.3,8.8 		"/>
		<line class="st3" x1="48.5" y1="11.1" x2="48.4" y2="11.1"/>
		<line class="st4" x1="48.4" y1="11.1" x2="7.1" y2="62.2"/>
		<polyline class="st0" points="7.1,62.2 6.2,63.4 7.1,64.5 		"/>
		<line class="st3" x1="9" y1="66.8" x2="9" y2="66.8"/>
		<line class="st4" x1="9" y1="66.8" x2="50.3" y2="117.9"/>
		<polyline class="st0" points="50.3,117.9 51.3,119.1 51.3,119.1 51.3,119.1 51.3,119.1 51.3,119.1 52.2,117.9 		"/>
		<line class="st1" x1="54.1" y1="115.6" x2="54.1" y2="115.6"/>
		<line class="st2" x1="54.1" y1="115.6" x2="95.4" y2="64.5"/>
	</g>
</g>
<polyline class="st0" points="30.1,73.1 51.3,99.2 51.3,27.5 "/>
<line class="st0" x1="44.2" y1="66.6" x2="58.4" y2="66.6"/>
<line class="st0" x1="44.2" y1="60.1" x2="58.4" y2="60.1"/>
</svg>
