<?xml version="1.0" encoding="utf-8"?>
<!-- Generator: Adobe Illustrator 19.1.0, SVG Export Plug-In . SVG Version: 6.00 Build 0)  -->
<!DOCTYPE svg PUBLIC "-//W3C//DTD SVG 1.1//EN" "http://www.w3.org/Graphics/SVG/1.1/DTD/svg11.dtd">
<svg version="1.1" id="Layer_1" xmlns="http://www.w3.org/2000/svg" xmlns:xlink="http://www.w3.org/1999/xlink" x="0px" y="0px"
	 viewBox="0 0 200 90" style="enable-background:new 0 0 200 90;" xml:space="preserve">
<style type="text/css">
	.st0{fill:none;stroke:#B3B2B2;stroke-width:0.5;stroke-miterlimit:10;}
	.st1{clip-path:url(#SVGID_2_);}
	.st2{clip-path:url(#SVGID_4_);}
</style>
<g>
	<polygon class="st0" points="0,0 200,0 100,90 	"/>
	<line class="st0" x1="100" y1="90" x2="100" y2="0"/>
	<g>
		<defs>
			<polygon id="SVGID_1_" points="100,0 100,90 0,0 			"/>
		</defs>
		<clipPath id="SVGID_2_">
			<use xlink:href="#SVGID_1_"  style="overflow:visible;"/>
		</clipPath>
		<g class="st1">
			<line class="st0" x1="12.5" y1="155.7" x2="228.5" y2="48"/>
			<line class="st0" x1="9.4" y1="146.3" x2="225.4" y2="38.5"/>
			<line class="st0" x1="6.2" y1="143.1" x2="222.3" y2="35.4"/>
			<line class="st0" x1="3.1" y1="140" x2="219.2" y2="32.3"/>
			<line class="st0" x1="0" y1="143.2" x2="216" y2="35.5"/>
			<line class="st0" x1="-3.1" y1="140.1" x2="212.9" y2="32.4"/>
			<line class="st0" x1="-6.3" y1="137" x2="209.8" y2="29.3"/>
			<line class="st0" x1="-9.4" y1="133.8" x2="206.6" y2="26.1"/>
			<line class="st0" x1="-12.5" y1="130.7" x2="203.5" y2="23"/>
			<line class="st0" x1="-15.6" y1="127.6" x2="200.4" y2="19.9"/>
			<line class="st0" x1="-18.8" y1="124.5" x2="197.3" y2="16.7"/>
			<line class="st0" x1="-21.9" y1="121.3" x2="194.1" y2="13.6"/>
			<line class="st0" x1="-25" y1="118.2" x2="191" y2="10.5"/>
			<line class="st0" x1="-28.1" y1="115.1" x2="187.9" y2="7.4"/>
			<line class="st0" x1="-31.3" y1="112" x2="184.8" y2="4.2"/>
			<line class="st0" x1="-34.4" y1="108.8" x2="181.6" y2="1.1"/>
			<line class="st0" x1="-37.5" y1="105.7" x2="178.5" y2="-2"/>
			<line class="st0" x1="-40.6" y1="102.6" x2="175.4" y2="-5.1"/>
			<line class="st0" x1="-43.8" y1="99.5" x2="172.3" y2="-8.3"/>
			<line class="st0" x1="-46.9" y1="96.3" x2="169.1" y2="-11.4"/>
			<line class="st0" x1="-50" y1="93.2" x2="166" y2="-14.5"/>
			<line class="st0" x1="-53.1" y1="90.1" x2="162.9" y2="-17.6"/>
			<line class="st0" x1="-56.3" y1="87" x2="159.8" y2="-20.8"/>
			<line class="st0" x1="-59.4" y1="83.8" x2="156.6" y2="-23.9"/>
			<line class="st0" x1="-62.5" y1="80.7" x2="153.5" y2="-27"/>
			<line class="st0" x1="-65.6" y1="77.6" x2="150.4" y2="-30.1"/>
			<line class="st0" x1="-68.8" y1="74.5" x2="147.3" y2="-33.3"/>
			<line class="st0" x1="-71.9" y1="71.3" x2="144.1" y2="-36.4"/>
			<line class="st0" x1="-75" y1="68.2" x2="141" y2="-39.5"/>
			<line class="st0" x1="-78.1" y1="65.1" x2="137.9" y2="-42.6"/>
			<line class="st0" x1="-81.3" y1="62" x2="134.8" y2="-45.8"/>
			<line class="st0" x1="-84.4" y1="58.8" x2="131.6" y2="-48.9"/>
			<line class="st0" x1="-87.5" y1="55.7" x2="128.5" y2="-52"/>
			<line class="st0" x1="-90.6" y1="52.6" x2="125.4" y2="-55.1"/>
			<line class="st0" x1="-93.8" y1="49.5" x2="122.3" y2="-58.3"/>
			<line class="st0" x1="-96.9" y1="46.3" x2="119.1" y2="-61.4"/>
		</g>
	</g>
	<g>
		<defs>
			<polygon id="SVGID_3_" points="100,90 200,0 100,0 			"/>
		</defs>
		<clipPath id="SVGID_4_">
			<use xlink:href="#SVGID_3_"  style="overflow:visible;"/>
		</clipPath>
		<g class="st2">
			<line class="st0" x1="27.8" y1="89.8" x2="256.9" y2="165.5"/>
			<line class="st0" x1="27.7" y1="79" x2="256.9" y2="154.8"/>
			<line class="st0" x1="27.7" y1="74.6" x2="256.9" y2="150.4"/>
			<line class="st0" x1="27.7" y1="70.2" x2="256.9" y2="146"/>
			<line class="st0" x1="27.7" y1="65.8" x2="256.9" y2="141.5"/>
			<line class="st0" x1="27.7" y1="67.7" x2="256.9" y2="143.4"/>
			<line class="st0" x1="27.7" y1="63.3" x2="256.8" y2="139"/>
			<line class="st0" x1="27.6" y1="58.8" x2="256.8" y2="134.6"/>
			<line class="st0" x1="27.6" y1="54.4" x2="256.8" y2="130.2"/>
			<line class="st0" x1="27.6" y1="50" x2="256.8" y2="125.8"/>
			<line class="st0" x1="27.6" y1="45.6" x2="256.8" y2="121.3"/>
			<line class="st0" x1="27.6" y1="41.2" x2="256.8" y2="116.9"/>
			<line class="st0" x1="27.6" y1="36.7" x2="256.8" y2="112.5"/>
			<line class="st0" x1="27.5" y1="32.3" x2="256.7" y2="108.1"/>
			<line class="st0" x1="27.5" y1="27.9" x2="256.7" y2="103.7"/>
			<line class="st0" x1="27.5" y1="23.5" x2="256.7" y2="99.3"/>
			<line class="st0" x1="27.5" y1="19.1" x2="256.7" y2="94.8"/>
			<line class="st0" x1="27.5" y1="14.6" x2="256.7" y2="90.4"/>
			<line class="st0" x1="27.5" y1="10.2" x2="256.7" y2="86"/>
			<line class="st0" x1="27.5" y1="5.8" x2="256.6" y2="81.6"/>
			<line class="st0" x1="27.4" y1="1.4" x2="256.6" y2="77.2"/>
			<line class="st0" x1="27.4" y1="-3" x2="256.6" y2="72.7"/>
			<line class="st0" x1="27.4" y1="-7.5" x2="256.6" y2="68.3"/>
			<line class="st0" x1="27.4" y1="-11.9" x2="256.6" y2="63.9"/>
			<line class="st0" x1="27.4" y1="-16.3" x2="256.6" y2="59.5"/>
			<line class="st0" x1="27.4" y1="-20.7" x2="256.5" y2="55.1"/>
			<line class="st0" x1="27.3" y1="-25.1" x2="256.5" y2="50.6"/>
			<line class="st0" x1="27.3" y1="-29.6" x2="256.5" y2="46.2"/>
			<line class="st0" x1="27.3" y1="-34" x2="256.5" y2="41.8"/>
			<line class="st0" x1="27.3" y1="-38.4" x2="256.5" y2="37.4"/>
			<line class="st0" x1="27.3" y1="-42.8" x2="256.5" y2="33"/>
			<line class="st0" x1="27.3" y1="-47.2" x2="256.5" y2="28.5"/>
			<line class="st0" x1="27.2" y1="-51.6" x2="256.4" y2="24.1"/>
			<line class="st0" x1="27.2" y1="-56.1" x2="256.4" y2="19.7"/>
			<line class="st0" x1="27.2" y1="-60.5" x2="256.4" y2="15.3"/>
			<line class="st0" x1="27.2" y1="-64.9" x2="256.4" y2="10.9"/>
		</g>
	</g>
</g>
</svg>
