<?xml version="1.0" encoding="utf-8"?>
<!-- Generator: Adobe Illustrator 19.1.0, SVG Export Plug-In . SVG Version: 6.00 Build 0)  -->
<!DOCTYPE svg PUBLIC "-//W3C//DTD SVG 1.1//EN" "http://www.w3.org/Graphics/SVG/1.1/DTD/svg11.dtd">
<svg version="1.1" xmlns="http://www.w3.org/2000/svg" xmlns:xlink="http://www.w3.org/1999/xlink" x="0px" y="0px"
	 viewBox="0 0 187.9 21.6" style="enable-background:new 0 0 187.9 21.6;" xml:space="preserve">
<style type="text/css">
	.st0{fill:#B3B2B2;}
</style>
<g id="Layer_2">
</g>
<g id="thick">
	<g>
		<polygon class="st0" points="77.8,10.8 88.9,10.8 88.9,10.7 88.9,10.6 88.9,10.2 88.9,10.1 88.9,10 77.8,10 77.8,0.7 89.6,0.7 
			89.6,0.5 89.6,0.5 89.6,0 77.1,0 77.1,21.6 90.1,21.6 90.1,21.1 90.1,21.1 90.1,20.9 77.8,20.9 		"/>
		<polygon class="st0" points="123.6,10.8 134.7,10.8 134.7,10.6 134.7,10.6 134.7,10.2 134.7,10.2 134.7,10 123.6,10 123.6,0.7 
			135.4,0.7 135.4,0.6 135.4,0.6 135.4,0 122.8,0 122.8,21.6 135.9,21.6 135.9,21.1 135.9,21.1 135.9,20.9 123.6,20.9 		"/>
		<polygon class="st0" points="7.2,5.7 7.2,7.2 7.2,9.6 7.2,10.6 7.2,20.5 1.7,20.5 6.1,11.7 6.1,9.3 0.5,20.5 0,21.6 1.2,21.6 
			7.7,21.6 8.3,21.6 8.3,7.4 8.3,5.1 8.3,0.2 7.2,0.2 		"/>
		<path class="st0" d="M25.2,0c-6.1,0-10.5,4.5-10.5,10.8c0,6.3,4.5,10.8,10.5,10.8s10.5-4.5,10.5-10.8C35.7,4.5,31.3,0,25.2,0z
			 M25.2,0.8c5.3,0,9.6,4.5,9.6,10.1S30.5,21,25.2,21s-9.6-4.5-9.6-10.1S19.9,0.8,25.2,0.8z"/>
		<path class="st0" d="M53.6,5.3C53.6,1,50,0,46.8,0h-6v21.6h0.5h0.1h0.1V10.8h4.9L53,21.7l0.1-0.1h0.8l-6.6-10.9
			C50.1,10.6,53.6,9.4,53.6,5.3z M41.6,10V0.7c0.9,0,6-0.1,6.9,0.2c1.9,0.3,4.1,1.5,4.2,3.9c0.2,2.8-1,4.3-3.8,5
			C47.5,10.2,42.5,10,41.6,10z"/>
		<path class="st0" d="M71.7,5.3C71.7,1,68.1,0,64.9,0h-6v21.6h0.5h0.2h0V10.8h4.9L71,21.7l0.2-0.1l0,0H72l-6.6-10.9
			C68.3,10.6,71.7,9.4,71.7,5.3z M59.7,10V0.7c0.9,0,6-0.1,6.9,0.2c1.9,0.3,4.1,1.5,4.2,3.9c0.2,2.8-1,4.3-3.8,5
			C65.5,10.2,60.5,10,59.7,10z"/>
		<polygon class="st0" points="104.6,13.9 103.5,13.9 103.5,15 103.5,21.6 104.6,21.6 104.6,15 114.2,15 114.2,21.6 115.3,21.6 
			115.3,15 115.3,13.9 114.2,13.9 		"/>
		<polygon class="st0" points="114.2,10.3 104.6,10.3 104.6,0.2 103.5,0.2 103.5,10.3 103.5,11.4 104.6,11.4 114.2,11.4 115.3,11.4 
			115.3,10.3 115.3,0.2 114.2,0.2 		"/>
		<path class="st0" d="M154.9,0h-0.1v12.9c0,5.1-2.6,7.9-7.2,7.9s-7.2-2.8-7.2-7.9V0h-0.1h-0.1h-0.5v13.1c0,4.7,2.1,8.5,8,8.5
			c5.9,0,8-3.8,8-8.5V0H155H154.9z"/>
		<polygon class="st0" points="173.8,0 158.4,0 158.4,0.5 158.4,0.6 158.4,0.7 165.7,0.7 165.7,21.6 165.8,21.6 165.9,21.6 
			166.3,21.6 166.5,21.6 166.6,21.6 166.6,0.7 173.8,0.7 173.8,0.5 173.8,0.5 		"/>
		<path class="st0" d="M182,10.3c-0.4-0.1-0.7-0.2-1-0.3c-2.6-1-4.3-2.2-4.3-4.7c0-2.7,2.3-4.6,5.5-4.6c3.1,0,4.6,2,4.7,2.1l0.2-0.1
			c0,0,0,0,0,0l0.4-0.3c-1.2-1.5-3.2-2.3-5.2-2.3c-3.4,0-6.2,1.9-6.2,5.3c0,3.4,2.3,4.6,5.7,5.7c2.7,0.9,5.5,1.9,5.5,5
			c0,3.1-2.6,4.9-5.6,4.9c-2.1,0-4.1-0.8-5.5-2.3l-0.5,0.4l-0.1,0.1c1,1.2,3.3,2.5,6.2,2.5c0.1,0,0.2,0,0.3,0c2.8-0.1,6-1.7,6-5.9
			C187.9,12.3,184.5,11.1,182,10.3z"/>
	</g>
</g>
</svg>
